SplineFontDB: 3.0
FontName: Oswald-Heavy
FullName: Oswald-HeavyPole
FamilyName: Oswald
Weight: Heavy
Copyright: 
Version: 1
ItalicAngle: 0
UnderlinePosition: -240
UnderlineWidth: 125
Ascent: 1658
Descent: 390
UFOAscent: 1658
UFODescent: -390
LayerCount: 2
Layer: 0 0 "Back"  1
Layer: 1 0 "Fore"  0
OS2Version: 0
OS2_WeightWidthSlopeOnly: 0
OS2_UseTypoMetrics: 0
CreationTime: 1371846926
ModificationTime: 1371848202
PfmFamily: 0
TTFWeight: 800
TTFWidth: 5
LineGap: 0
VLineGap: 0
OS2TypoAscent: 2444
OS2TypoAOffset: 0
OS2TypoDescent: -591
OS2TypoDOffset: 0
OS2TypoLinegap: 0
OS2WinAscent: 2444
OS2WinAOffset: 0
OS2WinDescent: 591
OS2WinDOffset: 0
HheadAscent: 0
HheadAOffset: 1
HheadDescent: 0
HheadDOffset: 1
OS2Vendor: 'newt'
Lookup: 258 0 0 "'kern' Horizontal Kerning in Latin lookup 0"  {"'kern' Horizontal Kerning in Latin lookup 0 subtable"  } ['kern' ('latn' <'dflt' > ) ]
Lookup: 260 0 0 "'mark' Mark Positioning lookup 8"  {"'mark' Mark Positioning lookup 8-1"  } ['mark' ('DFLT' <'dflt' > 'cyrl' <'dflt' > 'grek' <'dflt' > 'latn' <'dflt' > ) ]
MarkAttachClasses: 1
DEI: 91125
LangName: 1033 "" "" "" "" "" "Version 1" 
Encoding: Oswald-Latin-Cyrillic
Compacted: 1
UnicodeInterp: none
NameList: AGL For New Fonts
DisplaySize: -72
AntiAlias: 1
FitToEm: 1
WinInfo: 38 19 9
BeginPrivate: 4
BlueValues 27 [-66 0 2923 2989 4199 4257]
OtherBlues 11 [-959 -939]
BlueShift 1 0
BlueScale 19 0.08945421317038466
EndPrivate
AnchorClass2: "ogonek"  "'mark' Mark Positioning lookup 8-1" 
BeginChars: 65560 567

StartChar: A
Encoding: 65 65 0
Width: 1122
VWidth: 0
GlyphClass: 2
Flags: W
AnchorPoint: "ogonek" 908 0 basechar 0
LayerCount: 2
UndoRedoHistory
Layer: 1
Undoes
EndUndoes
Redoes
EndRedoes
EndUndoRedoHistory
Fore
SplineSet
492 564 m 1
 564 1179 l 1
 637 564 l 1
 492 564 l 1
23 0 m 1
 412 0 l 1
 460 328 l 1
 671 328 l 1
 722 0 l 1
 1099 0 l 1
 803 1658 l 1
 321 1658 l 1
 23 0 l 1
EndSplineSet
EndChar

StartChar: AE
Encoding: 256 198 1
Width: 1501
VWidth: 0
GlyphClass: 2
Flags: W
LayerCount: 2
UndoRedoHistory
Layer: 1
Undoes
EndUndoes
Redoes
EndRedoes
EndUndoRedoHistory
Fore
SplineSet
626 572 m 1
 800 1044 l 1
 800 572 l 1
 626 572 l 1
0 0 m 1
 418 0 l 1
 546 321 l 1
 800 321 l 1
 800 0 l 1
 1470 0 l 1
 1470 275 l 1
 1146 275 l 1
 1146 713 l 1
 1374 713 l 1
 1374 999 l 1
 1146 999 l 1
 1146 1349 l 1
 1470 1349 l 1
 1470 1626 l 1
 730 1626 l 1
 0 0 l 1
EndSplineSet
EndChar

StartChar: B
Encoding: 66 66 11
Width: 1194
VWidth: 0
GlyphClass: 2
Flags: W
HStem: 0 287<562 704.818> 742 262<562 699.35> 1388 270<549 678.87>
VStem: 745 360<1047.4 1319.83> 761 398<345.123 690.152>
LayerCount: 2
UndoRedoHistory
Layer: 1
Undoes
EndUndoes
Redoes
EndRedoes
EndUndoRedoHistory
Fore
SplineSet
549 1658 m 2xf0
 98 1658 l 1
 98 0 l 1
 632 0 l 2
 958 0 1165 136 1159 499 c 0xe8
 1155 733 1050 874 862 890 c 1
 1007 920 1100 1019 1105 1217 c 0
 1115 1615 827 1658 549 1658 c 2xf0
510 1388 m 1
 579 1388 l 2
 682 1388 745 1302 745 1206 c 0xf0
 745 1086 717 1004 562 1004 c 2
 510 1004 l 1
 510 1388 l 1
510 742 m 1
 565 742 l 2
 713 742 761 684 761 506 c 0xe8
 761 365 711 287 562 287 c 2
 510 287 l 1
 510 742 l 1
EndSplineSet
EndChar

StartChar: C
Encoding: 67 67 12
Width: 1144
VWidth: 0
GlyphClass: 2
Flags: W
HStem: -26 284<521.004 666.082> 1400 284<521.004 666.082>
VStem: 78 420<283.2 529 1129 1374.8> 686 406<280.802 462 1205 1384.95>
LayerCount: 2
UndoRedoHistory
Layer: 1
Undoes
EndUndoes
Redoes
EndRedoes
EndUndoRedoHistory
Fore
SplineSet
594 -26 m 0
 981 -26 1092 187 1092 462 c 2
 1092 610 l 1
 686 610 l 1
 686 418 l 2
 686 352 684 258 594 258 c 0
 504 258 498 352 498 418 c 2
 498 1241 l 2
 498 1307 504 1400 594 1400 c 0
 684 1400 686 1307 686 1241 c 2
 686 1056 l 1
 1092 1056 l 1
 1092 1205 l 2
 1092 1480 981 1684 594 1684 c 0
 207 1684 78 1476 78 1129 c 2
 78 529 l 2
 78 182 207 -26 594 -26 c 0
EndSplineSet
EndChar

StartChar: D
Encoding: 68 68 18
Width: 1198
VWidth: 0
GlyphClass: 2
Flags: W
HStem: 0 284<538 675.982> 1374 284<538 675.982>
VStem: 694 424<312.405 530 1128 1345.6>
LayerCount: 2
UndoRedoHistory
Layer: 1
Undoes
EndUndoes
Redoes
EndRedoes
EndUndoRedoHistory
Fore
SplineSet
538 1658 m 2
 98 1658 l 1
 98 0 l 1
 538 0 l 2
 994 0 1118 149 1118 530 c 2
 1118 1128 l 2
 1118 1509 994 1658 538 1658 c 2
510 1374 m 1
 545 1374 l 2
 680 1374 694 1332 694 1224 c 2
 694 435 l 2
 694 327 680 284 545 284 c 2
 510 284 l 1
 510 1374 l 1
EndSplineSet
EndChar

StartChar: Dcroat
Encoding: 272 272 20
Width: 1051
VWidth: 0
GlyphClass: 2
Flags: W
HStem: 0 284<538 675.982> 1374 284<538 675.982>
VStem: 694 424<312.405 530 1128 1345.6>
LayerCount: 2
UndoRedoHistory
Layer: 1
Undoes
EndUndoes
Redoes
EndRedoes
EndUndoRedoHistory
Fore
SplineSet
510 284 m 1
 510 746 l 1
 581 746 l 1
 581 946 l 1
 510 946 l 1
 510 1374 l 1
 545 1374 l 2
 680 1374 694 1332 694 1224 c 2
 694 435 l 2
 694 327 680 284 545 284 c 2
 510 284 l 1
538 1658 m 2
 98 1658 l 1
 98 946 l 1
 10 946 l 1
 10 746 l 1
 98 746 l 1
 98 0 l 1
 538 0 l 2
 994 0 1118 149 1118 530 c 2
 1118 1128 l 2
 1118 1509 994 1658 538 1658 c 2
EndSplineSet
EndChar

StartChar: Delta
Encoding: 65536 916 21
Width: 1019
VWidth: 0
Flags: W
LayerCount: 2
UndoRedoHistory
Layer: 1
Undoes
EndUndoes
Redoes
EndRedoes
EndUndoRedoHistory
Fore
SplineSet
12 0 m 1
 1007 0 l 1
 746 1658 l 1
 296 1658 l 1
 12 0 l 1
408 243 m 1
 447.45582698 536.54417302 483.474060755 833.525939245 519 1131 c 1
 552.677824792 833.677824792 586.694212526 536.694212526 624 243 c 1
 408 243 l 1
EndSplineSet
EndChar

StartChar: E
Encoding: 69 69 22
Width: 894
VWidth: 0
GlyphClass: 2
Flags: W
AnchorPoint: "ogonek" 588 0 basechar 0
LayerCount: 2
UndoRedoHistory
Layer: 1
Undoes
EndUndoes
Redoes
EndRedoes
EndUndoRedoHistory
Fore
SplineSet
859 1658 m 1
 98 1658 l 1
 98 0 l 1
 863 0 l 1
 863 275 l 1
 510 275 l 1
 510 733 l 1
 764 733 l 1
 764 1019 l 1
 510 1019 l 1
 510 1382 l 1
 859 1382 l 1
 859 1658 l 1
EndSplineSet
EndChar

StartChar: Eng
Encoding: 280 330 30
Width: 1126
VWidth: 0
GlyphClass: 2
Flags: W
HStem: -444 237<455 643.229>
LayerCount: 2
UndoRedoHistory
Layer: 1
Undoes
EndUndoes
Redoes
EndRedoes
EndUndoRedoHistory
Fore
SplineSet
455 -444 m 1
 632 -444 l 2
 951.634504467 -444 1027.82607131 -291.349305506 1028 0 c 0
 1028 552.666666667 1028 1105.33333333 1028 1658 c 1
 687 1658 l 1
 687 962 l 1
 391 1658 l 1
 98 1658 l 1
 98 0 l 1
 452 0 l 1
 452 767 l 1
 677 180.010204082 l 1
 677 -48 l 2
 677 -167 630 -210 455 -207 c 1
 455 -444 l 1
EndSplineSet
EndChar

StartChar: Eth
Encoding: 282 208 32
Width: 1185
VWidth: 0
GlyphClass: 2
Flags: W
HStem: 0 284<538 675.982> 1374 284<538 675.982>
VStem: 694 424<312.405 530 1128 1345.6>
LayerCount: 2
UndoRedoHistory
Layer: 1
Undoes
EndUndoes
Redoes
EndRedoes
EndUndoRedoHistory
Fore
SplineSet
98 746 m 1,0,-1
 98 0 l 1,1,-1
 538 0 l 2,2,-1
 994 0 1118 149 1118 530 c 2,5,-1
 1118 1128 l 2,6,-1
 1118 1509 994 1658 538 1658 c 2,9,-1
 98 1658 l 1,10,-1
 98 946 l 1,11,-1
 10 946 l 1,12,-1
 10 746 l 1,13,-1
 98 746 l 1,0,-1
510 746 m 1,14,-1
 581 746 l 1,15,-1
 581 946 l 1,16,-1
 510 946 l 1,17,-1
 510 1374 l 1,18,-1
 545 1374 l 2,19,-1
 680 1374 694 1332 694 1224 c 2,22,-1
 694 435 l 2,23,-1
 694 327 680 284 545 284 c 2,26,-1
 510 284 l 1,27,-1
 510 746 l 1,14,-1
EndSplineSet
EndChar

StartChar: Euro
Encoding: 283 8364 33
Width: 1191
VWidth: 0
GlyphClass: 2
Flags: W
HStem: -26 284<569.004 714.082> 1400 284<569.004 714.082>
VStem: 126 420<283.2 529 1129 1374.8> 734 406<280.802 462 1205 1384.95>
LayerCount: 2
UndoRedoHistory
Layer: 1
Undoes
EndUndoes
Redoes
EndRedoes
EndUndoRedoHistory
Fore
SplineSet
642 -26 m 0
 1029 -26 1140 187 1140 462 c 2
 1140 507 l 1
 734 507 l 1
 734 418 l 2
 734 352 732 258 642 258 c 0
 552 258 546 352 546 418 c 2
 546 657 l 1
 762 657 l 1
 762 771 l 1
 546 771 l 1
 546 865 l 1
 762 865 l 1
 762 979 l 1
 546 979 l 1
 546 1241 l 2
 546 1307 552 1400 642 1400 c 0
 732 1400 734 1307 734 1241 c 2
 734 1099 l 1
 1140 1099 l 1
 1140 1205 l 2
 1140 1480 1029 1684 642 1684 c 0
 255 1684 126 1476 126 1129 c 2
 126 979 l 1
 28 979 l 1
 28 865 l 1
 126 865 l 1
 126 771 l 1
 28 771 l 1
 28 657 l 1
 126 657 l 1
 126 529 l 2
 126 182 255 -26 642 -26 c 0
EndSplineSet
EndChar

StartChar: F
Encoding: 70 70 34
Width: 835
VWidth: 0
GlyphClass: 2
Flags: W
LayerCount: 2
UndoRedoHistory
Layer: 1
Undoes
EndUndoes
Redoes
EndRedoes
EndUndoRedoHistory
Fore
SplineSet
98 0 m 1
 510 0 l 1
 510 723 l 1
 784 723 l 1
 784 1009 l 1
 510 1009 l 1
 510 1382 l 1
 831 1382 l 1
 831 1658 l 1
 98 1658 l 1
 98 0 l 1
EndSplineSet
EndChar

StartChar: G
Encoding: 71 71 35
Width: 1196
VWidth: 0
GlyphClass: 2
Flags: W
HStem: -26 285<361.145 696.121> 1400 284<526.091 671.401>
VStem: 80 424<292.921 550 1109 1383.73>
LayerCount: 2
UndoRedoHistory
Layer: 1
Undoes
EndUndoes
Redoes
EndRedoes
EndUndoRedoHistory
Fore
SplineSet
823 0 m 1
 1099 0 l 1
 1099 875 l 1
 598 875 l 1
 598 640 l 1
 728 640 l 1
 728 419 l 2
 728 353 703 259 613 259 c 0
 523 259 504 353 504 419 c 2
 504 1241 l 2
 504 1307 512 1400 602 1400 c 0
 692 1400 693 1307 693 1241 c 2
 693 1077 l 1
 1099 1077 l 1
 1099 1198 l 2
 1099 1473 984 1684 597 1684 c 0
 210 1684 80 1456 80 1109 c 2
 80 550 l 2
 80 215 191 -26 546 -26 c 0
 685.327078724 -26 761.739680453 35.9415727114 803.314549901 117.905485329 c 1
 823 0 l 1
EndSplineSet
EndChar

StartChar: H
Encoding: 72 72 40
Width: 1199
VWidth: 0
GlyphClass: 2
Flags: W
LayerCount: 2
UndoRedoHistory
Layer: 1
Undoes
EndUndoes
Redoes
EndRedoes
EndUndoRedoHistory
Fore
SplineSet
98 0 m 1
 510 0 l 1
 510 709 l 1
 689 709 l 1
 689 0 l 1
 1101 0 l 1
 1101 1658 l 1
 689 1658 l 1
 689 1004 l 1
 510 1004 l 1
 510 1658 l 1
 98 1658 l 1
 98 0 l 1
EndSplineSet
EndChar

StartChar: Hbar
Encoding: 288 294 41
Width: 1092
VWidth: 0
GlyphClass: 2
Flags: W
LayerCount: 2
UndoRedoHistory
Layer: 1
Undoes
EndUndoes
Redoes
EndRedoes
EndUndoRedoHistory
Fore
SplineSet
651 0 m 1
 1063 0 l 1
 1063 1257 l 1
 1137.5 1257 l 1
 1137.5 1369 l 1
 1063 1369 l 1
 1063 1658 l 1
 651 1658 l 1
 651 1369 l 1
 472 1369 l 1
 472 1658 l 1
 60 1658 l 1
 60 1369 l 1
 -45.5 1369 l 1
 -45.5 1257 l 1
 60 1257 l 1
 60 0 l 1
 472 0 l 1
 472 709 l 1
 651 709 l 1
 651 0 l 1
651 1257 m 1
 651 1004 l 1
 472 1004 l 1
 472 1257 l 1
 651 1257 l 1
EndSplineSet
EndChar

StartChar: I
Encoding: 73 73 43
Width: 608
VWidth: 0
GlyphClass: 2
Flags: W
VStem: 98 412
AnchorPoint: "ogonek" 318 0 basechar 0
LayerCount: 2
UndoRedoHistory
Layer: 1
Undoes
EndUndoes
Redoes
EndRedoes
EndUndoRedoHistory
Fore
SplineSet
98 0 m 1
 510 0 l 1
 510 1658 l 1
 98 1658 l 1
 98 0 l 1
EndSplineSet
EndChar

StartChar: IJ
Encoding: 290 306 44
Width: 1269
VWidth: 0
GlyphClass: 2
Flags: W
HStem: -44 286<595 758.258>
LayerCount: 2
UndoRedoHistory
Layer: 1
Undoes
EndUndoes
Redoes
EndRedoes
EndUndoRedoHistory
Fore
SplineSet
595 -44 m 1
 796 -44 l 2
 1101.43747464 -44 1184.57748421 95.3914432585 1191.51198602 362 c 1
 1192 362 l 1
 1192 794 1192 1226 1192 1658 c 1
 780 1658 l 1
 780 381 l 2
 780 262 727 239 595 242 c 1
 595 -44 l 1
98 0 m 1
 510 0 l 1
 510 1658 l 1
 98 1658 l 1
 98 0 l 1
EndSplineSet
EndChar

StartChar: J
Encoding: 74 74 54
Width: 702
VWidth: 0
GlyphClass: 2
Flags: W
HStem: -44 286<7 170.258>
LayerCount: 2
UndoRedoHistory
Layer: 1
Undoes
EndUndoes
Redoes
EndRedoes
EndUndoRedoHistory
Fore
SplineSet
7 -44 m 1
 208 -44 l 2
 513.437474637 -44 596.577484209 95.3914432585 603.511986021 362 c 1
 604 362 l 1
 604 794 604 1226 604 1658 c 1
 192 1658 l 1
 192 381 l 2
 192 262 139 239 7 242 c 1
 7 -44 l 1
EndSplineSet
EndChar

StartChar: K
Encoding: 75 75 56
Width: 1162
VWidth: 0
GlyphClass: 2
Flags: W
LayerCount: 2
UndoRedoHistory
Layer: 1
Undoes
EndUndoes
Redoes
EndRedoes
EndUndoRedoHistory
Fore
SplineSet
740 0 m 1
 1165 0 l 1
 863 904 l 1
 1163 1658 l 1
 757 1658 l 1
 510 1016.92272727 l 1
 510 1658 l 1
 98 1658 l 1
 98 0 l 1
 510 0 l 1
 510 692.849056604 l 1
 529 714 l 1
 740 0 l 1
EndSplineSet
EndChar

StartChar: L
Encoding: 76 76 58
Width: 911
VWidth: 0
GlyphClass: 2
Flags: W
LayerCount: 2
UndoRedoHistory
Layer: 1
Undoes
EndUndoes
Redoes
EndRedoes
EndUndoRedoHistory
Fore
SplineSet
510 275 m 1
 510 1658 l 1
 98 1658 l 1
 98 0 l 1
 877 0 l 1
 877 275 l 1
 510 275 l 1
EndSplineSet
EndChar

StartChar: Lslash
Encoding: 306 321 63
Width: 960
VWidth: 0
GlyphClass: 2
Flags: W
LayerCount: 2
UndoRedoHistory
Layer: 1
Undoes
EndUndoes
Redoes
EndRedoes
EndUndoRedoHistory
Fore
SplineSet
142 720.567493113 m 1,0,-1
 142 0 l 1,1,-1
 921 0 l 1,2,-1
 921 275 l 1,3,-1
 554 275 l 1,4,-1
 554 907.272727273 l 1,5,-1
 752 997 l 1,6,-1
 752 1205 l 1,7,-1
 554 1115.27272727 l 1,8,-1
 554 1658 l 1,9,-1
 142 1658 l 1,10,-1
 142 928.567493113 l 1,11,-1
 26 876 l 1,12,-1
 26 668 l 1,13,-1
 142 720.567493113 l 1,0,-1
EndSplineSet
EndChar

StartChar: M
Encoding: 77 77 64
Width: 1416
VWidth: 0
GlyphClass: 2
Flags: W
VStem: 86 290<0 553.472> 113 291<777.663 1081> 1012 291<777.663 1071> 1044 286<0 479.808>
LayerCount: 2
UndoRedoHistory
Layer: 1
Undoes
EndUndoes
Redoes
EndRedoes
EndUndoRedoHistory
Fore
SplineSet
86 0 m 1x80
 376 0 l 1x80
 404 1081 l 1
 583 0 l 1
 847 0 l 1
 1012 1071 l 1x60
 1044 0 l 1
 1330 0 l 1x10
 1303 1658 l 1
 871 1658 l 1
 708 824 l 1
 563 1658 l 1
 113 1658 l 1x60
 86 0 l 1x80
EndSplineSet
EndChar

StartChar: N
Encoding: 78 78 65
Width: 1126
VWidth: 0
GlyphClass: 2
Flags: W
LayerCount: 2
UndoRedoHistory
Layer: 1
Undoes
EndUndoes
Redoes
EndRedoes
EndUndoRedoHistory
Fore
SplineSet
98 0 m 1
 452 0 l 1
 452 767 l 1
 746 0 l 1
 1028 0 l 1
 1028 1658 l 1
 687 1658 l 1
 687 962 l 1
 391 1658 l 1
 98 1658 l 1
 98 0 l 1
EndSplineSet
EndChar

StartChar: O
Encoding: 79 79 70
Width: 1192
VWidth: 0
GlyphClass: 2
Flags: W
HStem: -26 284<522.235 666.601> 1400 284<522.235 666.601>
VStem: 80 424<278.245 523 1135 1379.76> 688 424<278.245 523 1135 1379.76>
AnchorPoint: "ogonek" 608 0 basechar 0
LayerCount: 2
UndoRedoHistory
Layer: 1
Undoes
EndUndoes
Redoes
EndRedoes
EndUndoRedoHistory
Fore
SplineSet
594 -26 m 0
 981 -26 1112 176 1112 523 c 2
 1112 1135 l 2
 1112 1482 981 1684 594 1684 c 0
 207 1684 80 1482 80 1135 c 2
 80 523 l 2
 80 176 207 -26 594 -26 c 0
594 258 m 0
 504 258 504 352 504 418 c 2
 504 1241 l 2
 504 1307 504 1400 594 1400 c 0
 684 1400 688 1307 688 1241 c 2
 688 418 l 2
 688 352 684 258 594 258 c 0
EndSplineSet
EndChar

StartChar: OE
Encoding: 311 338 71
Width: 1473
VWidth: 0
GlyphClass: 2
Flags: W
VStem: 80 412<311.995 591 1046 1332.11>
LayerCount: 2
UndoRedoHistory
Layer: 1
Undoes
EndUndoes
Redoes
EndRedoes
EndUndoRedoHistory
Fore
SplineSet
589 280 m 1
 497 279 492 413 492 487 c 2
 492 1150 l 2
 492 1221 498 1359 589 1359 c 2
 686 1359 l 1
 686 280 l 1
 589 280 l 1
589 0 m 2
 1421 0 l 1
 1421 275 l 1
 1097 275 l 1
 1097 713 l 1
 1326 713 l 1
 1326 999 l 1
 1097 999 l 1
 1097 1375 l 1
 1421 1375 l 1
 1421 1650 l 1
 589 1650 l 1
 201 1649 80 1376 80 1046 c 2
 80 591 l 2
 80 242 209 0 589 0 c 2
EndSplineSet
EndChar

StartChar: Oslash
Encoding: 319 216 79
Width: 1192
VWidth: 0
GlyphClass: 2
Flags: W
HStem: -26 284<520.007 666.601> 1400 284<522.235 667.899>
VStem: 80 424<272.816 503.847 1135 1379.76> 688 424<278.245 523 1178.86 1381.5>
LayerCount: 2
UndoRedoHistory
Layer: 1
Undoes
EndUndoes
Redoes
EndRedoes
EndUndoRedoHistory
Fore
SplineSet
594 -26 m 0
 981 -26 1112 176 1112 523 c 2
 1112 1135 l 2
 1112 1340.0868569 1066.23979045 1494.52310016 948.912516651 1586.54080407 c 1
 1028 1779 l 1
 949 1814 l 1
 874.245867833 1632.0860035 l 1
 801.211052914 1666.1982615 708.885836002 1684 594 1684 c 0
 207 1684 80 1482 80 1135 c 2
 80 523 l 2
 80 321.308924411 122.906010568 168.605026242 234.835030115 76.0813048116 c 1
 137 -162 l 1
 216 -197 l 1
 308.755200238 28.7195513186 l 1
 382.179764352 -7.22161457801 476.004782647 -26 594 -26 c 0
594 258 m 0
 504 258 504 352 504 418 c 2
 504 503.84729064 l 1
 688 951.610837438 l 1
 688 418 l 2
 688 352 684 258 594 258 c 0
688 1178.85714286 m 1
 504 731.093596059 l 1
 504 1241 l 2
 504 1307 504 1400 594 1400 c 0
 684 1400 688 1307 688 1241 c 2
 688 1178.85714286 l 1
EndSplineSet
EndChar

StartChar: P
Encoding: 80 80 81
Width: 1169
VWidth: 0
GlyphClass: 2
Flags: W
VStem: 766 386<992.935 1336.16>
LayerCount: 2
UndoRedoHistory
Layer: 1
Undoes
EndUndoes
Redoes
EndRedoes
EndUndoRedoHistory
Fore
SplineSet
98 0 m 1
 510 0 l 1
 510 682 l 1
 646 682 l 2
 915 682 1152 746 1152 1170 c 0
 1152 1484 1003 1658 705 1658 c 2
 98 1658 l 1
 98 0 l 1
510 1370 m 1
 637 1370 l 2
 756 1370 766 1266 766 1179 c 0
 766 1046 756 967 641 967 c 2
 510 967 l 1
 510 1370 l 1
EndSplineSet
EndChar

StartChar: Q
Encoding: 81 81 82
Width: 1192
VWidth: 0
GlyphClass: 2
Flags: W
HStem: -26 284<524.452 659.617> 1400 284<522.235 666.601>
VStem: 80 424<278.245 523 1135 1379.76> 688 424<274.928 523 1135 1379.76>
LayerCount: 2
UndoRedoHistory
Layer: 1
Undoes
EndUndoes
Redoes
EndRedoes
EndUndoRedoHistory
Fore
SplineSet
982 -322 m 1
 1072 -94 l 1
 1015.00314197 -66.4062830195 953.913764644 -13.0296944141 902.061053255 40.2119056137 c 1
 1054.22428416 126.061063622 1112 292.5554219 1112 523 c 2
 1112 1135 l 2
 1112 1482 981 1684 594 1684 c 0
 207 1684 80 1482 80 1135 c 2
 80 523 l 2
 80 176 207 -26 594 -26 c 0
 605.256732914 -26 616.296873655 -25.8290952383 627.12349842 -25.488688461 c 1
 717.038102998 -163.568647467 897.014349366 -289.624514044 982 -322 c 1
594 258 m 0
 504 258 504 352 504 418 c 2
 504 1241 l 2
 504 1307 504 1400 594 1400 c 0
 684 1400 688 1307 688 1241 c 2
 688 418 l 2
 688 352 684 258 594 258 c 0
EndSplineSet
EndChar

StartChar: R
Encoding: 82 82 83
Width: 1186
VWidth: 0
GlyphClass: 2
Flags: W
VStem: 747 399<1011.33 1331.74>
LayerCount: 2
UndoRedoHistory
Layer: 1
Undoes
EndUndoes
Redoes
EndRedoes
EndUndoRedoHistory
Fore
SplineSet
747 0 m 1
 1188 0 l 1
 937 803 l 1
 1106 891 1146 1014 1146 1221 c 0
 1146 1580 918 1658 585 1658 c 2
 98 1658 l 1
 98 0 l 1
 510 0 l 1
 510 711 l 1
 556 711 l 1
 747 0 l 1
510 1386 m 1
 583 1386 l 2
 698 1386 747 1301 747 1175 c 0
 747 1053 704 949 563 949 c 2
 510 949 l 1
 510 1386 l 1
EndSplineSet
EndChar

StartChar: S
Encoding: 83 83 87
Width: 989
VWidth: 0
GlyphClass: 2
Flags: W
HStem: -26 310<419.654 549.071> 1387 297<450.786 557.36>
VStem: 32 404<1124.84 1375.1> 32 350<330.536 514> 558 409<289.765 540.707> 576 358<1198 1381.62>
LayerCount: 2
UndoRedoHistory
Layer: 1
Undoes
EndUndoes
Redoes
EndRedoes
EndUndoRedoHistory
Fore
SplineSet
520 -26 m 0xd8
 796 -26 967 166 967 398 c 0xd8
 967 634 850 776 703 907 c 2
 614 986 l 2
 533 1058 436 1131 436 1274 c 0
 436 1311 454 1387 508 1387 c 0
 576 1387 576 1307 576 1164 c 1
 934 1198 l 1
 934 1358 919 1684 533 1684 c 0
 231 1684 32 1525 32 1233 c 0xe4
 32 1004 147 889 277 778 c 2
 374 695 l 2
 491 595 558 515 558 379 c 0
 558 347 556 284 494 284 c 0
 433 284 382 330 382 558 c 1
 32 514 l 1
 42 115 198 -26 520 -26 c 0xd8
EndSplineSet
EndChar

StartChar: T
Encoding: 84 84 93
Width: 887
VWidth: 0
GlyphClass: 2
Flags: W
LayerCount: 2
UndoRedoHistory
Layer: 1
Undoes
EndUndoes
Redoes
EndRedoes
EndUndoRedoHistory
Fore
SplineSet
236 0 m 1
 648 0 l 1
 648 1353 l 1
 871 1353 l 1
 871 1658 l 1
 16 1658 l 1
 16 1353 l 1
 236 1353 l 1
 236 0 l 1
EndSplineSet
EndChar

StartChar: Tbar
Encoding: 329 358 94
Width: 887
VWidth: 0
GlyphClass: 2
Flags: W
LayerCount: 2
UndoRedoHistory
Layer: 1
Undoes
EndUndoes
Redoes
EndRedoes
EndUndoRedoHistory
Fore
SplineSet
236 0 m 1
 648 0 l 1
 648 741 l 1
 827 741 l 1
 827 933 l 1
 648 933 l 1
 648 1353 l 1
 871 1353 l 1
 871 1658 l 1
 16 1658 l 1
 16 1353 l 1
 236 1353 l 1
 236 933 l 1
 62 933 l 1
 62 741 l 1
 236 741 l 1
 236 0 l 1
EndSplineSet
EndChar

StartChar: Thorn
Encoding: 332 222 97
Width: 1192
VWidth: 0
GlyphClass: 2
Flags: W
VStem: 792 372<807.358 1103.2>
LayerCount: 2
UndoRedoHistory
Layer: 1
Undoes
EndUndoes
Redoes
EndRedoes
EndUndoRedoHistory
Fore
SplineSet
98 0 m 1
 510 0 l 1
 510 479.211726384 l 1
 631 480 l 2
 993 483 1164 563 1164 982 c 0
 1164 1326 989 1436 641 1436 c 2
 510 1436 l 1
 510 1658 l 1
 98 1658 l 1
 98 0 l 1
510 1148 m 1
 623 1148 l 2
 748 1148 792 1084 792 959 c 0
 792 823 748 765 619 765 c 2
 510 765 l 1
 510 1148 l 1
EndSplineSet
EndChar

StartChar: U
Encoding: 85 85 98
Width: 1179
VWidth: 0
GlyphClass: 2
Flags: W
HStem: -26 293<516.054 661.952>
AnchorPoint: "ogonek" 618 0 basechar 0
LayerCount: 2
UndoRedoHistory
Layer: 1
Undoes
EndUndoes
Redoes
EndRedoes
EndUndoRedoHistory
Fore
SplineSet
589 -26 m 0
 976 -26 1097 150 1097 497 c 2
 1097 1658 l 1
 685 1658 l 1
 685 427 l 2
 685 361 679 267 589 267 c 0
 499 267 493 361 493 427 c 2
 493 1658 l 1
 82 1658 l 1
 82 497 l 2
 82 150 202 -26 589 -26 c 0
EndSplineSet
EndChar

StartChar: V
Encoding: 86 86 109
Width: 1019
VWidth: 0
GlyphClass: 2
Flags: W
LayerCount: 2
UndoRedoHistory
Layer: 1
Undoes
EndUndoes
Redoes
EndRedoes
EndUndoRedoHistory
Fore
SplineSet
296 0 m 1
 746 0 l 1
 1007 1658 l 1
 634 1658 l 1
 595.666666667 1320.33333333 557.333333333 982.666666667 519 645 c 1
 478.333333333 982.666666667 437.666666667 1320.33333333 397 1658 c 1
 12 1658 l 1
 296 0 l 1
EndSplineSet
EndChar

StartChar: W
Encoding: 87 87 110
Width: 1360
VWidth: 0
GlyphClass: 2
Flags: W
LayerCount: 2
UndoRedoHistory
Layer: 1
Undoes
EndUndoes
Redoes
EndRedoes
EndUndoRedoHistory
Fore
SplineSet
201 0 m 1
 575 0 l 1
 608.333333333 308.333333333 641.666666667 616.666666667 675 925 c 1
 711.666666667 616.666666667 748.333333333 308.333333333 785 0 c 1
 1157 0 l 1
 1332 1658 l 1
 985 1658 l 1
 956 1194 l 1
 911 778 l 1
 869 1194 l 1
 811 1658 l 1
 541 1658 l 1
 486 1190 l 1
 450 769 l 1
 404 1190 l 1
 378 1658 l 1
 28 1658 l 1
 201 0 l 1
EndSplineSet
EndChar

StartChar: X
Encoding: 88 88 115
Width: 1018
VWidth: 0
GlyphClass: 2
Flags: W
LayerCount: 2
UndoRedoHistory
Layer: 1
Undoes
EndUndoes
Redoes
EndRedoes
EndUndoRedoHistory
Fore
SplineSet
661 0 m 1
 1047 0 l 1
 741.587869052 779.035866325 l 1
 1003 1658 l 1
 666 1658 l 1
 554.986228012 1255.0135907 l 1
 397 1658 l 1
 5 1658 l 1
 303.563914027 903.397912413 l 1
 -12 0 l 1
 321 0 l 1
 482.423104868 451.342213611 l 1
 661 0 l 1
EndSplineSet
EndChar

StartChar: Y
Encoding: 89 89 116
AltUni2: 0004ae.ffffffff.0
Width: 986
VWidth: 0
GlyphClass: 2
Flags: W
LayerCount: 2
UndoRedoHistory
Layer: 1
Undoes
EndUndoes
Redoes
EndRedoes
EndUndoRedoHistory
Fore
SplineSet
295 0 m 1
 691 0 l 1
 691 710 l 5
 986 1658 l 1
 614 1658 l 1
 510 1227 l 5
 384 1658 l 1
 -5 1658 l 1
 295 710 l 5
 295 0 l 1
EndSplineSet
EndChar

StartChar: Z
Encoding: 90 90 121
Width: 865
VWidth: 0
GlyphClass: 2
Flags: W
LayerCount: 2
UndoRedoHistory
Layer: 1
Undoes
EndUndoes
Redoes
EndRedoes
EndUndoRedoHistory
Fore
SplineSet
44 0 m 1
 825 0 l 1
 825 275 l 1
 441 275 l 1
 820 1417 l 1
 820 1658 l 1
 56 1658 l 1
 56 1382 l 1
 420 1382 l 1
 44 239 l 1
 44 0 l 1
EndSplineSet
EndChar

StartChar: a
Encoding: 97 97 125
Width: 980
VWidth: 0
GlyphClass: 2
Flags: W
HStem: -22 239<242.5 471.919>
VStem: 50 330<232.003 450.655>
AnchorPoint: "ogonek" 758 0 basechar 0
LayerCount: 2
UndoRedoHistory
Layer: 1
Undoes
EndUndoes
Redoes
EndRedoes
EndUndoRedoHistory
Fore
SplineSet
469 217 m 0
 422 217 380 261 380 335 c 0
 380 405 434 531 545 583 c 1
 545 261 l 1
 523 231 495 217 469 217 c 0
340 -22 m 1
 460 -22 534 64 563 164 c 1
 590 0 l 1
 919 0 l 1
 913 52 898 138 898 298 c 2
 898 856 l 2
 898 1052 770 1206 529 1206 c 0
 256 1206 107 1084 85 815 c 2
 82 779 l 1
 425 765 l 1
 436 861 l 1
 439 897 448 930 492 930 c 0
 532 930 545 896 545 861 c 2
 545 731 l 1
 381 663 50 593 50 271 c 0
 50 133 145 -18 340 -22 c 1
EndSplineSet
EndChar

StartChar: acute
Encoding: 357 180 129
Width: 650
VWidth: 0
GlyphClass: 2
Flags: W
HStem: 1243 415
LayerCount: 2
UndoRedoHistory
Layer: 1
Undoes
EndUndoes
Redoes
EndRedoes
EndUndoRedoHistory
Fore
SplineSet
108 1243 m 1
 351 1243 l 1
 619 1658 l 1
 236 1658 l 1
 108 1243 l 1
EndSplineSet
EndChar

StartChar: acutecomb
Encoding: 587 769 130
Width: 650
VWidth: 0
GlyphClass: 2
Flags: W
HStem: 1243 415
LayerCount: 2
UndoRedoHistory
Layer: 1
Undoes
EndUndoes
Redoes
EndRedoes
EndUndoRedoHistory
Fore
SplineSet
108 1243 m 1
 351 1243 l 1
 619 1658 l 1
 236 1658 l 1
 108 1243 l 1
EndSplineSet
EndChar

StartChar: ae
Encoding: 359 230 132
Width: 1375
VWidth: 0
GlyphClass: 2
Flags: W
HStem: -27 245<293 524.244 884.046 1068.12> 603 161<877 974.375> 1016 229<894.228 1005.64>
VStem: 50 318<231.201 457.103> 529 347<232.749 346 844 924.272> 1014 303<804.679 1012.82>
LayerCount: 2
UndoRedoHistory
Layer: 1
Undoes
EndUndoes
Redoes
EndRedoes
EndUndoRedoHistory
Fore
SplineSet
876 764 m 1
 876 902 l 2
 876 973 917 1016 955 1016 c 0
 986 1016 1014 987 1014 921 c 0
 1014 814.446657891 958.663517902 775.999542921 876 764 c 1
448 218 m 0
 384 218 368 289 368 318 c 0
 368 351.215344906 382.507023501 459.141860839 474.532981387 520.080072854 c 0
 490.559863769 530.692834503 508.937922478 539.8804245 530 547 c 1
 532 317 l 2
 532 231 495 218 448 218 c 0
877 603 m 1
 1082.28364323 639.573522644 1317 709.419963764 1317 949 c 0
 1317 1079 1202 1245 961 1245 c 0
 832 1245 720 1176 688 1084 c 1
 666 1174 569 1246 439 1246 c 0
 169 1246 48 1078 54 787 c 1
 412 787 l 1
 412 913 444 926 473 926 c 0
 502 926 529 914 529 844 c 2
 529 699 l 1
 483.181202173 691.020321727 429.212500458 683.106902835 374.325536883 669.699565726 c 0
 215.983869858 631.021162513 50 546.619813323 50 283 c 0
 50 71 205 -27 381 -27 c 0
 494 -27 633 25 682 135 c 1
 712 22 863 -27 958 -27 c 0
 1176 -26 1300 92 1300 302 c 2
 1300 414 l 1
 963 414 l 1
 963 345 l 2
 963 277 969 232 923 232 c 0
 883 232 877 266 877 346 c 2
 877 603 l 1
EndSplineSet
EndChar

StartChar: afii00208
Encoding: 597 8213 133
Width: 4096
VWidth: 0
GlyphClass: 2
Flags: W
HStem: 713 249
LayerCount: 2
UndoRedoHistory
Layer: 1
Undoes
EndUndoes
Redoes
EndRedoes
EndUndoRedoHistory
Fore
SplineSet
2 713 m 1
 4094 713 l 1
 4094 962 l 1
 2 962 l 1
 2 713 l 1
EndSplineSet
EndChar

StartChar: afii10017
Encoding: 176 1040 134
Width: 1076
VWidth: 0
GlyphClass: 2
Flags: W
LayerCount: 2
UndoRedoHistory
Layer: 1
Undoes
EndUndoes
Redoes
EndRedoes
EndUndoRedoHistory
Fore
SplineSet
492 564 m 1
 564 1179 l 1
 637 564 l 1
 492 564 l 1
23 0 m 1
 412 0 l 1
 460 328 l 1
 671 328 l 1
 722 0 l 1
 1099 0 l 1
 803 1658 l 1
 321 1658 l 1
 23 0 l 1
EndSplineSet
EndChar

StartChar: afii10018
Encoding: 177 1041 135
Width: 1069
VWidth: 0
GlyphClass: 2
Flags: W
VStem: 683 380<305.144 626.385>
LayerCount: 2
UndoRedoHistory
Layer: 1
Undoes
EndUndoes
Redoes
EndRedoes
EndUndoRedoHistory
Fore
SplineSet
948.360351562 1658 m 1
 88 1658 l 1
 88 0 l 1
 539 0 l 2
 808 0 1063 54 1063 478 c 0
 1063 792 886 954 588 954 c 2
 500 954 l 1
 500 1342 l 1
 948.360351562 1342 l 1
 948.360351562 1658 l 1
500 267 m 1
 500 671 l 1
 538 671 l 2
 657 671 679 574 683 487 c 0
 689 354 657 267 542 267 c 2
 500 267 l 1
EndSplineSet
EndChar

StartChar: afii10019
Encoding: 178 1042 136
Width: 1184
VWidth: 0
GlyphClass: 2
Flags: W
HStem: 0 287<562 704.818> 742 262<562 699.35> 1388 270<549 678.87>
VStem: 745 360<1047.4 1319.83> 761 398<345.123 690.152>
LayerCount: 2
UndoRedoHistory
Layer: 1
Undoes
EndUndoes
Redoes
EndRedoes
EndUndoRedoHistory
Fore
SplineSet
510 287 m 1xe8
 510 742 l 1
 565 742 l 2
 713 742 761 684 761 506 c 0
 761 365 711 287 562 287 c 2
 510 287 l 1xe8
510 1004 m 1
 510 1388 l 1
 579 1388 l 2
 682 1388 745 1302 745 1206 c 0xf0
 745 1086 717 1004 562 1004 c 2
 510 1004 l 1
549 1658 m 2
 98 1658 l 1
 98 0 l 1
 632 0 l 2
 958 0 1165 136 1159 499 c 0xe8
 1155 733 1050 874 862 890 c 1
 1007 920 1100 1019 1105 1217 c 0
 1115 1615 827 1658 549 1658 c 2
EndSplineSet
EndChar

StartChar: afii10020
Encoding: 179 1043 137
Width: 970
VWidth: 0
GlyphClass: 2
Flags: W
LayerCount: 2
UndoRedoHistory
Layer: 1
Undoes
EndUndoes
Redoes
EndRedoes
EndUndoRedoHistory
Fore
SplineSet
98 0 m 1
 510 0 l 1
 510 1353 l 1
 910 1353 l 1
 910 1658 l 1
 98 1658 l 1
 98 0 l 1
EndSplineSet
EndChar

StartChar: afii10021
Encoding: 180 1044 138
Width: 1647
VWidth: 0
GlyphClass: 2
Flags: W
HStem: -20 20G<311.942 1295.06>
VStem: 14 279<-378 -107.05> 1314 303<-378 -107.05>
LayerCount: 2
UndoRedoHistory
Layer: 1
Undoes
EndUndoes
Redoes
EndRedoes
EndUndoRedoHistory
Fore
SplineSet
14 -378 m 1
 293 -378 l 1
 313 0 l 1
 640 -0 967 0 1294 0 c 1
 1314 -378 l 1
 1617 -378 l 1
 1617 309 l 1
 1294 309 l 1
 1294 1658 l 1
 437.817382812 1658 l 1
 375.620117188 1048 l 2
 335.250848535 653.377422524 312.204850128 342.534611958 142.936956845 309 c 1
 14 309 l 1
 14 -378 l 1
893.60546875 309 m 1
 602.119144776 309 l 1
 661.559025522 464.934040052 689.088626185 692.061287026 722.563476562 1018 c 2
 755.60546875 1339 l 1
 893.60546875 1339 l 1
 893.60546875 309 l 1
EndSplineSet
EndChar

StartChar: afii10022
Encoding: 181 1045 139
Width: 894
VWidth: 0
GlyphClass: 2
Flags: W
LayerCount: 2
UndoRedoHistory
Layer: 1
Undoes
EndUndoes
Redoes
EndRedoes
EndUndoRedoHistory
Fore
SplineSet
859 1658 m 1
 98 1658 l 1
 98 0 l 1
 863 0 l 1
 863 275 l 1
 510 275 l 1
 510 733 l 1
 764 733 l 1
 764 1019 l 1
 510 1019 l 1
 510 1382 l 1
 859 1382 l 1
 859 1658 l 1
EndSplineSet
EndChar

StartChar: afii10024
Encoding: 182 1046 141
Width: 1672
VWidth: 0
GlyphClass: 2
Flags: W
LayerCount: 2
UndoRedoHistory
Layer: 1
Undoes
EndUndoes
Redoes
EndRedoes
EndUndoRedoHistory
Fore
SplineSet
653.026367188 2 m 1
 1009.2109375 2 l 1
 1009.2109375 619.833159111 l 1
 1270 0 l 1
 1631 0 l 1
 1234 829 l 1
 1672 1658 l 1
 1277 1658 l 1
 1009.2109375 1088.74780127 l 1
 1009.2109375 1660 l 1
 653.026367188 1660 l 1
 653.026367188 1111.13814715 l 1
 395 1658 l 1
 0 1658 l 1
 438 829 l 1
 41 0 l 1
 402 0 l 1
 653.026367188 596.6295699 l 1
 653.026367188 2 l 1
EndSplineSet
EndChar

StartChar: afii10025
Encoding: 183 1047 142
Width: 1069
VWidth: 0
GlyphClass: 2
Flags: W
HStem: -35 324<492.219 628.353> 718 240<483 607.54> 1382 306<487.879 624.095>
VStem: 85 384<306.744 518 1200 1370.13> 651 378<302.226 679.321 1010.4 1364.12>
LayerCount: 2
UndoRedoHistory
Layer: 1
Undoes
EndUndoes
Redoes
EndRedoes
EndUndoRedoHistory
Fore
SplineSet
560 -35 m 0
 904 -35 1029 187 1029 494 c 0
 1029 735 941 824 838 865 c 1
 941 891 1029 1038 1029 1230 c 0
 1029 1536 846 1688 553 1688 c 0
 267 1688 85 1521 85 1211 c 2
 85 1095 l 1
 469 1095 l 1
 469 1200 l 2
 469 1309 484 1382 555 1382 c 0
 627 1382 651 1322 651 1200 c 0
 651 1037 625 958 483 958 c 2
 418 958 l 1
 418 718 l 1
 490 718 l 2
 626 718 651 643 651 481 c 0
 651 343 636 289 566 289 c 0
 493 289 469 339 469 511 c 2
 469 577 l 1
 85 577 l 1
 85 518 l 2
 85 192 185 -35 560 -35 c 0
EndSplineSet
EndChar

StartChar: afii10026
Encoding: 184 1048 143
Width: 1106
VWidth: 0
GlyphClass: 2
Flags: W
LayerCount: 2
UndoRedoHistory
Layer: 1
Undoes
EndUndoes
Redoes
EndRedoes
EndUndoRedoHistory
Fore
SplineSet
88 0 m 1
 370 0 l 1
 664 767 l 1
 664 0 l 1
 1018 0 l 1
 1018 1658 l 1
 725 1658 l 1
 429 962 l 1
 429 1658 l 1
 88 1658 l 1
 88 0 l 1
EndSplineSet
EndChar

StartChar: afii10028
Encoding: 186 1050 145
Width: 1146
VWidth: 0
GlyphClass: 2
Flags: W
LayerCount: 2
UndoRedoHistory
Layer: 1
Undoes
EndUndoes
Redoes
EndRedoes
EndUndoRedoHistory
Fore
SplineSet
98 0 m 1
 510 0 l 1
 510 692.849056604 l 1
 529 714 l 1
 740 0 l 1
 1165 0 l 1
 863 904 l 1
 1163 1658 l 1
 757 1658 l 1
 510 1016.92272727 l 1
 510 1658 l 1
 98 1658 l 1
 98 0 l 1
EndSplineSet
EndChar

StartChar: afii10029
Encoding: 187 1051 146
Width: 1305
VWidth: 0
GlyphClass: 2
Flags: W
LayerCount: 2
UndoRedoHistory
Layer: 1
Undoes
EndUndoes
Redoes
EndRedoes
EndUndoRedoHistory
Fore
SplineSet
-10 0 m 1
 492 37 539 261 619 1018 c 2
 653 1339 l 1
 795 1339 l 1
 795 0 l 1
 1207 0 l 1
 1207 1658 l 1
 326 1658 l 1
 262 1048 l 2
 218 630 194 306 -10 306 c 1
 -10 0 l 1
EndSplineSet
EndChar

StartChar: afii10030
Encoding: 188 1052 147
Width: 1416
VWidth: 0
GlyphClass: 2
Flags: W
VStem: 86 290<0 553.472> 113 291<777.663 1081> 1012 291<777.663 1071> 1044 286<0 479.808>
LayerCount: 2
UndoRedoHistory
Layer: 1
Undoes
EndUndoes
Redoes
EndRedoes
EndUndoRedoHistory
Fore
SplineSet
86 0 m 1x80
 376 0 l 1x80
 404 1081 l 1
 583 0 l 1
 847 0 l 1
 1012 1071 l 1x60
 1044 0 l 1
 1330 0 l 1x10
 1303 1658 l 1
 871 1658 l 1
 708 824 l 1
 563 1658 l 1
 113 1658 l 1x60
 86 0 l 1x80
EndSplineSet
EndChar

StartChar: afii10031
Encoding: 189 1053 148
Width: 1168
VWidth: 0
GlyphClass: 2
Flags: W
LayerCount: 2
UndoRedoHistory
Layer: 1
Undoes
EndUndoes
Redoes
EndRedoes
EndUndoRedoHistory
Fore
SplineSet
689 0 m 1
 1101 0 l 1
 1101 1658 l 1
 689 1658 l 1
 689 1004 l 1
 510 1004 l 1
 510 1658 l 1
 98 1658 l 1
 98 0 l 1
 510 0 l 1
 510 709 l 1
 689 709 l 1
 689 0 l 1
EndSplineSet
EndChar

StartChar: afii10032
Encoding: 190 1054 149
Width: 1147
VWidth: 0
GlyphClass: 2
Flags: W
HStem: -26 284<522.235 666.601> 1400 284<522.235 666.601>
VStem: 80 424<278.245 523 1135 1379.76> 688 424<278.245 523 1135 1379.76>
LayerCount: 2
UndoRedoHistory
Layer: 1
Undoes
EndUndoes
Redoes
EndRedoes
EndUndoRedoHistory
Fore
SplineSet
594 -26 m 0
 981 -26 1112 176 1112 523 c 2
 1112 1135 l 2
 1112 1482 981 1684 594 1684 c 0
 207 1684 80 1482 80 1135 c 2
 80 523 l 2
 80 176 207 -26 594 -26 c 0
594 258 m 0
 504 258 504 352 504 418 c 2
 504 1241 l 2
 504 1307 504 1400 594 1400 c 0
 684 1400 688 1307 688 1241 c 2
 688 418 l 2
 688 352 684 258 594 258 c 0
EndSplineSet
EndChar

StartChar: afii10033
Encoding: 191 1055 150
Width: 1196
VWidth: 0
GlyphClass: 2
Flags: W
LayerCount: 2
UndoRedoHistory
Layer: 1
Undoes
EndUndoes
Redoes
EndRedoes
EndUndoRedoHistory
Fore
SplineSet
686 0 m 1
 1098 0 l 1
 1098 1658 l 1
 98 1658 l 1
 98 0 l 1
 510 0 l 1
 510 1363 l 1
 686 1363 l 1
 686 0 l 1
EndSplineSet
EndChar

StartChar: afii10034
Encoding: 192 1056 151
Width: 1169
VWidth: 0
GlyphClass: 2
Flags: W
VStem: 766 386<992.935 1336.16>
LayerCount: 2
UndoRedoHistory
Layer: 1
Undoes
EndUndoes
Redoes
EndRedoes
EndUndoRedoHistory
Fore
SplineSet
98 0 m 1
 510 0 l 1
 510 682 l 1
 646 682 l 2
 915 682 1152 746 1152 1170 c 0
 1152 1484 1003 1658 705 1658 c 2
 98 1658 l 1
 98 0 l 1
510 967 m 1
 510 1370 l 1
 637 1370 l 2
 756 1370 766 1266 766 1179 c 0
 766 1046 756 967 641 967 c 2
 510 967 l 1
EndSplineSet
EndChar

StartChar: afii10035
Encoding: 193 1057 152
Width: 1144
VWidth: 0
GlyphClass: 2
Flags: W
HStem: -26 284<521.004 666.082> 1400 284<521.004 666.082>
VStem: 78 420<283.2 529 1129 1374.8> 686 406<280.802 462 1205 1384.95>
LayerCount: 2
UndoRedoHistory
Layer: 1
Undoes
EndUndoes
Redoes
EndRedoes
EndUndoRedoHistory
Fore
SplineSet
594 -26 m 0
 981 -26 1092 187 1092 462 c 2
 1092 610 l 1
 686 610 l 1
 686 418 l 2
 686 352 684 258 594 258 c 0
 504 258 498 352 498 418 c 2
 498 1241 l 2
 498 1307 504 1400 594 1400 c 0
 684 1400 686 1307 686 1241 c 2
 686 1056 l 1
 1092 1056 l 1
 1092 1205 l 2
 1092 1480 981 1684 594 1684 c 0
 207 1684 78 1476 78 1129 c 2
 78 529 l 2
 78 182 207 -26 594 -26 c 0
EndSplineSet
EndChar

StartChar: afii10036
Encoding: 194 1058 153
Width: 879
VWidth: 0
GlyphClass: 2
Flags: W
LayerCount: 2
UndoRedoHistory
Layer: 1
Undoes
EndUndoes
Redoes
EndRedoes
EndUndoRedoHistory
Fore
SplineSet
232 0 m 1
 644 0 l 1
 644 1353 l 1
 867 1353 l 1
 867 1658 l 1
 12 1658 l 1
 12 1353 l 1
 232 1353 l 1
 232 0 l 1
EndSplineSet
EndChar

StartChar: afii10037
Encoding: 195 1059 154
Width: 1122
VWidth: 0
GlyphClass: 2
Flags: W
LayerCount: 2
UndoRedoHistory
Layer: 1
Undoes
EndUndoes
Redoes
EndRedoes
EndUndoRedoHistory
Fore
SplineSet
234 0 m 1
 627 0 l 1
 780 557 l 1
 1128 1658 l 1
 751 1658 l 1
 588 1048 l 1
 401 1658 l 1
 14 1658 l 1
 392 582 l 1
 234 0 l 1
EndSplineSet
EndChar

StartChar: afii10038
Encoding: 196 1060 155
Width: 1591
VWidth: 0
GlyphClass: 2
Flags: W
HStem: 178 258.03<487.147 637.948 953.041 1100.82> 1228.87 243.128<490.471 637.948 953.041 977>
VStem: 80 360<480.426 572 1079 1178.33>
LayerCount: 2
UndoRedoHistory
Layer: 1
Undoes
EndUndoes
Redoes
EndRedoes
EndUndoRedoHistory
Fore
SplineSet
637.948242188 0 m 1
 953.041015625 0 l 1
 953.041015625 180.363165743 l 1
 993 178 l 1
 1291 154 1511 349 1511 571 c 2
 1511 1078 l 2
 1511 1300 1291 1496 977 1472 c 1
 953.041015625 1470.64150089 l 1
 953.041015625 1658 l 1
 637.948242188 1658 l 1
 637.948242188 1469.62469911 l 1
 598 1472 l 1
 301 1496 80 1301 80 1079 c 2
 80 572 l 2
 80 350 299 154 614 178 c 1
 637.948242188 179.364925721 l 1
 637.948242188 0 l 1
637.948242188 436.029564803 m 1
 501.578419658 421.426508598 440 509.107859213 440 566 c 2
 440 1085 l 2
 440 1142.98607752 504.716980022 1243.47285833 637.948242188 1228.87230446 c 1
 637.948242188 436.029564803 l 1
953.041015625 1229.94871883 m 1
 1088.72884332 1236.71041482 1151 1140.04939545 1151 1084 c 2
 1151 565 l 2
 1151 503.862500543 1083.17964894 420.782460874 953.041015625 437.377320155 c 1
 953.041015625 1229.94871883 l 1
EndSplineSet
EndChar

StartChar: afii10039
Encoding: 197 1061 156
Width: 1035
VWidth: 0
GlyphClass: 2
Flags: W
LayerCount: 2
UndoRedoHistory
Layer: 1
Undoes
EndUndoes
Redoes
EndRedoes
EndUndoRedoHistory
Fore
SplineSet
661 0 m 1
 1047 0 l 1
 741.587869052 779.035866325 l 1
 1003 1658 l 1
 666 1658 l 1
 554.986228012 1255.0135907 l 1
 397 1658 l 1
 5 1658 l 1
 303.563914027 903.397912413 l 1
 -12 0 l 1
 321 0 l 1
 482.423104868 451.342213611 l 1
 661 0 l 1
EndSplineSet
EndChar

StartChar: afii10040
Encoding: 198 1062 157
Width: 1416
VWidth: 0
GlyphClass: 2
Flags: W
VStem: 1086 298<-378 -119.952>
LayerCount: 2
UndoRedoHistory
Layer: 1
Undoes
EndUndoes
Redoes
EndRedoes
EndUndoRedoHistory
Fore
SplineSet
1086 -378 m 1
 1384 -378 l 1
 1384 275 l 1
 1135 275 l 1
 1135 1658 l 1
 723 1658 l 1
 723 275 l 1
 510 275 l 1
 510 1658 l 1
 98 1658 l 1
 98 0 l 1
 420.333333333 -0 742.666666667 0 1065 0 c 1
 1086 -378 l 1
EndSplineSet
EndChar

StartChar: afii10041
Encoding: 199 1063 158
Width: 1246
VWidth: 0
GlyphClass: 2
Flags: W
HStem: 684 250<515.373 736>
LayerCount: 2
UndoRedoHistory
Layer: 1
Undoes
EndUndoes
Redoes
EndRedoes
EndUndoRedoHistory
Fore
SplineSet
736 0 m 1
 1148 0 l 1
 1148 1658 l 1
 736 1658 l 1
 736 936.879911569 l 1
 715.447738238 935.025730263 694.332658693 934 673 934 c 0
 489 934 487 1006 487 1091 c 2
 487 1658 l 1
 75 1658 l 1
 75 1090 l 2
 75 830 315 684 564 684 c 0
 603.28528558 684 667.990184436 687.417763129 736 694.450742036 c 1
 736 0 l 1
EndSplineSet
EndChar

StartChar: afii10042
Encoding: 200 1064 159
Width: 1679
VWidth: 0
GlyphClass: 2
Flags: W
LayerCount: 2
UndoRedoHistory
Layer: 1
Undoes
EndUndoes
Redoes
EndRedoes
EndUndoRedoHistory
Fore
SplineSet
1033.25292969 316 m 1
 1033.25292969 1658 l 1
 649.565429688 1658 l 1
 649.565429688 316 l 1
 481.6875 316 l 1
 481.6875 1658 l 1
 98 1658 l 1
 98 0 l 1
 1581.26074219 0 l 1
 1581.26074219 1658 l 1
 1197.57324219 1658 l 1
 1197.57324219 316 l 1
 1033.25292969 316 l 1
EndSplineSet
EndChar

StartChar: afii10043
Encoding: 201 1065 160
Width: 1933
VWidth: 0
GlyphClass: 2
Flags: W
VStem: 1603 298<-378 -119.952>
LayerCount: 2
UndoRedoHistory
Layer: 1
Undoes
EndUndoes
Redoes
EndRedoes
EndUndoRedoHistory
Fore
SplineSet
1603 -378 m 1
 1901 -378 l 1
 1901 275 l 1
 1582.12109375 275 l 1
 1582.12109375 1658 l 1
 1198.43359375 1658 l 1
 1198.43359375 275 l 1
 1033.6875 275 l 1
 1033.6875 1658 l 1
 650 1658 l 1
 650 275 l 1
 481.6875 275 l 1
 481.6875 1658 l 1
 98 1658 l 1
 98 0 l 1
 592.666666667 -0 1087.33333333 0 1582 0 c 1
 1603 -378 l 1
EndSplineSet
EndChar

StartChar: afii10044
Encoding: 202 1066 161
Width: 1309
VWidth: 0
GlyphClass: 2
Flags: W
VStem: 878 380<305.144 626.385>
LayerCount: 2
UndoRedoHistory
Layer: 1
Undoes
EndUndoes
Redoes
EndRedoes
EndUndoRedoHistory
Fore
SplineSet
265 1383 m 1,0,-1
 265 0 l 1,1,-1
 734 0 l 2,2,-1
 1003 0 1258 54 1258 478 c 0,5,-1
 1258 792 1081 954 783 954 c 2,8,-1
 677 954 l 1,9,-1
 677 1658 l 1,10,-1
 16 1658 l 1,11,-1
 16 1383 l 1,12,-1
 265 1383 l 1,0,-1
677 267 m 1,13,-1
 677 671 l 1,14,-1
 733 671 l 2,15,-1
 852 671 874 574 878 487 c 0,18,-1
 884 354 852 267 737 267 c 2,21,-1
 677 267 l 1,13,-1
EndSplineSet
EndChar

StartChar: afii10045
Encoding: 203 1067 162
Width: 1704
VWidth: 0
GlyphClass: 2
Flags: W
VStem: 694 380<305.144 626.385>
LayerCount: 2
UndoRedoHistory
Layer: 1
Undoes
EndUndoes
Redoes
EndRedoes
EndUndoRedoHistory
Fore
SplineSet
1194 0 m 1
 1606 0 l 1
 1606 1658 l 1
 1194 1658 l 1
 1194 0 l 1
510 267 m 1
 510 671 l 1
 549 671 l 2
 668 671 690 574 694 487 c 0
 700 354 668 267 553 267 c 2
 510 267 l 1
510 954 m 1
 510 1658 l 1
 98 1658 l 1
 98 0 l 1
 550 0 l 2
 819 0 1074 54 1074 478 c 0
 1074 792 897 954 599 954 c 2
 510 954 l 1
EndSplineSet
EndChar

StartChar: afii10046
Encoding: 204 1068 163
Width: 1138
VWidth: 0
GlyphClass: 2
Flags: W
VStem: 691 380<305.144 626.385>
LayerCount: 2
UndoRedoHistory
Layer: 1
Undoes
EndUndoes
Redoes
EndRedoes
EndUndoRedoHistory
Fore
SplineSet
510 267 m 1
 510 671 l 1
 546 671 l 2
 665 671 687 574 691 487 c 0
 697 354 665 267 550 267 c 2
 510 267 l 1
510 954 m 1
 510 1658 l 1
 98 1658 l 1
 98 0 l 1
 547 0 l 2
 816 0 1071 54 1071 478 c 0
 1071 792 894 954 596 954 c 2
 510 954 l 1
EndSplineSet
EndChar

StartChar: afii10047
Encoding: 205 1069 164
Width: 1187
VWidth: 0
GlyphClass: 2
Flags: W
HStem: -27 284<518.918 663.996> 1399 284<518.918 663.996>
VStem: 93 406<272.053 452 1195 1376.2> 687 420<282.2 528 1128 1373.8>
LayerCount: 2
UndoRedoHistory
Layer: 1
Undoes
EndUndoes
Redoes
EndRedoes
EndUndoRedoHistory
Fore
SplineSet
591 -27 m 0
 978 -27 1107 181 1107 528 c 2
 1107 1128 l 2
 1107 1475 978 1683 591 1683 c 0
 204 1683 93 1470 93 1195 c 2
 93 1111 l 1
 499 1111 l 1
 499 1239 l 2
 499 1305 501 1399 591 1399 c 0
 681 1399 687 1305 687 1239 c 2
 687 914 l 1
 458 914 l 1
 458 720 l 1
 687 720 l 1
 687 416 l 2
 687 350 681 257 591 257 c 0
 501 257 499 350 499 416 c 2
 499 541 l 1
 93 541 l 1
 93 452 l 2
 93 177 204 -27 591 -27 c 0
EndSplineSet
EndChar

StartChar: afii10048
Encoding: 206 1070 165
Width: 1712
VWidth: 0
GlyphClass: 2
Flags: W
HStem: -26 284<1090.33 1225.76> 1400 284<1090.33 1225.76>
VStem: 685 388<274.269 549 1109 1383.73> 1243 389<274.269 549 1109 1383.73>
LayerCount: 2
UndoRedoHistory
Layer: 1
Undoes
EndUndoes
Redoes
EndRedoes
EndUndoRedoHistory
Fore
SplineSet
1158 -26 m 0
 1524 -26 1632 202 1632 549 c 2
 1632 1109 l 2
 1632 1456 1524 1684 1158 1684 c 0
 793 1684 685 1456 685 1109 c 2
 685 987 l 1
 510 987 l 1
 510 1658 l 1
 98 1658 l 1
 98 0 l 1
 510 0 l 1
 510 685 l 1
 685 685 l 1
 685 549 l 2
 685 202 793 -26 1158 -26 c 0
1158 258 m 0
 1073 258 1073 352 1073 418 c 2
 1073 1241 l 2
 1073 1307 1073 1400 1158 1400 c 0
 1243 1400 1243 1307 1243 1241 c 2
 1243 418 l 2
 1243 352 1243 258 1158 258 c 0
EndSplineSet
EndChar

StartChar: afii10049
Encoding: 207 1071 166
Width: 1207
VWidth: 0
GlyphClass: 2
Flags: W
HStem: 1378 280<476.231 627>
VStem: 43 381<1044.11 1324.48>
LayerCount: 2
UndoRedoHistory
Layer: 1
Undoes
EndUndoes
Redoes
EndRedoes
EndUndoRedoHistory
Fore
SplineSet
75 0 m 1
 496 0 l 1
 612.748129676 704 l 1
 697 704 l 1
 697 0 l 1
 1109 0 l 1
 1109 1658 l 1
 627 1658 l 2
 358 1658 43 1604 43 1180 c 0
 43 997.442894319 114.997562029 866.264330554 233.838095657 788.429511085 c 1
 75 0 l 1
697 995 m 1
 623 995 l 2
 468 995 424 1070 424 1176 c 0
 424 1325 490 1378 619 1378 c 2
 697 1378 l 1
 697 995 l 1
EndSplineSet
EndChar

StartChar: afii10051
Encoding: 162 1026 167
Width: 1173
VWidth: 0
GlyphClass: 2
Flags: W
HStem: -406 224<500 689.883>
LayerCount: 2
UndoRedoHistory
Layer: 1
Undoes
EndUndoes
Redoes
EndRedoes
EndUndoRedoHistory
Fore
SplineSet
500 -406 m 1
 641 -406 l 2
 1001 -406 1094 -304 1094 -12 c 0
 1094 243.055989583 1094 498.111979167 1094 753.16796875 c 0
 1094 896.081054688 1005 990.53515625 860 990.53515625 c 0
 759.575895088 990.53515625 668.150898607 967.437224908 577 892.576545474 c 1
 577 1353 l 1
 800 1353 l 1
 800 1658 l 1
 -55 1658 l 1
 -55 1353 l 1
 165 1353 l 1
 165 0 l 1
 577 0 l 1
 577 753.024395195 l 1
 612.472880361 770.684265416 643.09644931 777.629509216 665 778.62890625 c 0
 708 780.272460938 722 758.916992188 722 719.493164062 c 0
 722 476.328776042 722 233.164388021 722 -10 c 0
 722 -151 684 -182 500 -182 c 1
 500 -406 l 1
EndSplineSet
EndChar

StartChar: afii10053
Encoding: 164 1028 169
Width: 1129
VWidth: 0
GlyphClass: 2
Flags: W
HStem: -26 284<521.004 666.082> 1400 284<521.004 666.082>
VStem: 78 420<283.2 529 1129 1374.8> 686 406<280.802 462 1205 1384.95>
LayerCount: 2
UndoRedoHistory
Layer: 1
Undoes
EndUndoes
Redoes
EndRedoes
EndUndoRedoHistory
Fore
SplineSet
594 -26 m 0
 981 -26 1092 187 1092 462 c 2
 1092 548 l 1
 686 548 l 1
 686 418 l 2
 686 352 684 258 594 258 c 0
 504 258 498 352 498 418 c 2
 498 723 l 1
 712 723 l 1
 712 932 l 1
 498 932 l 1
 498 1241 l 2
 498 1307 504 1400 594 1400 c 0
 684 1400 686 1307 686 1241 c 2
 686 1092 l 1
 1092 1092 l 1
 1092 1205 l 2
 1092 1480 981 1684 594 1684 c 0
 207 1684 78 1476 78 1129 c 2
 78 529 l 2
 78 182 207 -26 594 -26 c 0
EndSplineSet
EndChar

StartChar: afii10054
Encoding: 165 1029 170
Width: 989
VWidth: 0
GlyphClass: 2
Flags: W
HStem: -26 310<419.654 549.071> 1387 297<450.786 557.36>
VStem: 32 404<1124.84 1375.1> 32 350<330.536 514> 558 409<289.765 540.707> 576 358<1198 1381.62>
LayerCount: 2
UndoRedoHistory
Layer: 1
Undoes
EndUndoes
Redoes
EndRedoes
EndUndoRedoHistory
Fore
SplineSet
520 -26 m 0xd8
 796 -26 967 166 967 398 c 0xd8
 967 634 850 776 703 907 c 2
 614 986 l 2
 533 1058 436 1131 436 1274 c 0
 436 1311 454 1387 508 1387 c 0
 576 1387 576 1307 576 1164 c 1
 934 1198 l 1
 934 1358 919 1684 533 1684 c 0
 231 1684 32 1525 32 1233 c 0xe4
 32 1004 147 889 277 778 c 2
 374 695 l 2
 491 595 558 515 558 379 c 0
 558 347 556 284 494 284 c 0
 433 284 382 330 382 558 c 1
 32 514 l 1
 42 115 198 -26 520 -26 c 0xd8
EndSplineSet
EndChar

StartChar: afii10055
Encoding: 166 1030 171
Width: 588
VWidth: 0
GlyphClass: 2
Flags: W
VStem: 98 412
LayerCount: 2
UndoRedoHistory
Layer: 1
Undoes
EndUndoes
Redoes
EndRedoes
EndUndoRedoHistory
Fore
SplineSet
98 0 m 1
 510 0 l 1
 510 1658 l 1
 98 1658 l 1
 98 0 l 1
EndSplineSet
EndChar

StartChar: afii10057
Encoding: 168 1032 173
Width: 681
VWidth: 0
GlyphClass: 2
Flags: W
HStem: -44 286<7 170.258>
LayerCount: 2
UndoRedoHistory
Layer: 1
Undoes
EndUndoes
Redoes
EndRedoes
EndUndoRedoHistory
Fore
SplineSet
7 -44 m 1
 208 -44 l 2
 513.437474637 -44 596.577484209 95.3914432585 603.511986021 362 c 1
 604 362 l 1
 604 794 604 1226 604 1658 c 1
 192 1658 l 1
 192 381 l 2
 192 262 139 239 7 242 c 1
 7 -44 l 1
EndSplineSet
EndChar

StartChar: afii10058
Encoding: 169 1033 174
Width: 1805
VWidth: 0
GlyphClass: 2
Flags: W
HStem: 0 286<20 167.932>
VStem: 1383 380<305.144 626.385>
LayerCount: 2
UndoRedoHistory
Layer: 1
Undoes
EndUndoes
Redoes
EndRedoes
EndUndoRedoHistory
Fore
SplineSet
20 0 m 1
 221 0 l 2
 541 0 618 163 618 455 c 1
 617 455 l 1
 617 1342 l 1
 796 1342 l 1
 796 0 l 1
 1239 0 l 2
 1508 0 1763 54 1763 478 c 0
 1763 792 1586 954 1288 954 c 2
 1208 954 l 1
 1208 1658 l 1
 617 1658 l 1
 617 1658.72753906 l 1
 205 1658.72753906 l 1
 205 455 l 1
 206 455 l 1
 206 336 152 283 20 286 c 1
 20 0 l 1
1208 267 m 1
 1208 671 l 1
 1238 671 l 2
 1357 671 1379 574 1383 487 c 0
 1389 354 1357 267 1242 267 c 2
 1208 267 l 1
EndSplineSet
EndChar

StartChar: afii10059
Encoding: 170 1034 175
Width: 1685
VWidth: 0
GlyphClass: 2
Flags: W
VStem: 1269 380<305.144 626.385>
LayerCount: 2
UndoRedoHistory
Layer: 1
Undoes
EndUndoes
Redoes
EndRedoes
EndUndoRedoHistory
Fore
SplineSet
98 2 m 1
 510 2 l 1
 510 669 l 1
 690 669 l 1
 690 2 l 1
 890 2 l 1
 890 0 l 1
 1125 0 l 2
 1394 0 1649 54 1649 478 c 0
 1649 792 1472 954 1174 954 c 2
 1102 954 l 1
 1102 1660 l 1
 690 1660 l 1
 690 985 l 1
 510 985 l 1
 510 1660 l 1
 98 1660 l 1
 98 2 l 1
1102 267 m 1
 1102 671 l 1
 1124 671 l 2
 1243 671 1265 574 1269 487 c 0
 1275 354 1243 267 1128 267 c 2
 1102 267 l 1
EndSplineSet
EndChar

StartChar: afii10060
Encoding: 171 1035 176
Width: 1173
VWidth: 0
GlyphClass: 2
Flags: W
LayerCount: 2
UndoRedoHistory
Layer: 1
Undoes
EndUndoes
Redoes
EndRedoes
EndUndoRedoHistory
Fore
SplineSet
722 0 m 1
 1094 0 l 1
 1094 753.16796875 l 2
 1094 896.081054688 1005 990.53515625 860 990.53515625 c 0
 759.575895088 990.53515625 668.150898607 967.437224908 577 892.576545474 c 1
 577 1353 l 1
 800 1353 l 1
 800 1658 l 1
 -55 1658 l 1
 -55 1353 l 1
 165 1353 l 1
 165 0 l 1
 577 0 l 1
 577 753.024395195 l 1
 612.472880361 770.684265416 643.09644931 777.629509216 665 778.62890625 c 0
 708 780.272460938 722 758.916992188 722 719.493164062 c 2
 722 0 l 1
EndSplineSet
EndChar

StartChar: afii10065
Encoding: 208 1072 179
Width: 980
VWidth: 0
GlyphClass: 2
Flags: W
HStem: -22 239<242.5 471.919>
VStem: 50 330<232.003 450.655>
LayerCount: 2
UndoRedoHistory
Layer: 1
Undoes
EndUndoes
Redoes
EndRedoes
EndUndoRedoHistory
Fore
SplineSet
469 217 m 0
 422 217 380 261 380 335 c 0
 380 405 434 531 545 583 c 1
 545 261 l 1
 523 231 495 217 469 217 c 0
340 -22 m 1
 460 -22 534 64 563 164 c 1
 590 0 l 1
 919 0 l 1
 913 52 898 138 898 298 c 2
 898 856 l 2
 898 1052 770 1206 529 1206 c 0
 256 1206 107 1084 85 815 c 2
 82 779 l 1
 425 765 l 1
 436 861 l 1
 439 897 448 930 492 930 c 0
 532 930 545 896 545 861 c 2
 545 731 l 1
 381 663 50 593 50 271 c 0
 50 133 145 -18 340 -22 c 1
EndSplineSet
EndChar

StartChar: afii10066
Encoding: 209 1073 180
Width: 820
VWidth: 0
GlyphClass: 2
Flags: W
HStem: -20 50<315.484 518.897> 1122 50<348.194 550.019>
VStem: 148 64<136.904 291 991 1022.03 1205 1410.79> 642 64<189.445 494 666 999.203>
LayerCount: 2
UndoRedoHistory
Layer: 1
Undoes
EndUndoes
Redoes
EndRedoes
EndUndoRedoHistory
Fore
SplineSet
422 30 m 0
 290 26 212 118 212 291 c 2
 212 991 l 1
 257 1042 345 1122 449 1122 c 0
 618 1122 642 1003 642 667 c 2
 642 490 l 2
 642 154 594 35 422 30 c 0
422 -20 m 0
 633 -13 706 131 706 494 c 2
 706 666 l 2
 706 1025 656 1172 449 1172 c 1
 335 1171 255 1102 212 1046 c 1
 212 1205 l 2
 212 1579 397 1565 642 1688 c 1
 612 1738 l 1
 423 1625 148 1633 148 1207 c 2
 148 291 l 2
 148 77 271 -25 422 -20 c 0
EndSplineSet
EndChar

StartChar: afii10067
Encoding: 210 1074 181
Width: 1089
VWidth: 0
GlyphClass: 2
Flags: W
HStem: 0 191<504 655.166> 533 187<503 627.095> 1007 177<508 621.728>
VStem: 658 363<748.373 973.175> 688 362<221.707 498.985>
LayerCount: 2
UndoRedoHistory
Layer: 1
Undoes
EndUndoes
Redoes
EndRedoes
EndUndoRedoHistory
Fore
SplineSet
534 1184 m 2xf0
 85 1184 l 1
 85 0 l 1
 539 0 l 2
 920 0 1050 100 1050 343 c 0xe8
 1050 502 1008 593 828 642 c 1
 933 667 1021 715 1021 884 c 0
 1021 1068 932 1184 534 1184 c 2xf0
457 1007 m 1
 508 1007 l 2
 621 1007 658 936 658 856 c 0xf0
 658 778 610 720 531 720 c 2
 457 720 l 1
 457 1007 l 1
457 533 m 1
 503 533 l 2
 596 533 688 533 688 353 c 0xe8
 688 191 593 191 504 191 c 2
 457 191 l 1
 457 533 l 1
EndSplineSet
EndChar

StartChar: afii10068
Encoding: 211 1075 182
Width: 738
VWidth: 0
GlyphClass: 2
Flags: W
VStem: 85 628
LayerCount: 2
UndoRedoHistory
Layer: 1
Undoes
EndUndoes
Redoes
EndRedoes
EndUndoRedoHistory
Fore
SplineSet
85 0 m 1
 457 0 l 1
 457 948 l 1
 713 948 l 1
 713 1184 l 1
 85 1184 l 1
 85 0 l 1
EndSplineSet
EndChar

StartChar: afii10069
Encoding: 212 1076 183
Width: 1321
VWidth: 0
GlyphClass: 2
Flags: W
HStem: -20 20G<332.942 1015.22>
VStem: 45 269<-378 -107.05> 1037 257<-378 -142.391>
LayerCount: 2
UndoRedoHistory
Layer: 1
Undoes
EndUndoes
Redoes
EndRedoes
EndUndoRedoHistory
Fore
SplineSet
45 -378 m 1
 314 -378 l 1
 334 0 l 1
 560.666666667 -0 787.333333333 0 1014 0 c 1
 1037 -378 l 1
 1294 -378 l 1
 1294 222 l 1
 1112.98535156 222 l 1
 1112.98535156 1184 l 1
 422 1184 l 1
 377 717 l 2
 352 460 288 302 131 222 c 1
 45 222 l 1
 45 -378 l 1
693.720720721 970 m 1
 776.623046875 970 l 1
 776.623046875 222 l 1
 505.607454401 222 l 1
 588.454934841 298.165957935 644.338052959 424.18513122 663 629 c 2
 693.720720721 970 l 1
EndSplineSet
EndChar

StartChar: afii10070
Encoding: 213 1077 184
Width: 973
VWidth: 0
GlyphClass: 2
Flags: W
HStem: -22 263<452.537 570.633> 943 263<452.537 570.633>
VStem: 72 368<245.902 349 835 938.098>
LayerCount: 2
UndoRedoHistory
Layer: 1
Undoes
EndUndoes
Redoes
EndRedoes
EndUndoRedoHistory
Fore
SplineSet
503 -22 m 0
 751 -22 917 94 917 331 c 2
 917 474 l 1
 577 474 l 1
 577 329 l 2
 577 252 535 241 503 241 c 0
 473 241 440 263 440 337 c 2
 440 566 l 1
 917 566 l 1
 917 853 l 2
 917 1090 751 1206 503 1206 c 0
 255 1206 72 1071 72 835 c 2
 72 349 l 2
 72 113 255 -22 503 -22 c 0
577 734 m 1
 440 734 l 1
 440 847 l 2
 440 921 473 943 503 943 c 0
 535 943 577 932 577 855 c 2
 577 734 l 1
EndSplineSet
EndChar

StartChar: afii10072
Encoding: 214 1078 186
Width: 1374
VWidth: 0
GlyphClass: 2
Flags: W
LayerCount: 2
UndoRedoHistory
Layer: 1
Undoes
EndUndoes
Redoes
EndRedoes
EndUndoRedoHistory
Fore
SplineSet
9 0 m 1
 341 0 l 1
 498 489 l 1
 521.692382812 489 l 1
 521.692382812 0 l 1
 834.231445312 0 l 1
 834.231445312 489 l 1
 858 489 l 1
 1033 0 l 1
 1365 0 l 1
 1113 603 l 1
 1343 1184 l 1
 1024 1184 l 1
 855 685 l 1
 834.231445312 685 l 1
 834.231445312 1184 l 1
 521.692382812 1184 l 1
 521.692382812 685 l 1
 497 685 l 1
 350 1184 l 1
 31 1184 l 1
 243 603 l 1
 9 0 l 1
EndSplineSet
EndChar

StartChar: afii10073
Encoding: 215 1079 187
Width: 1015
VWidth: 0
GlyphClass: 2
Flags: W
HStem: -22 252<394.96 613.477> 525 178<439 587.065> 953 253<382.771 589.545>
VStem: 72 293<259.789 402 804 930.998> 608 318<725.585 934.006> 638 296<254.908 490.899>
LayerCount: 2
UndoRedoHistory
Layer: 1
Undoes
EndUndoes
Redoes
EndRedoes
EndUndoRedoHistory
Fore
SplineSet
491 -22 m 0xf4
 808 -22 934 134 934 325 c 0xf4
 934 498 847 570 742 615 c 1
 836 649 926 727 926 868 c 0
 926 1063 804 1206 507 1206 c 0
 153 1206 72 998 72 804 c 1
 361 804 l 1
 361 921 391 953 496 953 c 0
 574 953 608 913 608 844 c 0xf8
 608 746 587 703 439 703 c 1
 439 525 l 1
 588 525 638 488 638 364 c 0
 638 283 603 230 500 230 c 0
 395 230 365 288 365 402 c 1
 72 402 l 1
 72 200 128 -22 491 -22 c 0xf4
EndSplineSet
EndChar

StartChar: afii10074
Encoding: 216 1080 188
Width: 1042
VWidth: 0
GlyphClass: 2
Flags: W
LayerCount: 2
UndoRedoHistory
Layer: 1
Undoes
EndUndoes
Redoes
EndRedoes
EndUndoRedoHistory
Fore
SplineSet
84.44921875 0 m 1
 405.473632812 0 l 1
 405.473632812 16.7197464923 l 1
 415 0 l 1
 629 535.572192513 l 1
 629 0 l 1
 957.51953125 0 l 1
 957.51953125 1184 l 1
 848.013020833 1184 738.506510417 1184 629 1184 c 1
 629 1166.38586957 l 1
 405.473632812 603.925499958 l 1
 405.473632812 1184 l 1
 84.44921875 1184 l 1
 84.44921875 0 l 1
EndSplineSet
EndChar

StartChar: afii10076
Encoding: 218 1082 190
Width: 1085
VWidth: 0
GlyphClass: 2
Flags: W
LayerCount: 2
UndoRedoHistory
Layer: 1
Undoes
EndUndoes
Redoes
EndRedoes
EndUndoRedoHistory
Fore
SplineSet
675 0 m 1
 1071 0 l 1
 832 630 l 1
 1064 1184 l 1
 658 1184 l 1
 457 699.390052356 l 1
 457 1184 l 1
 85 1184 l 1
 85 0 l 1
 457 0 l 1
 457 490.467592593 l 1
 492 536 l 1
 675 0 l 1
EndSplineSet
EndChar

StartChar: afii10077
Encoding: 219 1083 191
Width: 1187
VWidth: 0
GlyphClass: 2
Flags: W
HStem: 0 246<35 170.864>
LayerCount: 2
UndoRedoHistory
Layer: 1
Undoes
EndUndoes
Redoes
EndRedoes
EndUndoRedoHistory
Fore
SplineSet
236 -14 m 0
 469 -14 557 150 586 487 c 1
 618.634146341 933 l 1
 730 933 l 1
 730 0 l 1
 1102 0 l 1
 1102 1184 l 1
 926.16015625 1184 l 1
 926.16015625 1184.23828125 l 1
 380.62890625 1184.23828125 l 1
 380.62890625 1184 l 1
 305 1184 l 1
 254 533 l 1
 233 307 164 246 35 246 c 1
 35 0 l 1
 112 -9 179 -14 236 -14 c 0
EndSplineSet
EndChar

StartChar: afii10078
Encoding: 220 1084 192
Width: 1160
VWidth: 0
GlyphClass: 2
Flags: W
LayerCount: 2
UndoRedoHistory
Layer: 1
Undoes
EndUndoes
Redoes
EndRedoes
EndUndoRedoHistory
Fore
SplineSet
85 0 m 1
 385 0 l 1
 385 519 l 1
 526 208 l 1
 636 208 l 1
 776 516 l 1
 776 0 l 1
 1076 0 l 1
 1076 1184 l 1
 776 1184 l 1
 581 672 l 1
 385 1184 l 1
 85 1184 l 1
 85 0 l 1
EndSplineSet
EndChar

StartChar: afii10079
Encoding: 221 1085 193
Width: 1088
VWidth: 0
GlyphClass: 2
Flags: W
LayerCount: 2
UndoRedoHistory
Layer: 1
Undoes
EndUndoes
Redoes
EndRedoes
EndUndoRedoHistory
Fore
SplineSet
85 0 m 1
 457 0 l 1
 457 487 l 1
 631 487 l 1
 631 0 l 1
 1003 0 l 1
 1003 1184 l 1
 631 1184 l 1
 631 739 l 1
 457 739 l 1
 457 1184 l 1
 85 1184 l 1
 85 0 l 1
EndSplineSet
EndChar

StartChar: afii10080
Encoding: 222 1086 194
Width: 991
VWidth: 0
GlyphClass: 2
Flags: W
HStem: -22 263<446.849 566> 943 263<446.849 566>
VStem: 72 366<249.916 349 835 934.084> 577 366<249.604 349 835 934.396>
LayerCount: 2
UndoRedoHistory
Layer: 1
Undoes
EndUndoes
Redoes
EndRedoes
EndUndoRedoHistory
Fore
SplineSet
505 -22 m 0
 753 -22 943 94 943 349 c 2
 943 835 l 2
 943 1090 753 1206 505 1206 c 0
 257 1206 72 1089 72 835 c 2
 72 349 l 2
 72 95 257 -22 505 -22 c 0
506 241 m 0
 462 241 438 269 438 343 c 2
 438 841 l 2
 438 915 462 943 506 943 c 0
 553 943 577 918 577 841 c 2
 577 343 l 2
 577 266 553 241 506 241 c 0
EndSplineSet
EndChar

StartChar: afii10081
Encoding: 223 1087 195
Width: 1043
VWidth: 0
GlyphClass: 2
Flags: W
LayerCount: 2
UndoRedoHistory
Layer: 1
Undoes
EndUndoes
Redoes
EndRedoes
EndUndoRedoHistory
Fore
SplineSet
76 0 m 1
 448 0 l 1
 448 936 l 1
 595 936 l 1
 595 0 l 1
 967 0 l 1
 967 1184 l 1
 76 1184 l 1
 76 0 l 1
EndSplineSet
EndChar

StartChar: afii10082
Encoding: 224 1088 196
Width: 1044
VWidth: 0
GlyphClass: 2
Flags: W
LayerCount: 2
UndoRedoHistory
Layer: 1
Undoes
EndUndoes
Redoes
EndRedoes
EndUndoRedoHistory
Fore
SplineSet
85 -390 m 1
 457 -390 l 1
 457 89.5597966637 l 1
 543.707951705 18.3754447675 636.508307475 -22 723 -22 c 0
 868 -22 969 93 969 303 c 2
 969 890 l 2
 969 1100 877 1199 723 1206 c 0
 644.505800351 1209.51466566 549.541101137 1177.34324892 457 1100.23970202 c 1
 457 1184 l 1
 85 1184 l 1
 85 -390 l 1
457 230.987571507 m 1
 457 962.960428131 l 1
 482.86320131 981.213729849 506.01785442 993.364839479 523 996 c 0
 568 1003 596 966 596 925 c 2
 596 279 l 2
 596 238 568 206 523 207 c 0
 503.728975256 207.542845767 481.06911295 216.705126206 457 230.987571507 c 1
EndSplineSet
EndChar

StartChar: afii10083
Encoding: 225 1089 197
Width: 968
VWidth: 0
GlyphClass: 2
Flags: W
HStem: -22 263<454.901 560.104> 945 261<454.901 560.104>
VStem: 72 374<245.902 349 837 939.967>
LayerCount: 2
UndoRedoHistory
Layer: 1
Undoes
EndUndoes
Redoes
EndRedoes
EndUndoRedoHistory
Fore
SplineSet
503 -22 m 0
 751 -22 929 94 929 331 c 2
 929 496 l 1
 565 496 l 1
 565 329 l 2
 565 252 535 241 503 241 c 0
 473 241 446 263 446 337 c 2
 446 849 l 2
 446 923 473 945 503 945 c 0
 535 945 565 934 565 857 c 2
 565 710 l 1
 929 710 l 1
 929 855 l 2
 929 1092 751 1206 503 1206 c 0
 255 1206 72 1073 72 837 c 2
 72 349 l 2
 72 113 255 -22 503 -22 c 0
EndSplineSet
EndChar

StartChar: afii10084
Encoding: 226 1090 198
Width: 917
VWidth: 0
GlyphClass: 2
Flags: W
LayerCount: 2
UndoRedoHistory
Layer: 1
Undoes
EndUndoes
Redoes
EndRedoes
EndUndoRedoHistory
Fore
SplineSet
267 0 m 1
 639 0 l 1
 639 936 l 1
 841 936 l 1
 841 1183.95898438 l 1
 639 1184 l 1
 267 1183.95898438 l 1
 78 1183.95898438 l 1
 78 936 l 1
 267 936 l 1
 267 0 l 1
EndSplineSet
EndChar

StartChar: afii10085
Encoding: 227 1091 199
Width: 860
VWidth: 0
GlyphClass: 2
Flags: W
HStem: -426 289<38 205.19>
LayerCount: 2
UndoRedoHistory
Layer: 1
Undoes
EndUndoes
Redoes
EndRedoes
EndUndoRedoHistory
Fore
SplineSet
38 -426 m 1
 484 -426 560 -312 620 0 c 2
 856 1217 l 1
 513 1217 l 1
 438 496 l 1
 346 1217 l 1
 4 1217 l 1
 232 91 l 2
 267 -81 233 -137 3 -137 c 1
 38 -426 l 1
EndSplineSet
EndChar

StartChar: afii10086
Encoding: 228 1092 200
Width: 1465
VWidth: 0
GlyphClass: 2
Flags: W
HStem: -2.01643 211.016<426.495 572.323 889.322 1038.5> 984.61 204.178<889.322 1038.76> 990 199.524<427.476 572.323>
LayerCount: 2
UndoRedoHistory
Layer: 1
Undoes
EndUndoes
Redoes
EndRedoes
EndUndoRedoHistory
Fore
SplineSet
484 209 m 2xa0
 445 208 421 245 421 286 c 2
 421 900 l 2
 421 954 443 993 488 990 c 2
 572.323242188 984.837352519 l 1
 572.323242188 211.895844006 l 1
 484 209 l 2xa0
572.323242188 -390 m 1
 889.322265625 -390 l 1
 889.322265625 -1.17835802135 l 1
 1145 -17 l 2
 1300 -27 1393 72 1393 278 c 2
 1393 915 l 2
 1393 1116 1291 1223 1142 1210 c 2
 889.322265625 1188.78754823 l 1xc0
 889.322265625 1657.23242188 l 1
 572.323242188 1657.23242188 l 1
 572.323242188 1189.52417818 l 1
 323 1210 l 2
 174 1222 72 1116 72 915 c 2
 72 278 l 2
 72 72 166 -26 320 -17 c 2
 572.323242188 -2.01643454944 l 1
 572.323242188 -390 l 1
889.322265625 984.609975346 m 1
 977 990 l 2xa0
 1022 993 1044 954 1044 900 c 2
 1044 286 l 2
 1044 245 1020 208 981 209 c 2
 889.322265625 211.898900692 l 1
 889.322265625 984.609975346 l 1
EndSplineSet
EndChar

StartChar: afii10087
Encoding: 229 1093 201
Width: 883
VWidth: 0
GlyphClass: 2
Flags: W
LayerCount: 2
UndoRedoHistory
Layer: 1
Undoes
EndUndoes
Redoes
EndRedoes
EndUndoRedoHistory
Fore
SplineSet
551 0 m 1
 932 0 l 1
 665.911486314 601.238168329 l 1
 889 1184 l 1
 619 1184 l 1
 520.71865015 929.307477523 l 1
 408 1184 l 1
 30 1184 l 1
 261.158333937 658.680484873 l 1
 13 0 l 1
 314 0 l 1
 418.782932758 300.470264135 l 1
 551 0 l 1
EndSplineSet
EndChar

StartChar: afii10088
Encoding: 230 1094 202
Width: 1202
VWidth: 0
GlyphClass: 2
Flags: W
VStem: 922 260<-378 -107.05>
LayerCount: 2
UndoRedoHistory
Layer: 1
Undoes
EndUndoes
Redoes
EndRedoes
EndUndoRedoHistory
Fore
SplineSet
922 -378 m 1
 1182 -378 l 1
 1182 248 l 1
 972 248 l 1
 972 1184 l 1
 600 1184 l 1
 600 248 l 1
 457 248 l 1
 457 1184 l 1
 85 1184 l 1
 85 0 l 1
 357.333333333 -0 629.666666667 0 902 0 c 1
 922 -378 l 1
EndSplineSet
EndChar

StartChar: afii10089
Encoding: 231 1095 203
Width: 1006
VWidth: 0
GlyphClass: 2
Flags: W
HStem: 477 199<441.803 549>
LayerCount: 2
UndoRedoHistory
Layer: 1
Undoes
EndUndoes
Redoes
EndRedoes
EndUndoRedoHistory
Fore
SplineSet
549 0 m 1
 921 0 l 1
 921 1184 l 1
 549 1184 l 1
 549 676 l 1
 438 676 417 709 417 800 c 2
 417 1184 l 1
 45 1184 l 1
 45 773 l 2
 45 608 108 477 458 477 c 0
 486.454746456 477 516.725774972 478.297344329 549 480.985490213 c 1
 549 0 l 1
EndSplineSet
EndChar

StartChar: afii10090
Encoding: 232 1096 204
Width: 1483
VWidth: 0
GlyphClass: 2
Flags: W
LayerCount: 2
UndoRedoHistory
Layer: 1
Undoes
EndUndoes
Redoes
EndRedoes
EndUndoRedoHistory
Fore
SplineSet
1052.58789062 248 m 1
 914.440429688 248 l 1
 914.440429688 1184 l 1
 568.587890625 1184 l 1
 568.587890625 248 l 1
 430.440429688 248 l 1
 430.440429688 1184 l 1
 84.587890625 1184 l 1
 84.587890625 0 l 1
 1398.44042969 0 l 1
 1398.44042969 1184 l 1
 1052.58789062 1184 l 1
 1052.58789062 248 l 1
EndSplineSet
EndChar

StartChar: afii10091
Encoding: 233 1097 205
Width: 1649
VWidth: 0
GlyphClass: 2
Flags: W
VStem: 1349.83 280<-378 -197.366>
LayerCount: 2
UndoRedoHistory
Layer: 1
Undoes
EndUndoes
Redoes
EndRedoes
EndUndoRedoHistory
Fore
SplineSet
1349.83 -378 m 1
 1629.83 -378 l 1
 1629.83 248 l 1
 1399.68261719 248 l 1
 1399.68261719 1184 l 1
 1051 1184 l 1
 1051 248 l 1
 915.682617188 248 l 1
 915.682617188 1184 l 1
 567 1184 l 1
 567 248 l 1
 433.682617188 248 l 1
 433.682617188 1184 l 1
 85 1184 l 1
 85 0 l 1
 496.61 -0 908.22 0 1319.83 0 c 1
 1349.83 -378 l 1
EndSplineSet
EndChar

StartChar: afii10092
Encoding: 234 1098 206
Width: 1186
VWidth: 0
GlyphClass: 2
Flags: W
HStem: 0 211.01<609 764.637> 492.991 220.009<609 759.575>
VStem: 798 338<241.363 457.487>
LayerCount: 2
UndoRedoHistory
Layer: 1
Undoes
EndUndoes
Redoes
EndRedoes
EndUndoRedoHistory
Fore
SplineSet
237 950 m 1,0,-1
 237 0 l 1,1,-1
 625 0 l 2,2,-1
 985 0 1136 102 1136 346 c 0,5,-1
 1136 627 944 713 616 713 c 2,8,-1
 609 713 l 1,9,-1
 609 1184 l 1,10,-1
 19 1184 l 1,11,-1
 19 950 l 1,12,-1
 237 950 l 1,0,-1
609 211.009523863 m 1,13,-1
 609 492.991498466 l 1,14,-1
 735.323050606 492.449123827 798 465.711601293 798 343 c 0,17,-1
 798 245.945621136 745.037085313 211.662104124 609 211.009523863 c 1,13,-1
EndSplineSet
EndChar

StartChar: afii10093
Encoding: 235 1099 207
Width: 1571
VWidth: 0
GlyphClass: 2
Flags: W
HStem: 0 211.029<457 609.637> 492.974 220.026<457 604.575>
VStem: 643 338<241.873 453.281>
LayerCount: 2
UndoRedoHistory
Layer: 1
Undoes
EndUndoes
Redoes
EndRedoes
EndUndoRedoHistory
Fore
SplineSet
1114 0 m 1
 1486 0 l 1
 1486 1184 l 1
 1114 1184 l 1
 1114 0 l 1
457 211.029493285 m 1
 457 492.973566642 l 1
 581.31540881 492.018039311 643 464.736284785 643 343 c 0
 643 246.662290548 590.816375451 212.171839821 457 211.029493285 c 1
457 713 m 1
 457 1184 l 1
 85 1184 l 1
 85 0 l 1
 470 0 l 2
 830 0 981 102 981 346 c 0
 981 627 789 713 461 713 c 2
 457 713 l 1
EndSplineSet
EndChar

StartChar: afii10094
Encoding: 236 1100 208
Width: 1025
VWidth: 0
GlyphClass: 2
Flags: W
HStem: 0 211.029<448 600.637> 492.974 220.026<448 595.575>
VStem: 634 338<241.873 453.281>
LayerCount: 2
UndoRedoHistory
Layer: 1
Undoes
EndUndoes
Redoes
EndRedoes
EndUndoRedoHistory
Fore
SplineSet
448 211.029493285 m 1
 448 492.973566642 l 1
 572.31540881 492.018039311 634 464.736284785 634 343 c 0
 634 246.662290548 581.816375451 212.171839821 448 211.029493285 c 1
448 713 m 1
 448 1184 l 1
 76 1184 l 1
 76 0 l 1
 461 0 l 2
 821 0 972 102 972 346 c 0
 972 627 780 713 452 713 c 2
 448 713 l 1
EndSplineSet
EndChar

StartChar: afii10095
Encoding: 237 1101 209
Width: 1015
VWidth: 0
GlyphClass: 2
Flags: W
HStem: -22 261<454.896 560.099> 943 263<454.896 560.099>
VStem: 569 374<244.033 347 835 938.098>
LayerCount: 2
UndoRedoHistory
Layer: 1
Undoes
EndUndoes
Redoes
EndRedoes
EndUndoRedoHistory
Fore
SplineSet
512 -22 m 0
 760 -22 943 111 943 347 c 2
 943 835 l 2
 943 1071 760 1206 512 1206 c 0
 264 1206 86 1090 86 853 c 2
 86 761 l 1
 450 761 l 1
 450 855 l 2
 450 932 480 943 512 943 c 0
 542 943 569 921 569 847 c 2
 569 655 l 1
 302 655 l 1
 302 508 l 1
 569 508 l 1
 569 335 l 2
 569 261 542 239 512 239 c 0
 480 239 450 250 450 327 c 2
 450 399 l 1
 86 399 l 1
 86 329 l 2
 86 92 264 -22 512 -22 c 0
EndSplineSet
EndChar

StartChar: afii10096
Encoding: 238 1102 210
Width: 1502
VWidth: 0
GlyphClass: 2
Flags: W
HStem: -22 263<953.719 1068.3> 943 263<953.719 1068.3>
VStem: 593.24 351.969<249.916 349 835 934.084> 1078.88 351.969<249.604 349 835 934.396>
LayerCount: 2
UndoRedoHistory
Layer: 1
Undoes
EndUndoes
Redoes
EndRedoes
EndUndoRedoHistory
Fore
SplineSet
1009.640625 -22 m 0
 1248.13378906 -22 1430.84960938 94 1430.84960938 349 c 2
 1430.84960938 835 l 2
 1430.84960938 1090 1248.13378906 1206 1009.640625 1206 c 0
 771.147460938 1206 593.240234375 1089 593.240234375 835 c 2
 593.240234375 727 l 1
 457 727 l 1
 457 1184 l 1
 85 1184 l 1
 85 0 l 1
 457 0 l 1
 457 461.607883817 l 1
 593.240234375 461.32522773 l 1
 593.240234375 349 l 2
 593.240234375 95 771.147460938 -22 1009.640625 -22 c 0
1010.60253906 241 m 0
 968.2890625 241 945.208984375 269 945.208984375 343 c 2
 945.208984375 841 l 2
 945.208984375 915 968.2890625 943 1010.60253906 943 c 0
 1055.80078125 943 1078.88085938 918 1078.88085938 841 c 2
 1078.88085938 343 l 2
 1078.88085938 266 1055.80078125 241 1010.60253906 241 c 0
EndSplineSet
EndChar

StartChar: afii10097
Encoding: 239 1103 211
Width: 1050
VWidth: 0
GlyphClass: 2
Flags: W
HStem: 973 211<424.363 584>
VStem: 53 338<724.597 942.939>
LayerCount: 2
UndoRedoHistory
Layer: 1
Undoes
EndUndoes
Redoes
EndRedoes
EndUndoRedoHistory
Fore
SplineSet
71 0 m 1
 434 0 l 1
 503.26771727 472.421397562 l 1
 525.770409869 471.459604245 549.021796927 471 573 471 c 2
 593 471 l 1
 593 0 l 1
 965 0 l 1
 965 1184 l 1
 564 1184 l 2
 204 1184 53 1082 53 838 c 0
 53 697.478291469 101.014834021 605.721648741 190.04125687 549.09875528 c 1
 71 0 l 1
593 973 m 1
 593 691 l 1
 584 691 l 2
 455 691 391 717 391 841 c 0
 391 939 445 973 584 973 c 2
 593 973 l 1
EndSplineSet
EndChar

StartChar: afii10099
Encoding: 242 1106 212
Width: 1051
VWidth: 0
GlyphClass: 2
Flags: W
HStem: -338 172<397.088 526.381>
VStem: 602.088 372<-81.4249 210 938.122 992.211>
LayerCount: 2
UndoRedoHistory
Layer: 1
Undoes
EndUndoes
Redoes
EndRedoes
EndUndoRedoHistory
Fore
SplineSet
356.088 -338 m 1
 397.088 -338 l 2
 820.088 -338 974.087890625 -246 974.087890625 210 c 2
 974.087890625 972.201171875 l 2
 974.087890625 1116.828125 885.087890625 1212.41503906 740.087890625 1212.41503906 c 0
 638.929281035 1212.41503906 546.901900737 1188.69710197 455.087890625 1111.61127138 c 1
 455.087890625 1370 l 1
 809 1370 l 1
 809 1487 l 1
 455.087890625 1487 l 1
 455.087890625 1658 l 1
 83.087890625 1658 l 1
 83.087890625 1487 l 1
 -25 1487 l 1
 -25 1370 l 1
 83.087890625 1370 l 1
 83.087890625 0 l 1
 455.087890625 0 l 1
 455.087890625 971.03955799 l 1
 491.40957396 989.662236055 522.773738159 996.937535604 545.087890625 997.967773438 c 0
 588.087890625 999.630859375 602.087890625 978.01953125 602.087890625 938.122070312 c 2
 602.087890625 210 l 2
 602.087890625 -0.0703125 595.088 -166 398.088 -166 c 2
 356.088 -166 l 1
 356.088 -338 l 1
EndSplineSet
EndChar

StartChar: afii10101
Encoding: 244 1108 214
Width: 951
VWidth: 0
GlyphClass: 2
Flags: W
HStem: -22 263<460.901 566.104> 945 261<460.901 566.104>
VStem: 78 374<245.902 349 837 939.967>
LayerCount: 2
UndoRedoHistory
Layer: 1
Undoes
EndUndoes
Redoes
EndRedoes
EndUndoRedoHistory
Fore
SplineSet
509 -22 m 0
 757 -22 935 94 935 331 c 2
 935 453 l 1
 571 453 l 1
 571 329 l 2
 571 252 541 241 509 241 c 0
 479 241 452 263 452 337 c 2
 452 529 l 1
 719 529 l 1
 719 676 l 1
 452 676 l 1
 452 849 l 2
 452 923 479 945 509 945 c 0
 541 945 571 934 571 857 c 2
 571 755 l 1
 935 755 l 1
 935 855 l 2
 935 1092 757 1206 509 1206 c 0
 261 1206 78 1073 78 837 c 2
 78 349 l 2
 78 113 261 -22 509 -22 c 0
EndSplineSet
EndChar

StartChar: afii10102
Encoding: 245 1109 215
Width: 865
VWidth: 0
GlyphClass: 2
Flags: W
HStem: -22 249<368.738 492.725>
VStem: 496 353<231.9 353.968>
LayerCount: 2
UndoRedoHistory
Layer: 1
Undoes
EndUndoes
Redoes
EndRedoes
EndUndoRedoHistory
Fore
SplineSet
454 -22 m 0
 650 -22 849 97 849 306 c 0
 849 458 726 555 618 648 c 1
 580 680 l 2
 484 762 367 840 377 899 c 0
 379 912 389 947 436 943 c 0
 497 938 536 851 560 788 c 1
 819 905 l 1
 764 1085 612 1206 414 1206 c 0
 216 1206 40 1063 40 867 c 1
 39 740 157 603 264 513 c 2
 309 475 l 2
 388 408 495 335 496 287 c 0
 497 251 473 227 444 227 c 0
 370 227 328 330 297 402 c 1
 22 315 l 1
 88.65234375 82.2470703125 253.241210938 -22 454 -22 c 0
EndSplineSet
EndChar

StartChar: afii10103
Encoding: 246 1110 216
Width: 534
VWidth: 0
GlyphClass: 2
Flags: W
LayerCount: 2
UndoRedoHistory
Layer: 1
Undoes
EndUndoes
Redoes
EndRedoes
EndUndoRedoHistory
Fore
SplineSet
87 0 m 1
 459 0 l 1
 459 1184 l 1
 87 1184 l 1
 87 0 l 1
85 1391 m 1
 459 1391 l 1
 459 1626 l 1
 85 1626 l 1
 85 1391 l 1
EndSplineSet
EndChar

StartChar: afii10105
Encoding: 248 1112 218
Width: 549
VWidth: 0
GlyphClass: 2
Flags: W
HStem: -393 289<-15.0539 287.5>
LayerCount: 2
UndoRedoHistory
Layer: 1
Undoes
EndUndoes
Redoes
EndRedoes
EndUndoRedoHistory
Fore
SplineSet
120 1391 m 1
 494 1391 l 1
 494 1626 l 1
 120 1626 l 1
 120 1391 l 1
-17 -362 m 1
 46 -379 111 -393 183 -393 c 0
 392 -393 494 -253 494 -65 c 2
 494 1184 l 1
 122 1184 l 1
 122 -19 l 2
 122 -86 85 -104 42 -104 c 0
 23 -104 3 -99 -17 -95 c 1
 -17 -362 l 1
EndSplineSet
EndChar

StartChar: afii10106
Encoding: 249 1113 219
Width: 1655
VWidth: 0
GlyphClass: 2
Flags: W
HStem: 0 236<46 181.035> 0 211.01<1165 1320.64> 492.991 220.009<1165 1315.58>
VStem: 1354 338<241.363 457.487>
LayerCount: 2
UndoRedoHistory
Layer: 1
Undoes
EndUndoes
Redoes
EndRedoes
EndUndoRedoHistory
Fore
SplineSet
46 0 m 1xb0
 110 0 l 2xb0
 370 0 553 36 586 598 c 2
 601.607508532 867 l 1
 793 867 l 1
 793 0 l 1
 1181 0 l 2x70
 1541 0 1692 102 1692 346 c 0
 1692 627 1500 713 1172 713 c 2
 1165 713 l 1
 1165 1184 l 1
 793 1184 l 1
 793 1183 l 1
 619.941979522 1183 l 1
 620 1184 l 1
 297 1184 l 1
 268 723 l 2
 241 288 212 236 46 236 c 1
 46 0 l 1xb0
1165 211.009523863 m 1x70
 1165 492.991498466 l 1
 1291.32305061 492.449123827 1354 465.711601293 1354 343 c 0
 1354 245.945621136 1301.03708531 211.662104124 1165 211.009523863 c 1x70
EndSplineSet
EndChar

StartChar: afii10107
Encoding: 250 1114 220
Width: 1515
VWidth: 0
GlyphClass: 2
Flags: W
HStem: 2.0066 211.397<975 1113.25> 494.63 220.317<975 1101.74>
VStem: 1143 338<244.31 453.901>
LayerCount: 2
UndoRedoHistory
Layer: 1
Undoes
EndUndoes
Redoes
EndRedoes
EndUndoRedoHistory
Fore
SplineSet
85 0 m 1
 457 0 l 1
 457 399 l 1
 603 399 l 1
 603 2 l 1
 725.333333333 2 847.666666667 2 970 2 c 2
 975 2.00659812281 l 0
 1331.39867078 2.95005553483 1481 105.132680913 1481 348 c 0
 1481 624.978117551 1294.45676347 712.498260502 975 714.946827874 c 1
 975 1186 l 1
 603 1186 l 1
 603 715 l 1
 457 715 l 1
 457 1184 l 1
 85 1184 l 1
 85 0 l 1
975 213.403251823 m 1
 975 494.629908193 l 1
 1087.27085221 491.085811119 1143 460.710534335 1143 345 c 0
 1143 253.106196283 1095.5196332 217.485419882 975 213.403251823 c 1
EndSplineSet
EndChar

StartChar: afii10108
Encoding: 251 1115 221
Width: 997
VWidth: 0
GlyphClass: 2
Flags: W
HStem: 0.00659812 211.397<457 595.246> 492.63 220.317<457 583.736>
VStem: 625 338<242.31 451.901>
LayerCount: 2
UndoRedoHistory
Layer: 1
Undoes
EndUndoes
Redoes
EndRedoes
EndUndoRedoHistory
Fore
SplineSet
457 211.403251823 m 1
 457 492.629908193 l 1
 569.270852212 489.085811119 625 458.710534335 625 343 c 0
 625 251.106196283 577.519633202 215.485419882 457 211.403251823 c 1
457 712.946827874 m 1
 457 1184 l 1
 85 1184 l 1
 85 0 l 1
 207.333333333 -0 329.666666667 0 452 0 c 2
 457 0.00659812281311 l 0
 813.398670775 0.950055534832 963 103.132680913 963 346 c 0
 963 622.978117551 776.45676347 710.498260502 457 712.946827874 c 1
EndSplineSet
EndChar

StartChar: afii10145
Encoding: 175 1039 224
Width: 1219
VWidth: 0
GlyphClass: 2
Flags: W
LayerCount: 2
UndoRedoHistory
Layer: 1
Undoes
EndUndoes
Redoes
EndRedoes
EndUndoRedoHistory
Fore
SplineSet
467 -378 m 1
 761 -378 l 1
 774.795620438 0 l 1
 890.197080292 -0 1005.59854015 0 1121 0 c 1
 1121 1658 l 1
 709 1658 l 1
 709 316 l 1
 510 316 l 1
 510 1658 l 1
 98 1658 l 1
 98 0 l 1
 216.401459854 -0 334.802919708 0 453.204379562 0 c 1
 467 -378 l 1
EndSplineSet
EndChar

StartChar: afii10193
Encoding: 255 1119 225
Width: 1076
VWidth: 0
GlyphClass: 2
Flags: W
VStem: 392.544 309.177<-293.623 0> 411 275<-378 -84.3775>
LayerCount: 2
UndoRedoHistory
Layer: 1
Undoes
EndUndoes
Redoes
EndRedoes
EndUndoRedoHistory
Fore
SplineSet
411 -378 m 1x40
 686 -378 l 1x40
 701.721518987 0 l 1
 798.147679325 -0 894.573839662 0 991 0 c 1
 991 1184 l 1
 619 1184 l 1
 619 312.489257812 l 1
 457 312.489257812 l 1
 457 1184 l 1
 85 1184 l 1
 85 0 l 1
 187.514767932 -0 290.029535865 0 392.544303797 0 c 1x80
 411 -378 l 1x40
EndSplineSet
EndChar

StartChar: afii61352
Encoding: 240 8470 226
Width: 2121
VWidth: 0
GlyphClass: 2
Flags: W
HStem: -22 263<1552.85 1672> 943 263<1552.85 1672>
VStem: 1178 366<249.916 349 835 934.084> 1683 366<249.604 349 835 934.396>
LayerCount: 2
UndoRedoHistory
Layer: 1
Undoes
EndUndoes
Redoes
EndRedoes
EndUndoRedoHistory
Fore
SplineSet
1611 -22 m 0
 1859 -22 2049 94 2049 349 c 2
 2049 835 l 2
 2049 1090 1859 1206 1611 1206 c 0
 1363 1206 1178 1089 1178 835 c 2
 1178 349 l 2
 1178 95 1363 -22 1611 -22 c 0
1612 241 m 0
 1568 241 1544 269 1544 343 c 2
 1544 841 l 2
 1544 915 1568 943 1612 943 c 0
 1659 943 1683 918 1683 841 c 2
 1683 343 l 2
 1683 266 1659 241 1612 241 c 0
98 0 m 1
 452 0 l 1
 452 767 l 1
 746 0 l 1
 1028 0 l 1
 1028 1658 l 1
 687 1658 l 1
 687 962 l 1
 391 1658 l 1
 98 1658 l 1
 98 0 l 1
EndSplineSet
EndChar

StartChar: ampersand
Encoding: 38 38 229
Width: 1121
VWidth: 0
GlyphClass: 2
Flags: W
HStem: -29 238<372.661 559.222> 1432.68 253.32<417.552 559.273>
VStem: 48 277.745<253.737 581.194> 117 288<1133.24 1419.02> 574 271<1171.22 1420.16> 805 227<506.71 834>
LayerCount: 2
UndoRedoHistory
Layer: 1
Undoes
EndUndoes
Redoes
EndRedoes
EndUndoRedoHistory
Fore
SplineSet
475 1033 m 1xd8
 468 1083 405 1250 405 1337 c 0
 405 1402.01 446.229 1432.68 487.959 1432.68 c 0
 530.717 1432.68 574 1400.48 574 1340 c 0
 574 1255 497 1094 475 1033 c 1xd8
443 209 m 0
 396.479 209 325.745 274.96 325.745 398.789 c 0xe0
 325.745 466.61 346.964 551.79 405 653 c 1
 429 594 570 265 570 265 c 1
 530 210 483 209 443 209 c 0
435 -29 m 0
 547 -29 656 15 728 104 c 1
 793.404 47.2526 881.01 -35.3975 976.582 -35.3975 c 0
 1001.75 -35.3975 1023.29 -29.9753 1046 -24 c 1
 1046 222 l 1
 996 228 944 253 920 283 c 1
 994 436 1032 564 1032 834 c 1
 805 834 l 1xe4
 805 728 784 537 750 483 c 1
 574 838 l 1
 686 965 845 1083 845 1318 c 0
 845 1548 683 1686 469 1686 c 0
 250 1686 117 1515 117 1316 c 0xd8
 117 1175 205 1058 280 900 c 1
 156 774 48 560 48 366 c 0
 48 134 212 -29 435 -29 c 0
EndSplineSet
EndChar

StartChar: approxequal
Encoding: 65537 8776 231
Width: 1009
VWidth: 0
Flags: W
HStem: 372 252<556.8 755.294> 494 250<252.668 459.575> 836 252<556.8 755.294> 958 250<252.668 459.575>
LayerCount: 2
UndoRedoHistory
Layer: 1
Undoes
EndUndoes
Redoes
EndRedoes
EndUndoRedoHistory
Fore
SplineSet
692 372 m 0x80
 793 372 899 489 940 603 c 1
 812 727 l 1
 769 672 711 624 676 624 c 0x80
 608 624 446 744 325 744 c 0
 230 744 135 636 86 538 c 1
 200 388 l 1
 245 461 309 494 336 494 c 0x40
 409 494 571 372 692 372 c 0x80
692 836 m 0x20
 793 836 899 953 940 1067 c 1
 812 1191 l 1
 769 1136 711 1088 676 1088 c 0x20
 608 1088 446 1208 325 1208 c 0
 230 1208 135 1100 86 1002 c 1
 200 852 l 1
 245 925 309 958 336 958 c 0x10
 409 958 571 836 692 836 c 0x20
EndSplineSet
EndChar

StartChar: asciicircum
Encoding: 94 94 233
Width: 996
VWidth: 0
GlyphClass: 2
Flags: W
LayerCount: 2
UndoRedoHistory
Layer: 1
Undoes
EndUndoes
Redoes
EndRedoes
EndUndoRedoHistory
Fore
SplineSet
496 1332 m 1
 631 965 l 1
 938 965 l 1
 636 1658 l 1
 358 1658 l 1
 58 965 l 1
 363 965 l 1
 496 1332 l 1
EndSplineSet
EndChar

StartChar: asciitilde
Encoding: 126 126 234
Width: 1009
VWidth: 0
GlyphClass: 2
Flags: W
HStem: 660 252<556.8 755.294> 782 250<252.668 459.575>
LayerCount: 2
UndoRedoHistory
Layer: 1
Undoes
EndUndoes
Redoes
EndRedoes
EndUndoRedoHistory
Fore
SplineSet
692 660 m 0x80
 793 660 899 777 940 891 c 1
 812 1015 l 1
 769 960 711 912 676 912 c 0x80
 608 912 446 1032 325 1032 c 0
 230 1032 135 924 86 826 c 1
 200 676 l 1
 245 749 309 782 336 782 c 0x40
 409 782 571 660 692 660 c 0x80
EndSplineSet
EndChar

StartChar: asterisk
Encoding: 42 42 235
Width: 882
VWidth: 0
GlyphClass: 2
Flags: W
LayerCount: 2
UndoRedoHistory
Layer: 1
Undoes
EndUndoes
Redoes
EndRedoes
EndUndoRedoHistory
Fore
SplineSet
365 909 m 1
 458 1113 l 1
 552 909 l 1
 773 1039 l 1
 628 1238 l 1
 842 1320 l 1
 760 1542 l 1
 572 1434 l 1
 597 1658 l 1
 320 1658 l 1
 347 1436 l 1
 158 1541 l 1
 76 1322 l 1
 288 1240 l 1
 147 1038 l 1
 365 909 l 1
EndSplineSet
EndChar

StartChar: at
Encoding: 64 64 236
Width: 1977
VWidth: 0
GlyphClass: 2
Flags: W
HStem: -253 214<700.903 1325.92> 990 271<960.561 1096.33> 1451 208<826.892 1385.12>
LayerCount: 2
UndoRedoHistory
Layer: 1
Undoes
EndUndoes
Redoes
EndRedoes
EndUndoRedoHistory
Fore
SplineSet
986.083919564 466 m 1
 884.083919564 466 850.083919564 559 851.083919564 666 c 0
 853.083919564 800 913.083919564 990 1076.08391956 990 c 0
 1093.08391956 990 1141.08391956 982 1137.08391956 954 c 2
 1078.08391956 470 l 1
 1059.08391956 456 986.083919564 466 986.083919564 466 c 1
968.083919564 -253 m 0
 1129.08391956 -253 1304.08391956 -221 1458.08391956 -188 c 1
 1421.08391956 32 l 1
 1305.08391956 -9 1104.08391956 -39 1003.08391956 -39 c 0
 439.083919564 -39 294.083919564 282 371.083919564 769 c 1
 428.083919564 1121 620.083919564 1451 1105.08391956 1451 c 0
 1568.08391956 1451 1720.08391956 1194 1667.08391956 761 c 0
 1639.08391956 533 1501.08391956 375 1410.08391956 415 c 0
 1370.08391956 432 1392.08391956 573 1397.08391956 611 c 2
 1476.08391956 1251 l 1
 1174.08391956 1251 l 1
 1154.08391956 1088 l 1
 1142.08391956 1133 1116.08391956 1261 995.083919564 1261 c 0
 658.083919564 1261 549.083919564 883 537.083919564 667 c 0
 523.083919564 407 668.083919564 207 905.083919564 227 c 0
 984.083919564 234 1065.08391956 277 1102.08391956 345 c 1
 1146.08391956 243 1278.08391956 206 1389.08391956 206 c 0
 1749.08391956 206 1891.08391956 538 1918.08391956 757 c 0
 1983.08391956 1290 1735.08391956 1659 1133.08391956 1659 c 0
 543.083919564 1659 191.083919564 1269 117.083919564 767 c 0
 25.0839195635 151 304.083919564 -253 968.083919564 -253 c 0
EndSplineSet
EndChar

StartChar: b
Encoding: 98 98 238
Width: 1036
VWidth: 0
GlyphClass: 2
Flags: W
LayerCount: 2
UndoRedoHistory
Layer: 1
Undoes
EndUndoes
Redoes
EndRedoes
EndUndoRedoHistory
Fore
SplineSet
725 -22 m 0
 870 -22 971 93 971 303 c 2
 971 890 l 2
 971 1100 879 1199 725 1206 c 0
 646.223037073 1209.5273267 550.856695966 1177.11100067 458 1099.40469135 c 1
 458 1658 l 1
 86 1658 l 1
 86 0 l 1
 458 0 l 1
 458 90.3823520985 l 1
 544.994156083 18.6865583741 638.175715415 -22 725 -22 c 0
458 962.252584066 m 1
 484.266128404 980.899357819 507.799276029 993.330922142 525 996 c 0
 570 1003 598 966 598 925 c 2
 598 279 l 2
 598 238 570 206 525 207 c 0
 505.462305343 207.550357596 482.441335626 216.960349583 458 231.583419381 c 1
 458 962.252584066 l 1
EndSplineSet
EndChar

StartChar: backslash
Encoding: 92 92 239
Width: 902
VWidth: 0
GlyphClass: 2
Flags: W
LayerCount: 2
UndoRedoHistory
Layer: 1
Undoes
EndUndoes
Redoes
EndRedoes
EndUndoRedoHistory
Fore
SplineSet
803 0 m 1
 274 1658 l 1
 99 1658 l 1
 629 0 l 1
 803 0 l 1
EndSplineSet
EndChar

StartChar: bar
Encoding: 124 124 240
Width: 553
VWidth: 0
GlyphClass: 2
Flags: W
VStem: 128 297
LayerCount: 2
UndoRedoHistory
Layer: 1
Undoes
EndUndoes
Redoes
EndRedoes
EndUndoRedoHistory
Fore
SplineSet
128 -390 m 1
 425 -390 l 1
 425 1658 l 1
 128 1658 l 1
 128 -390 l 1
EndSplineSet
EndChar

StartChar: braceleft
Encoding: 123 123 241
Width: 817
VWidth: 0
GlyphClass: 2
Flags: W
HStem: -396 243<611.145 748> 1459 243<611.145 748>
VStem: 241 334<-115.901 77 172 495.687 810.313 1134 1229 1421.9>
LayerCount: 2
UndoRedoHistory
Layer: 1
Undoes
EndUndoes
Redoes
EndRedoes
EndUndoRedoHistory
Fore
SplineSet
748 -396 m 1
 748 -153 l 1
 602 -153 575 -124 575 77 c 2
 575 214 l 2
 575 456 546 615 383 653 c 1
 546 691 575 850 575 1092 c 2
 575 1229 l 2
 575 1430 602 1459 748 1459 c 1
 748 1702 l 1
 287 1702 241 1564 241 1254 c 2
 241 1134 l 2
 241 818 240 788 103 788 c 1
 103 518 l 1
 240 518 241 488 241 172 c 2
 241 52 l 2
 241 -258 287 -396 748 -396 c 1
EndSplineSet
EndChar

StartChar: braceright
Encoding: 125 125 242
Width: 817
VWidth: 0
GlyphClass: 2
Flags: W
HStem: -396 243<70 206.855> 1459 243<70 206.855>
VStem: 243 334<-115.901 77 172 495.687 810.313 1134 1229 1421.9>
LayerCount: 2
UndoRedoHistory
Layer: 1
Undoes
EndUndoes
Redoes
EndRedoes
EndUndoRedoHistory
Fore
SplineSet
70 -396 m 1
 531 -396 577 -258 577 52 c 2
 577 172 l 2
 577 488 578 518 715 518 c 1
 715 788 l 1
 578 788 577 818 577 1134 c 2
 577 1254 l 2
 577 1564 531 1702 70 1702 c 1
 70 1459 l 1
 216 1459 243 1430 243 1229 c 2
 243 1092 l 2
 243 850 272 691 435 653 c 1
 272 615 243 456 243 214 c 2
 243 77 l 2
 243 -124 216 -153 70 -153 c 1
 70 -396 l 1
EndSplineSet
EndChar

StartChar: bracketleft
Encoding: 91 91 243
Width: 673
VWidth: 0
GlyphClass: 2
Flags: W
LayerCount: 2
UndoRedoHistory
Layer: 1
Undoes
EndUndoes
Redoes
EndRedoes
EndUndoRedoHistory
Fore
SplineSet
98 -378 m 1
 631 -378 l 1
 631 -244 l 1
 370 -244 l 1
 372 1524 l 1
 633 1524 l 1
 633 1658 l 1
 100 1658 l 1
 98 -378 l 1
EndSplineSet
EndChar

StartChar: bracketright
Encoding: 93 93 244
Width: 673
VWidth: 0
GlyphClass: 2
Flags: W
LayerCount: 2
UndoRedoHistory
Layer: 1
Undoes
EndUndoes
Redoes
EndRedoes
EndUndoRedoHistory
Fore
SplineSet
42 -378 m 1
 575 -378 l 1
 573 1658 l 1
 40 1658 l 1
 40 1524 l 1
 301 1524 l 1
 303 -244 l 1
 42 -244 l 1
 42 -378 l 1
EndSplineSet
EndChar

StartChar: breve
Encoding: 365 728 245
Width: 650
VWidth: 0
GlyphClass: 2
Flags: W
HStem: 1423 138<207.478 402.896>
VStem: 46 150<1577.64 1658> 415 149<1578.01 1658>
LayerCount: 2
UndoRedoHistory
Layer: 1
Undoes
EndUndoes
Redoes
EndRedoes
EndUndoRedoHistory
Fore
SplineSet
305 1423 m 0
 451 1423 564 1501 564 1658 c 1
 415 1658 l 1
 415 1594 385 1561 305 1561 c 0
 225 1561 196 1593 196 1658 c 1
 46 1658 l 1
 46 1500 159 1423 305 1423 c 0
EndSplineSet
EndChar

StartChar: brevecomb
Encoding: 65538 -1 246
Width: 650
VWidth: 0
Flags: W
HStem: 1423 138<207.478 402.896>
VStem: 46 150<1577.64 1658> 415 149<1578.01 1658>
LayerCount: 2
UndoRedoHistory
Layer: 1
Undoes
EndUndoes
Redoes
EndRedoes
EndUndoRedoHistory
Fore
SplineSet
305 1423 m 0
 451 1423 564 1501 564 1658 c 1
 415 1658 l 1
 415 1594 385 1561 305 1561 c 0
 225 1561 196 1593 196 1658 c 1
 46 1658 l 1
 46 1500 159 1423 305 1423 c 0
EndSplineSet
EndChar

StartChar: brokenbar
Encoding: 366 166 247
Width: 447
VWidth: 0
GlyphClass: 2
Flags: W
VStem: 98 251
LayerCount: 2
UndoRedoHistory
Layer: 1
Undoes
EndUndoes
Redoes
EndRedoes
EndUndoRedoHistory
Fore
SplineSet
98 824 m 1
 349 824 l 1
 349 1658 l 1
 98 1658 l 1
 98 824 l 1
98 -390 m 1
 349 -390 l 1
 349 444 l 1
 98 444 l 1
 98 -390 l 1
EndSplineSet
EndChar

StartChar: bullet
Encoding: 367 8226 248
Width: 1059
VWidth: 0
GlyphClass: 2
Flags: W
HStem: 324 855<343.382 709.757>
VStem: 115 825<552.093 946.416>
LayerCount: 2
UndoRedoHistory
Layer: 1
Undoes
EndUndoes
Redoes
EndRedoes
EndUndoRedoHistory
Fore
SplineSet
526 324 m 0
 724 324 940 464 940 748 c 0
 940 1035 725 1179 526 1179 c 0
 329 1179 115 1040 115 748 c 0
 115 463 328 324 526 324 c 0
EndSplineSet
EndChar

StartChar: c
Encoding: 99 99 249
Width: 984
VWidth: 0
GlyphClass: 2
Flags: W
HStem: -22 263<454.901 560.104> 945 261<454.901 560.104>
VStem: 72 374<245.902 349 837 939.967>
LayerCount: 2
UndoRedoHistory
Layer: 1
Undoes
EndUndoes
Redoes
EndRedoes
EndUndoRedoHistory
Fore
SplineSet
503 -22 m 0
 751 -22 929 94 929 331 c 2
 929 496 l 1
 565 496 l 1
 565 329 l 2
 565 252 535 241 503 241 c 0
 473 241 446 263 446 337 c 2
 446 849 l 2
 446 923 473 945 503 945 c 0
 535 945 565 934 565 857 c 2
 565 710 l 1
 929 710 l 1
 929 855 l 2
 929 1092 751 1206 503 1206 c 0
 255 1206 72 1073 72 837 c 2
 72 349 l 2
 72 113 255 -22 503 -22 c 0
EndSplineSet
EndChar

StartChar: caron
Encoding: 369 711 251
Width: 868
VWidth: 0
GlyphClass: 2
Flags: W
HStem: 1269 389
LayerCount: 2
UndoRedoHistory
Layer: 1
Undoes
EndUndoes
Redoes
EndRedoes
EndUndoRedoHistory
Fore
SplineSet
252 1269 m 1
 606 1269 l 1
 790 1658 l 1
 530 1658 l 1
 430 1441 l 1
 334 1658 l 1
 75 1658 l 1
 252 1269 l 1
EndSplineSet
EndChar

StartChar: cedilla
Encoding: 374 184 256
Width: 580
VWidth: 0
GlyphClass: 2
Flags: W
HStem: -571 155<127 367.961>
VStem: 376 232<-420.187 -301.17>
LayerCount: 2
UndoRedoHistory
Layer: 1
Undoes
EndUndoes
Redoes
EndRedoes
EndUndoRedoHistory
Fore
SplineSet
127 -571 m 1
 329 -632 608 -589 608 -359 c 0
 608 -230 478 -142 309 -142 c 1
 309 0 l 1
 183 0 l 1
 183 -260 l 1
 258 -260 376 -292 376 -378 c 0
 376 -451 190 -434 127 -416 c 1
 127 -571 l 1
EndSplineSet
EndChar

StartChar: cent
Encoding: 375 162 257
Width: 984
VWidth: 0
GlyphClass: 2
Flags: W
VStem: 72 374<242.824 349 837 943.037>
LayerCount: 2
UndoRedoHistory
Layer: 1
Undoes
EndUndoes
Redoes
EndRedoes
EndUndoRedoHistory
Fore
SplineSet
458 -308 m 1
 549 -308 l 1
 549 -20.6182429418 l 1
 772.716159938 -6.90772236938 929 108.927193176 929 331 c 2
 929 496 l 1
 565 496 l 1
 565 329 l 2
 565 252 535 241 503 241 c 0
 473 241 446 263 446 337 c 2
 446 849 l 2
 446 923 473 945 503 945 c 0
 535 945 565 934 565 857 c 2
 565 710 l 1
 929 710 l 1
 929 855 l 2
 929 1077.07280682 772.716159938 1191.15172417 549 1204.64104538 c 1
 549 1488 l 1
 458 1488 l 1
 458 1204.49725102 l 1
 233.178856649 1189.24794366 72 1058.48304898 72 837 c 2
 72 349 l 2
 72 127.516951025 233.178856649 -5.00946122019 458 -20.4754792926 c 1
 458 -308 l 1
EndSplineSet
EndChar

StartChar: circumflex
Encoding: 376 710 258
Width: 876
VWidth: 0
GlyphClass: 2
Flags: W
HStem: 1253 405
LayerCount: 2
UndoRedoHistory
Layer: 1
Undoes
EndUndoes
Redoes
EndRedoes
EndUndoRedoHistory
Fore
SplineSet
102 1253 m 1
 372 1253 l 1
 449 1497 l 1
 527 1253 l 1
 798 1253 l 1
 591 1658 l 1
 301 1658 l 1
 102 1253 l 1
EndSplineSet
EndChar

StartChar: colon
Encoding: 58 58 259
Width: 502
VWidth: 0
GlyphClass: 2
Flags: W
VStem: 79 342
LayerCount: 2
UndoRedoHistory
Layer: 1
Undoes
EndUndoes
Redoes
EndRedoes
EndUndoRedoHistory
Fore
SplineSet
79 841 m 1
 421 841 l 1
 421 1179 l 1
 79 1179 l 1
 79 841 l 1
79 86 m 1
 421 86 l 1
 421 424 l 1
 79 424 l 1
 79 86 l 1
EndSplineSet
EndChar

StartChar: comma
Encoding: 44 44 260
Width: 457
VWidth: 0
GlyphClass: 2
Flags: W
HStem: -291 111<101 184.564>
VStem: 241 150.665<-123.303 0>
LayerCount: 2
UndoRedoHistory
Layer: 1
Undoes
EndUndoes
Redoes
EndRedoes
EndUndoRedoHistory
Fore
SplineSet
101 -291 m 1
 294.384 -289.421 391 -167 391.665 55 c 2
 392 341 l 1
 47 341 l 1
 47 0 l 1
 241 0 l 1
 241 -130 158 -164 86 -180 c 1
 101 -291 l 1
EndSplineSet
EndChar

StartChar: copyright
Encoding: 377 169 261
Width: 1824
VWidth: 0
GlyphClass: 2
Flags: W
HStem: -28 79<663.549 1163.74> 252.253 248.019<857.212 971.25> 1164.17 246.133<857.212 971.25> 1597 87<652.539 1174.38>
VStem: 98 94<539.766 1114.76> 1636 90<539.354 1114.76>
LayerCount: 2
UndoRedoHistory
Layer: 1
Undoes
EndUndoes
Redoes
EndRedoes
EndUndoRedoHistory
Fore
SplineSet
913 -28 m 0
 1493 -28 1726 415 1726 828 c 0
 1726 1241 1491 1684 913 1684 c 0
 333 1684 98 1241 98 828 c 0
 98 417 333 -28 913 -28 c 0
915 51 m 0
 411 51 192 435 192 826 c 0
 192 1219 411 1597 915 1597 c 0
 1416 1597 1636 1219 1636 826 c 0
 1636 435 1416 51 915 51 c 0
909.5741 252.253142 m 0
 1176.0997 252.253142 1367.3963 361.645666 1367.3963 585.145909 c 2
 1367.3963 740.747344 l 1
 976.2055 740.747344 l 1
 976.2055 583.259831 l 2
 976.2055 510.645828 943.9645 500.272399 909.5741 500.272399 c 0
 877.3331 500.272399 848.3162 521.019257 848.3162 590.804143 c 2
 848.3162 1073.640111 l 2
 848.3162 1143.424997 877.3331 1164.171855 909.5741 1164.171855 c 0
 943.9645 1164.171855 976.2055 1153.798426 976.2055 1081.184423 c 2
 976.2055 942.55769 l 1
 1367.3963 942.55769 l 1
 1367.3963 1079.298345 l 2
 1367.3963 1302.798588 1176.0997 1410.305034 909.5741 1410.305034 c 0
 643.0485 1410.305034 446.3784 1284.880847 446.3784 1062.323643 c 2
 446.3784 602.120611 l 2
 446.3784 379.563407 643.0485 252.253142 909.5741 252.253142 c 0
EndSplineSet
EndChar

StartChar: currency
Encoding: 378 164 262
Width: 1138
VWidth: 0
GlyphClass: 2
Flags: W
HStem: 428 93<407.785 730.89> 1211 93<407.785 730.89>
VStem: 136 99<693.746 1038.64> 904 98<693.746 1038.64>
LayerCount: 2
UndoRedoHistory
Layer: 1
Undoes
EndUndoes
Redoes
EndRedoes
EndUndoRedoHistory
Fore
SplineSet
569 521 m 0
 380 521 235 677 235 866 c 0
 235 1056 380 1211 569 1211 c 0
 759 1211 904 1056 904 866 c 0
 904 677 759 521 569 521 c 0
114 381 m 1
 276 543 l 1
 352 471 455 427 569 428 c 1
 683 427 786 471 862 543 c 1
 1024 381 l 1
 1054 411 l 1
 891 573 l 1
 960 650 1002 754 1002 866 c 0
 1002 979 960 1082 892 1159 c 1
 1054 1321 l 1
 1024 1351 l 1
 862 1189 l 1
 786 1261 683 1305 569 1304 c 1
 455 1305 352 1261 276 1189 c 1
 114 1351 l 1
 84 1321 l 1
 247 1159 l 1
 178 1082 136 979 136 866 c 0
 136 754 178 650 247 573 c 1
 84 411 l 1
 114 381 l 1
EndSplineSet
EndChar

StartChar: cyrillic_lc_right_bowl
Encoding: 379 -1 263
Width: 0
VWidth: 0
GlyphClass: 2
Flags: W
HStem: 0 211<441 600.637> 493 220<441 595.575>
VStem: 634 338<241.061 456.736>
LayerCount: 2
UndoRedoHistory
Layer: 1
Undoes
EndUndoes
Redoes
EndRedoes
EndUndoRedoHistory
Fore
SplineSet
265 0 m 1
 461 0 l 2
 821 0 972 102 972 346 c 0
 972 627 780 713 452 713 c 2
 265 713 l 1
 265 493 l 1
 441 493 l 2
 570 493 634 467 634 343 c 0
 634 245 580 211 441 211 c 2
 265 211 l 1
 265 0 l 1
EndSplineSet
EndChar

StartChar: cyrillic_uc_right_bowl
Encoding: 380 -1 264
Width: 0
VWidth: 0
GlyphClass: 2
Flags: W
VStem: 816 380<305.144 626.385>
LayerCount: 2
UndoRedoHistory
Layer: 1
Undoes
EndUndoes
Redoes
EndRedoes
EndUndoRedoHistory
Fore
SplineSet
437 0 m 1
 672 0 l 2
 941 0 1196 54 1196 478 c 0
 1196 792 1019 954 721 954 c 2
 437 954 l 1
 437 671 l 1
 671 671 l 2
 790 671 812 574 816 487 c 0
 822 354 790 267 675 267 c 2
 437 267 l 1
 437 0 l 1
EndSplineSet
EndChar

StartChar: d
Encoding: 100 100 265
Width: 1037
VWidth: 0
GlyphClass: 2
Flags: W
HStem: -22 226<254.5 522.654> 986 220<260 527.533>
LayerCount: 2
UndoRedoHistory
Layer: 1
Undoes
EndUndoes
Redoes
EndRedoes
EndUndoRedoHistory
Fore
SplineSet
581 0 m 1
 953 0 l 1
 953 1658 l 1
 581 1658 l 1
 581 1110.57873327 l 1
 509.510179035 1170.46776239 430.176784592 1206 341 1206 c 0
 179 1206 72 1082 72 881 c 2
 72 303 l 2
 72 97 171 -22 338 -22 c 0
 420.226966947 -22 502.172507293 20.4954167779 581 96.5284996887 c 1
 581 0 l 1
581 229.683331865 m 1
 554.772657017 213.975216376 531.30803908 204 514 204 c 0
 472 204 446 240 446 281 c 2
 446 896 l 2
 446 950 470 986 518 986 c 0
 537.066368832 986 558.52090995 979.301467978 581 968.280201324 c 1
 581 229.683331865 l 1
EndSplineSet
EndChar

StartChar: dagger
Encoding: 381 8224 266
Width: 862
VWidth: 0
GlyphClass: 2
Flags: W
LayerCount: 2
UndoRedoHistory
Layer: 1
Undoes
EndUndoes
Redoes
EndRedoes
EndUndoRedoHistory
Fore
SplineSet
292 0 m 1
 577 0 l 1
 577 977 l 1
 806 977 l 1
 806 1185 l 1
 577 1185 l 1
 577 1658 l 1
 292 1658 l 1
 292 1185 l 1
 56 1185 l 1
 56 977 l 1
 292 977 l 1
 292 0 l 1
EndSplineSet
EndChar

StartChar: daggerdbl
Encoding: 382 8225 267
Width: 862
VWidth: 0
GlyphClass: 2
Flags: W
LayerCount: 2
UndoRedoHistory
Layer: 1
Undoes
EndUndoes
Redoes
EndRedoes
EndUndoRedoHistory
Fore
SplineSet
292 0 m 1
 577 0 l 1
 577 481 l 1
 806 481 l 1
 806 674 l 1
 577 674 l 1
 577 977 l 1
 806 977 l 1
 806 1185 l 1
 577 1185 l 1
 577 1658 l 1
 292 1658 l 1
 292 1185 l 1
 56 1185 l 1
 56 977 l 1
 292 977 l 1
 292 674 l 1
 56 674 l 1
 56 481 l 1
 292 481 l 1
 292 0 l 1
EndSplineSet
EndChar

StartChar: dcroat
Encoding: 384 273 269
Width: 978
VWidth: 0
GlyphClass: 2
Flags: W
HStem: -22 226<254.5 522.654> 986 220<260 527.533>
LayerCount: 2
UndoRedoHistory
Layer: 1
Undoes
EndUndoes
Redoes
EndRedoes
EndUndoRedoHistory
Fore
SplineSet
581 0 m 1
 953 0 l 1
 953 1395 l 1
 1045 1395 l 1
 1045 1534 l 1
 953 1534 l 1
 953 1658 l 1
 581 1658 l 1
 581 1534 l 1
 293 1534 l 1
 293 1395 l 1
 581 1395 l 1
 581 1110.57873327 l 1
 509.510179035 1170.46776239 430.176784592 1206 341 1206 c 0
 179 1206 72 1082 72 881 c 2
 72 303 l 2
 72 97 171 -22 338 -22 c 0
 420.226966947 -22 502.172507293 20.4954167779 581 96.5284996887 c 1
 581 0 l 1
581 968.280201324 m 1
 581 229.683331865 l 1
 554.772657017 213.975216376 531.30803908 204 514 204 c 0
 472 204 446 240 446 281 c 2
 446 896 l 2
 446 950 470 986 518 986 c 0
 537.066368832 986 558.52090995 979.301467978 581 968.280201324 c 1
EndSplineSet
EndChar

StartChar: degree
Encoding: 385 176 270
Width: 1167
VWidth: 0
GlyphClass: 2
Flags: W
HStem: 831 192<452.7 712.558> 1489 194<452.877 712.243>
VStem: 148 224<1104.72 1405.89> 793 226<1104.22 1407.48>
LayerCount: 2
UndoRedoHistory
Layer: 1
Undoes
EndUndoes
Redoes
EndRedoes
EndUndoRedoHistory
Fore
SplineSet
582 831 m 0
 844 831 1019 1002 1019 1258 c 0
 1019 1515 841 1683 582 1683 c 0
 324 1683 148 1515 148 1258 c 0
 148 1003 323 831 582 831 c 0
582 1023 m 0
 449 1023 372 1122 372 1258 c 0
 372 1395 449 1489 582 1489 c 0
 718 1489 793 1393 793 1257 c 0
 793 1121 717 1023 582 1023 c 0
EndSplineSet
EndChar

StartChar: dieresis
Encoding: 386 168 271
Width: 886
VWidth: 0
GlyphClass: 2
Flags: W
HStem: 1330 328
LayerCount: 2
UndoRedoHistory
Layer: 1
Undoes
EndUndoes
Redoes
EndRedoes
EndUndoRedoHistory
Fore
SplineSet
540 1330 m 1
 821 1330 l 1
 821 1658 l 1
 540 1658 l 1
 540 1330 l 1
65 1330 m 1
 346 1330 l 1
 346 1658 l 1
 65 1658 l 1
 65 1330 l 1
EndSplineSet
EndChar

StartChar: divide
Encoding: 387 247 272
Width: 1012
VWidth: 0
GlyphClass: 2
Flags: W
LayerCount: 2
UndoRedoHistory
Layer: 1
Undoes
EndUndoes
Redoes
EndRedoes
EndUndoRedoHistory
Fore
SplineSet
413 1090 m 1
 628 1090 l 1
 628 1352 l 1
 413 1352 l 1
 413 1090 l 1
84 772 m 1
 928 772 l 1
 928 956 l 1
 84 956 l 1
 84 772 l 1
413 365 m 1
 628 365 l 1
 628 627 l 1
 413 627 l 1
 413 365 l 1
EndSplineSet
EndChar

StartChar: dollar
Encoding: 36 36 273
Width: 989
VWidth: 0
GlyphClass: 2
Flags: W
VStem: 32 404<1124.84 1374.88> 32 350<326.399 514> 558 409<288.788 540.707>
LayerCount: 2
UndoRedoHistory
Layer: 1
Undoes
EndUndoes
Redoes
EndRedoes
EndUndoRedoHistory
Fore
SplineSet
464 -248 m 1x60
 579 -248 l 1
 579 -22.9623413078 l 1
 820.160411546 2.37512531508 967 183.013341786 967 398 c 0
 967 634 850 776 703 907 c 2
 614 986 l 2
 533 1058 436 1131 436 1274 c 0
 436 1311 454 1387 508 1387 c 0
 576 1387 576 1307 576 1164 c 1
 934 1198 l 1
 934 1352.1305399 920.080337892 1660.30534047 574 1682.70816932 c 1
 574 1895 l 1
 457 1895 l 1
 457 1680.4472983 l 1
 198.05976685 1655.49579643 32 1499.74023236 32 1233 c 0xa0
 32 1004 147 889 277 778 c 2
 374 695 l 2
 491 595 558 515 558 379 c 0
 558 347 556 284 494 284 c 0
 433 284 382 330 382 558 c 1
 32 514 l 1
 41.4018920091 138.864508836 179.861321111 -8.21040308178 464 -24.4617550173 c 1
 464 -248 l 1x60
EndSplineSet
EndChar

StartChar: dotaccent
Encoding: 388 729 274
Width: 587
VWidth: 0
GlyphClass: 2
Flags: W
HStem: 1317 341
VStem: 145 345
LayerCount: 2
UndoRedoHistory
Layer: 1
Undoes
EndUndoes
Redoes
EndRedoes
EndUndoRedoHistory
Fore
SplineSet
145 1317 m 1
 490 1317 l 1
 490 1658 l 1
 145 1658 l 1
 145 1317 l 1
EndSplineSet
EndChar

StartChar: dotlessi
Encoding: 389 305 275
Width: 612
VWidth: 0
GlyphClass: 2
Flags: W
VStem: 120 372
LayerCount: 2
UndoRedoHistory
Layer: 1
Undoes
EndUndoes
Redoes
EndRedoes
EndUndoRedoHistory
Fore
SplineSet
120 0 m 1
 492 0 l 1
 492 1184 l 1
 120 1184 l 1
 120 0 l 1
EndSplineSet
EndChar

StartChar: e
Encoding: 101 101 276
Width: 975
VWidth: 0
GlyphClass: 2
Flags: W
HStem: -22 263<452.537 570.633> 943 263<452.537 570.633>
VStem: 72 368<245.902 349 835 938.098>
AnchorPoint: "ogonek" 588 0 basechar 0
LayerCount: 2
UndoRedoHistory
Layer: 1
Undoes
EndUndoes
Redoes
EndRedoes
EndUndoRedoHistory
Fore
SplineSet
503 -22 m 0
 751 -22 917 94 917 331 c 2
 917 474 l 1
 577 474 l 1
 577 329 l 2
 577 252 535 241 503 241 c 0
 473 241 440 263 440 337 c 2
 440 566 l 1
 917 566 l 1
 917 853 l 2
 917 1090 751 1206 503 1206 c 0
 255 1206 72 1071 72 835 c 2
 72 349 l 2
 72 113 255 -22 503 -22 c 0
577 734 m 1
 440 734 l 1
 440 847 l 2
 440 921 473 943 503 943 c 0
 535 943 577 932 577 855 c 2
 577 734 l 1
EndSplineSet
EndChar

StartChar: eight
Encoding: 56 56 283
Width: 1111
VWidth: 0
GlyphClass: 2
Flags: W
HStem: -30 278<491.043 619.91> 710 292<499.069 606.939> 1399 284<497.652 611.005>
VStem: 86.1434 379<265.98 694.745> 114.143 358<1020.02 1377.1> 634.143 358<1019.34 1387.1> 645.143 380<265.109 695.16>
LayerCount: 2
UndoRedoHistory
Layer: 1
Undoes
EndUndoes
Redoes
EndRedoes
EndUndoRedoHistory
Fore
SplineSet
555.143399439 1002 m 0xec
 503.143399439 1002 472.143399439 1064 472.143399439 1240 c 0
 472.143399439 1343 503.143399439 1399 555.143399439 1399 c 0
 603.143399439 1399 634.143399439 1343 634.143399439 1239 c 0
 634.143399439 1064 601.143399439 1002 555.143399439 1002 c 0xec
555.049640664 248 m 0
 463.049640664 248 465.143399439 400 465.143399439 469 c 0
 465.143399439 586 461.143399439 710 555.143399439 710 c 0
 650.143399439 710 646.143399439 586 645.143399439 469 c 0xe2
 645.143399439 402 648.049640664 248 555.049640664 248 c 0
555.300640664 -30 m 0
 908.300640664 -30 1034.14339944 193 1025.14339944 503 c 0xf2
 1021.14339944 650 968.143399439 813 836.143399439 873 c 1
 914.143399439 927 987.143399439 1045 992.143399439 1229 c 0
 1000.14339944 1512 846.143399439 1683 555.143399439 1683 c 0
 266.143399439 1683 106.143399439 1515 114.143399439 1229 c 0xec
 119.143399439 1045 195.143399439 929 272.143399439 873 c 1
 139.143399439 813 89.1433994393 649 86.1433994393 503 c 0xf0
 81.1433994393 195 206.300640664 -30 555.300640664 -30 c 0
EndSplineSet
EndChar

StartChar: ellipsis
Encoding: 65539 8230 284
Width: 1398
VWidth: 0
Flags: W
LayerCount: 2
UndoRedoHistory
Layer: 1
Undoes
EndUndoes
Redoes
EndRedoes
EndUndoRedoHistory
Fore
SplineSet
36 0 m 1
 384 0 l 1
 384 340 l 1
 36 340 l 1
 36 0 l 1
520 0 m 1
 868 0 l 1
 868 340 l 1
 520 340 l 1
 520 0 l 1
1014 1 m 1
 1362 1 l 1
 1362 341 l 1
 1014 341 l 1
 1014 1 l 1
EndSplineSet
EndChar

StartChar: emdash
Encoding: 397 8212 286
Width: 2048
VWidth: 0
GlyphClass: 2
Flags: W
HStem: 713 249
LayerCount: 2
UndoRedoHistory
Layer: 1
Undoes
EndUndoes
Redoes
EndRedoes
EndUndoRedoHistory
Fore
SplineSet
2 713 m 1
 2046 713 l 1
 2046 962 l 1
 2 962 l 1
 2 713 l 1
EndSplineSet
EndChar

StartChar: endash
Encoding: 398 8211 287
Width: 1024
VWidth: 0
GlyphClass: 2
Flags: W
HStem: 713 249
LayerCount: 2
UndoRedoHistory
Layer: 1
Undoes
EndUndoes
Redoes
EndRedoes
EndUndoRedoHistory
Fore
SplineSet
2 713 m 1
 1022 713 l 1
 1022 962 l 1
 2 962 l 1
 2 713 l 1
EndSplineSet
EndChar

StartChar: eng
Encoding: 399 331 288
Width: 1039
VWidth: 0
GlyphClass: 2
Flags: W
HStem: -406 224<382 571.883>
VStem: 604 372<-146.171 -10 876 941.074>
LayerCount: 2
UndoRedoHistory
Layer: 1
Undoes
EndUndoes
Redoes
EndRedoes
EndUndoRedoHistory
Fore
SplineSet
382 -406 m 1
 523 -406 l 2
 883 -406 976 -304 976 -12 c 0
 976 297.666666667 976 607.333333333 976 917 c 0
 976 1091 887 1206 742 1206 c 0
 640.84139041 1206 548.814010112 1177.46490846 457 1084.72328895 c 1
 457 1184 l 1
 85 1184 l 1
 85 0 l 1
 457 0 l 1
 457 915.602583828 l 1
 493.321683335 938.007432438 524.685847534 946.760324863 547 948 c 0
 590 950 604 924 604 876 c 0
 604 580.666666667 604 285.333333333 604 -10 c 0
 604 -151 566 -182 382 -182 c 1
 382 -406 l 1
EndSplineSet
EndChar

StartChar: equal
Encoding: 61 61 290
Width: 927
VWidth: 0
GlyphClass: 2
Flags: W
VStem: 134 659
LayerCount: 2
UndoRedoHistory
Layer: 1
Undoes
EndUndoes
Redoes
EndRedoes
EndUndoRedoHistory
Fore
SplineSet
134 881 m 1
 793 881 l 1
 793 1095 l 1
 134 1095 l 1
 134 881 l 1
134 484 m 1
 793 484 l 1
 793 698 l 1
 134 698 l 1
 134 484 l 1
EndSplineSet
EndChar

StartChar: estimated
Encoding: 65540 8494 291
Width: 984
VWidth: 0
Flags: W
HStem: -22 83<406.527 629.597> 1126 80<402.401 631.055>
VStem: 76 304<134.24 299 875 1041.69> 657 264<120.267 291 893 1063.73>
LayerCount: 2
UndoRedoHistory
Layer: 1
Undoes
EndUndoes
Redoes
EndRedoes
EndUndoRedoHistory
Fore
SplineSet
507 -22 m 0
 755 -22 921 54 921 291 c 2
 921 474 l 1
 657 474 l 1
 657 205 l 2
 657 128 642 61 517 61 c 0
 395 61 380 133 380 207 c 2
 380 566 l 1
 921 566 l 1
 921 893 l 2
 921 1130 755 1206 507 1206 c 0
 259 1206 76 1111 76 875 c 2
 76 299 l 2
 76 63 259 -22 507 -22 c 0
657 663 m 1
 380 663 l 1
 380 1007 l 2
 380 1081 402 1126 513 1126 c 0
 626 1126 657 1083 657 1006 c 2
 657 663 l 1
EndSplineSet
EndChar

StartChar: eth
Encoding: 401 240 292
Width: 1048
VWidth: 0
GlyphClass: 2
Flags: W
HStem: -34 238<459.067 577.366> 986 220<260 528.5> 1486 259<299 452>
VStem: 72 364<215.815 977.578> 588 372<210.32 367 965 982.517 1105 1327.87>
LayerCount: 2
UndoRedoHistory
Layer: 1
Undoes
EndUndoes
Redoes
EndRedoes
EndUndoRedoHistory
Fore
SplineSet
514 204 m 0
 436 204 436 289 436 594 c 0
 436 949 436 986 518 986 c 0
 539 986 563 978 588 965 c 1
 588 324 l 2
 588 247 569 204 514 204 c 0
515 -34 m 0
 737 -34 960 73 960 367 c 2
 960 1054 l 2
 960 1342 876 1483 826 1552 c 1
 971 1648 l 1
 913 1731 l 1
 758 1625 l 1
 676 1700 519 1745 299 1745 c 1
 281 1486 l 1
 424 1481 446 1457 457 1440 c 1
 336 1368 l 1
 393 1291 l 1
 515 1370 l 1
 536 1346 588 1281 588 1105 c 1
 515 1168 433 1206 341 1206 c 0
 179 1206 72 1082 72 881 c 2
 72 323 l 2
 72 72 293 -34 515 -34 c 0
EndSplineSet
EndChar

StartChar: exclam
Encoding: 33 33 293
Width: 507
VWidth: 0
GlyphClass: 2
Flags: W
VStem: 180 129<446 573.127>
LayerCount: 2
UndoRedoHistory
Layer: 1
Undoes
EndUndoes
Redoes
EndRedoes
EndUndoRedoHistory
Fore
SplineSet
180 446 m 1
 309 446 l 1
 445 1652 l 1
 76 1652 l 1
 180 446 l 1
68 0 m 1
 414 0 l 1
 414 340 l 1
 68 340 l 1
 68 0 l 1
EndSplineSet
EndChar

StartChar: exclamdown
Encoding: 402 161 294
Width: 507
VWidth: 0
GlyphClass: 2
Flags: W
VStem: 203 129<775.873 903>
LayerCount: 2
UndoRedoHistory
Layer: 1
Undoes
EndUndoes
Redoes
EndRedoes
EndUndoRedoHistory
Fore
SplineSet
332 903 m 1
 203 903 l 1
 67 -303 l 1
 436 -303 l 1
 332 903 l 1
444 1349 m 1
 98 1349 l 1
 98 1009 l 1
 444 1009 l 1
 444 1349 l 1
EndSplineSet
EndChar

StartChar: f
Encoding: 102 102 295
Width: 643
VWidth: 0
GlyphClass: 2
Flags: W
HStem: 1348 277<312 631>
VStem: 16 615
LayerCount: 2
UndoRedoHistory
Layer: 1
Undoes
EndUndoes
Redoes
EndRedoes
EndUndoRedoHistory
Fore
SplineSet
119 0 m 1
 491 0 l 1
 491 926 l 1
 631 926 l 1
 631 1184 l 1
 491 1184 l 1
 491 1278 l 2
 491 1334 526 1348 564 1348 c 0
 588 1348 613 1342 631 1339 c 1
 631 1615 l 1
 569 1622 515 1625 467 1625 c 0
 157 1625 119 1486 119 1282 c 2
 119 1184 l 1
 16 1184 l 1
 16 926 l 1
 119 926 l 1
 119 0 l 1
EndSplineSet
EndChar

StartChar: five
Encoding: 53 53 296
Width: 1112
VWidth: 0
GlyphClass: 2
Flags: W
VStem: 109 368<267.374 493> 665 356<260.967 802.559>
LayerCount: 2
UndoRedoHistory
Layer: 1
Undoes
EndUndoes
Redoes
EndRedoes
EndUndoRedoHistory
Fore
SplineSet
553 -35 m 0
 963 -35 1021 217 1021 577 c 0
 1021 959 867 1155 619 1120 c 0
 535 1108 450 1077 430 1047 c 1
 451 1351 l 1
 945 1351 l 1
 945 1658 l 1
 150 1658 l 1
 110 681 l 1
 444 681 l 1
 457 795 493 837 556 837 c 0
 647 837 665 716 665 574 c 0
 665 361 664 251 582 245 c 0
 499 239 477 286 477 493 c 1
 109 493 l 1
 109 182 168 -35 553 -35 c 0
EndSplineSet
EndChar

StartChar: florin
Encoding: 65541 402 297
Width: 1001
VWidth: 0
Flags: W
HStem: -412 277<86.585 380.372> 1348 277<601.628 895.415>
LayerCount: 2
UndoRedoHistory
Layer: 1
Undoes
EndUndoes
Redoes
EndRedoes
EndUndoRedoHistory
Fore
SplineSet
222 -412 m 0
 532 -412 585 -273 606 -69 c 2
 711 926 l 1
 861 926 l 1
 861 1184 l 1
 738 1184 l 1
 748 1278 l 2
 753 1334 790 1348 828 1348 c 0
 852 1348 876 1342 894 1339 c 1
 923 1615 l 1
 862 1622 808 1625 760 1625 c 0
 450 1625 397 1486 376 1282 c 2
 366 1184 l 1
 229 1184 l 1
 229 926 l 1
 339 926 l 1
 234 -65 l 2
 229 -121 192 -135 154 -135 c 0
 130 -135 106 -129 88 -126 c 1
 59 -402 l 1
 120 -409 174 -412 222 -412 c 0
EndSplineSet
EndChar

StartChar: foundryicon
Encoding: 403 -1 298
Width: 1559
VWidth: 0
GlyphClass: 2
Flags: W
LayerCount: 2
UndoRedoHistory
Layer: 1
Undoes
EndUndoes
Redoes
EndRedoes
EndUndoRedoHistory
Fore
SplineSet
361 249 m 1
 774 544 l 1
 1196 249 l 1
 1043 737 l 1
 1458 1051 l 1
 943 1051 l 1
 774 1539 l 1
 614 1051 l 1
 99 1041 l 1
 512 737 l 1
 361 249 l 1
EndSplineSet
EndChar

StartChar: four
Encoding: 52 52 299
Width: 1112
VWidth: 0
GlyphClass: 2
Flags: W
LayerCount: 2
UndoRedoHistory
Layer: 1
Undoes
EndUndoes
Redoes
EndRedoes
EndUndoRedoHistory
Fore
SplineSet
376 643 m 1
 579 1189 l 1
 579 643 l 1
 376 643 l 1
579 0 m 1
 913 0 l 1
 913 364 l 1
 1062 364 l 1
 1062 643 l 1
 913 643 l 1
 913 1658 l 1
 497 1658 l 1
 62 628 l 1
 62 364 l 1
 579 364 l 1
 579 0 l 1
EndSplineSet
EndChar

StartChar: fraction
Encoding: 404 8260 300
Width: 639
VWidth: 0
GlyphClass: 2
Flags: W
LayerCount: 2
UndoRedoHistory
Layer: 1
Undoes
EndUndoes
Redoes
EndRedoes
EndUndoRedoHistory
Fore
SplineSet
0 0 m 1
 256 0 l 1
 639 1658 l 1
 384 1658 l 1
 0 0 l 1
EndSplineSet
EndChar

StartChar: g
Encoding: 103 103 301
Width: 1055
VWidth: 0
GlyphClass: 2
Flags: W
HStem: -352 217<412.256 712.055> 368 213<465.589 586.387> 992 214<463.922 589.294>
VStem: 42 353<-224.908 -3.9043> 73 378<587.881 986.136> 602 358<590.663 972.45>
LayerCount: 2
UndoRedoHistory
Layer: 1
Undoes
EndUndoes
Redoes
EndRedoes
EndUndoRedoHistory
Fore
SplineSet
525 581 m 0xec
 457 581 451 651 451 787 c 0
 451 916 447 992 523 992 c 0
 599 992 602 937 602 787 c 0
 602 641 593 581 525 581 c 0xec
561 -135 m 0
 446 -135 395 -106 395 -50 c 0xf4
 395 -16 414 24 434 57 c 1
 606 32 l 2
 696 19 732 -2 720 -74 c 0
 713 -119 664 -135 561 -135 c 0
561 -352 m 0
 917 -352 1015 -207 1015 -39 c 0
 1015 118 946 205 689 243 c 0
 570 260.5 472.5 272.75 403.625 285 c 0
 334.75 297.25 294.5 309.5 290 327 c 0
 284 350 301 379 328 411 c 1
 387 385 467 368 548 368 c 0
 824 368 960 523 960 770 c 0
 960 899 923 969 892 1007 c 1
 959 1046 1056 1094 1089 1106 c 1
 1004 1273 l 1
 957 1249 l 1
 901 1218 844 1166 796 1112 c 1
 737 1174 628 1206 516 1206 c 0
 247 1206 73 1074 73 765 c 0xec
 73 627 126 545 199 493 c 1
 109 423 25 349 49 246 c 0
 61 194 101 157 212 113 c 1
 138 56 42 -22 42 -110 c 0
 42 -335 387 -352 561 -352 c 0
EndSplineSet
EndChar

StartChar: gcommaaccent
Encoding: 505 291 304
Width: 901
VWidth: 0
GlyphClass: 2
Flags: W
HStem: -352 217<412.256 712.055> 368 213<465.589 586.387> 992 214<463.922 589.294> 2001 111<587.436 671>
VStem: 42 353<-224.908 -3.9043> 73 378<587.881 986.136> 380.335 150.665<1821 1944.3> 602 358<590.663 972.45>
LayerCount: 2
UndoRedoHistory
Layer: 1
Undoes
EndUndoes
Redoes
EndRedoes
EndUndoRedoHistory
Fore
SplineSet
671 2112 m 1xf3
 477.616210938 2110.42089844 381 1988 380.334960938 1766 c 2
 380 1480 l 1
 725 1480 l 1
 725 1821 l 1
 531 1821 l 1
 531 1951 614 1985 686 2001 c 1
 671 2112 l 1xf3
525 581 m 0
 457 581 451 651 451 787 c 0xf5
 451 916 447 992 523 992 c 0
 599 992 602 937 602 787 c 0
 602 641 593 581 525 581 c 0
561 -135 m 0
 446 -135 395 -106 395 -50 c 0xf9
 395 -16 414 24 434 57 c 1
 606 32 l 2
 696 19 732 -2 720 -74 c 0
 713 -119 664 -135 561 -135 c 0
561 -352 m 0
 917 -352 1015 -207 1015 -39 c 0
 1015 118 946 205 689 243 c 0
 570 260.5 472.5 272.75 403.625 285 c 0
 334.75 297.25 294.5 309.5 290 327 c 0
 284 350 301 379 328 411 c 1
 387 385 467 368 548 368 c 0
 824 368 960 523 960 770 c 0
 960 899 923 969 892 1007 c 1
 959 1046 1056 1094 1089 1106 c 1
 1004 1273 l 1
 957 1249 l 1
 901 1218 844 1166 796 1112 c 1
 737 1174 628 1206 516 1206 c 0
 247 1206 73 1074 73 765 c 0xf5
 73 627 126 545 199 493 c 1
 109 423 25 349 49 246 c 0
 61 194 101 157 212 113 c 1
 138 56 42 -22 42 -110 c 0
 42 -335 387 -352 561 -352 c 0
EndSplineSet
EndChar

StartChar: germandbls
Encoding: 408 223 306
Width: 1129
VWidth: 0
GlyphClass: 2
Flags: W
HStem: 1437 249<489.387 649.007>
VStem: 694 306<1051.62 1390.38>
LayerCount: 2
UndoRedoHistory
Layer: 1
Undoes
EndUndoes
Redoes
EndRedoes
EndUndoRedoHistory
Fore
SplineSet
456.981008387 1215.68359375 m 0
 453.416785131 1345.79129596 482.000611938 1437 565 1437 c 0
 629 1437 694 1376 694 1224 c 0
 694 1051.93 639 986 560 986 c 1
 564 704 l 1
 641 704 721.65 623.602 731 514 c 0
 749 303 657 243 541 243 c 1
 541 -35 l 1
 879 -35 1101 92 1101 459 c 0
 1101 652 968 818 744 883 c 1
 933 954 1000 1084 1000 1232 c 0
 1000 1515 863 1686 535 1686 c 0
 215.738538504 1686 100.395582756 1469.00979516 86.4692791369 1259.55725533 c 0
 85.4927259921 1244.86983058 85.0148613057 1230.21947022 85 1215.68359375 c 2
 85 0 l 1
 457 0 l 1
 457 1215 l 1
 456.981008387 1215.68359375 l 0
EndSplineSet
EndChar

StartChar: grave
Encoding: 96 96 307
Width: 650
VWidth: 0
GlyphClass: 2
Flags: W
HStem: 1243 415
LayerCount: 2
UndoRedoHistory
Layer: 1
Undoes
EndUndoes
Redoes
EndRedoes
EndUndoRedoHistory
Fore
SplineSet
339 1243 m 1
 582 1243 l 1
 455 1658 l 1
 71 1658 l 1
 339 1243 l 1
EndSplineSet
EndChar

StartChar: gravecomb
Encoding: 586 768 308
Width: 650
VWidth: 0
GlyphClass: 2
Flags: W
HStem: 1243 415
LayerCount: 2
UndoRedoHistory
Layer: 1
Undoes
EndUndoes
Redoes
EndRedoes
EndUndoRedoHistory
Fore
SplineSet
339 1243 m 1
 582 1243 l 1
 455 1658 l 1
 71 1658 l 1
 339 1243 l 1
EndSplineSet
EndChar

StartChar: greater
Encoding: 62 62 309
Width: 833
VWidth: 0
GlyphClass: 2
Flags: W
LayerCount: 2
UndoRedoHistory
Layer: 1
Undoes
EndUndoes
Redoes
EndRedoes
EndUndoRedoHistory
Fore
SplineSet
109 252 m 1
 760 705 l 1
 760 975 l 1
 109 1430 l 1
 109 1116 l 1
 495 842 l 1
 109 564 l 1
 109 252 l 1
EndSplineSet
EndChar

StartChar: greaterequal
Encoding: 65542 8805 310
Width: 883
VWidth: 0
Flags: W
LayerCount: 2
UndoRedoHistory
Layer: 1
Undoes
EndUndoes
Redoes
EndRedoes
EndUndoRedoHistory
Fore
SplineSet
88 19 m 1
 798 19 l 1
 798 262 l 1
 88 262 l 1
 88 19 l 1
109 353 m 1
 760 806 l 1
 760 1076 l 1
 109 1531 l 1
 109 1217 l 1
 495 943 l 1
 109 665 l 1
 109 353 l 1
EndSplineSet
EndChar

StartChar: guillemotleft
Encoding: 409 171 311
Width: 1020
VWidth: 0
GlyphClass: 2
Flags: W
LayerCount: 2
UndoRedoHistory
Layer: 1
Undoes
EndUndoes
Redoes
EndRedoes
EndUndoRedoHistory
Fore
SplineSet
964 74 m 1
 964 409 l 1
 741 615 l 1
 964 823 l 1
 964 1158 l 1
 537 674 l 1
 537 558 l 1
 964 74 l 1
506 74 m 1
 506 409 l 1
 284 615 l 1
 506 823 l 1
 506 1158 l 1
 80 674 l 1
 80 558 l 1
 506 74 l 1
EndSplineSet
EndChar

StartChar: guillemotright
Encoding: 410 187 312
Width: 1020
VWidth: 0
GlyphClass: 2
Flags: W
LayerCount: 2
UndoRedoHistory
Layer: 1
Undoes
EndUndoes
Redoes
EndRedoes
EndUndoRedoHistory
Fore
SplineSet
540 74 m 1
 966 558 l 1
 966 674 l 1
 540 1158 l 1
 540 823 l 1
 762 617 l 1
 540 409 l 1
 540 74 l 1
82 74 m 1
 509 558 l 1
 509 674 l 1
 82 1158 l 1
 82 823 l 1
 305 617 l 1
 82 409 l 1
 82 74 l 1
EndSplineSet
EndChar

StartChar: guilsinglleft
Encoding: 411 8249 313
Width: 600
VWidth: 0
GlyphClass: 2
Flags: W
LayerCount: 2
UndoRedoHistory
Layer: 1
Undoes
EndUndoes
Redoes
EndRedoes
EndUndoRedoHistory
Fore
SplineSet
502 34 m 1
 502 369 l 1
 289 578 l 1
 502 783 l 1
 502 1118 l 1
 74 674 l 1
 74 478 l 1
 502 34 l 1
EndSplineSet
EndChar

StartChar: guilsinglright
Encoding: 412 8250 314
Width: 555
VWidth: 0
GlyphClass: 2
Flags: W
LayerCount: 2
UndoRedoHistory
Layer: 1
Undoes
EndUndoes
Redoes
EndRedoes
EndUndoRedoHistory
Fore
SplineSet
71 34 m 1
 499 518 l 1
 499 634 l 1
 71 1118 l 1
 71 783 l 1
 294 577 l 1
 71 369 l 1
 71 34 l 1
EndSplineSet
EndChar

StartChar: h
Encoding: 104 104 315
Width: 1049
VWidth: 0
GlyphClass: 2
Flags: W
LayerCount: 2
UndoRedoHistory
Layer: 1
Undoes
EndUndoes
Redoes
EndRedoes
EndUndoRedoHistory
Fore
SplineSet
603 0 m 1
 975 0 l 1
 975 917 l 2
 975 1091 886 1206 741 1206 c 0
 639.84139041 1206 547.814010112 1177.46490846 456 1084.72328895 c 1
 456 1658 l 1
 84 1658 l 1
 84 0 l 1
 456 0 l 1
 456 915.602583828 l 1
 492.321683335 938.007432438 523.685847534 946.760324863 546 948 c 0
 589 950 603 924 603 876 c 2
 603 0 l 1
EndSplineSet
EndChar

StartChar: hbar
Encoding: 413 295 316
Width: 1064
VWidth: 0
GlyphClass: 2
Flags: W
LayerCount: 2
UndoRedoHistory
Layer: 1
Undoes
EndUndoes
Redoes
EndRedoes
EndUndoRedoHistory
Fore
SplineSet
84 0 m 1
 456 0 l 1
 456 915.602583828 l 1
 492.321683335 938.007432438 523.685847534 946.760324863 546 948 c 0
 589 950 603 924 603 876 c 2
 603 0 l 1
 975 0 l 1
 975 917 l 2
 975 1091 886 1206 741 1206 c 0
 639.84139041 1206 547.814010112 1177.46490846 456 1084.72328895 c 1
 456 1361 l 1
 692 1361 l 1
 692 1524 l 1
 456 1524 l 1
 456 1658 l 1
 84 1658 l 1
 84 1524 l 1
 0 1524 l 1
 0 1361 l 1
 84 1361 l 1
 84 0 l 1
EndSplineSet
EndChar

StartChar: hungarumlaut
Encoding: 415 733 318
Width: 1016
VWidth: 0
GlyphClass: 2
Flags: W
HStem: 1184 474
LayerCount: 2
UndoRedoHistory
Layer: 1
Undoes
EndUndoes
Redoes
EndRedoes
EndUndoRedoHistory
Fore
SplineSet
455 1184 m 1
 650 1184 l 1
 903 1658 l 1
 591 1658 l 1
 455 1184 l 1
57 1184 m 1
 248 1184 l 1
 495 1658 l 1
 192 1658 l 1
 57 1184 l 1
EndSplineSet
EndChar

StartChar: hyphen
Encoding: 45 45 319
Width: 460
VWidth: 0
GlyphClass: 2
Flags: W
HStem: 713 249
VStem: 2 456
LayerCount: 2
UndoRedoHistory
Layer: 1
Undoes
EndUndoes
Redoes
EndRedoes
EndUndoRedoHistory
Fore
SplineSet
2 713 m 1
 458 713 l 1
 458 962 l 1
 2 962 l 1
 2 713 l 1
EndSplineSet
EndChar

StartChar: i
Encoding: 105 105 320
Width: 544
VWidth: 0
GlyphClass: 2
Flags: W
LayerCount: 2
UndoRedoHistory
Layer: 1
Undoes
EndUndoes
Redoes
EndRedoes
EndUndoRedoHistory
Fore
SplineSet
85 1391 m 1
 459 1391 l 1
 459 1626 l 1
 85 1626 l 1
 85 1391 l 1
87 0 m 1
 459 0 l 1
 459 1184 l 1
 87 1184 l 1
 87 0 l 1
EndSplineSet
EndChar

StartChar: ij
Encoding: 421 307 326
Width: 1083
VWidth: 0
GlyphClass: 2
Flags: W
HStem: -393 289<518.946 821.5>
LayerCount: 2
UndoRedoHistory
Layer: 1
Undoes
EndUndoes
Redoes
EndRedoes
EndUndoRedoHistory
Fore
SplineSet
654 1391 m 1
 1028 1391 l 1
 1028 1626 l 1
 654 1626 l 1
 654 1391 l 1
517 -362 m 1
 580 -379 645 -393 717 -393 c 0
 926 -393 1028 -253 1028 -65 c 2
 1028 1184 l 1
 656 1184 l 1
 656 -19 l 2
 656 -86 619 -104 576 -104 c 0
 557 -104 537 -99 517 -95 c 1
 517 -362 l 1
87 0 m 1
 459 0 l 1
 459 1184 l 1
 87 1184 l 1
 87 0 l 1
85 1391 m 1
 459 1391 l 1
 459 1626 l 1
 85 1626 l 1
 85 1391 l 1
EndSplineSet
EndChar

StartChar: infinity
Encoding: 65543 8734 328
Width: 1316
VWidth: 0
Flags: W
HStem: 183 283<296.11 465.805> 732 283<296.11 470.936>
VStem: 44 229<477.05 720.95> 1029 243<480.297 717.703>
LayerCount: 2
UndoRedoHistory
Layer: 1
Undoes
EndUndoes
Redoes
EndRedoes
EndUndoRedoHistory
Fore
SplineSet
965 473 m 0
 891 467 806 528 725 599 c 1
 806 670 891 731 965 725 c 0
 978 724 1029 706 1029 599 c 0
 1029 492 978 474 965 473 c 0
353 466 m 0
 317 465 273 490 273 599 c 0
 273 708 317 733 353 732 c 0
 422 731 510 667 591 599 c 1
 510 531 412 467 353 466 c 0
352 183 m 0
 473 183 579 281 657 368 c 1
 739 290 859 205 953 206 c 1
 1149 206 1272 401 1272 599 c 0
 1272 797 1149 992 953 992 c 1
 859 993 739 908 657 830 c 1
 579 917 473 1015 352 1015 c 0
 143 1015 44 795 44 599 c 0
 44 403 143 183 352 183 c 0
EndSplineSet
EndChar

StartChar: integral
Encoding: 65544 8747 329
Width: 688
VWidth: 0
Flags: W
HStem: -390 277<12 331> 1403 277<345 664>
VStem: 12 652
LayerCount: 2
UndoRedoHistory
Layer: 1
Undoes
EndUndoes
Redoes
EndRedoes
EndUndoRedoHistory
Fore
SplineSet
176 -390 m 0
 486 -390 524 -251 524 -47 c 2
 524 1333 l 2
 524 1389 559 1403 597 1403 c 0
 621 1403 646 1397 664 1394 c 1
 664 1670 l 1
 602 1677 548 1680 500 1680 c 0
 190 1680 152 1541 152 1337 c 2
 152 -43 l 2
 152 -99 117 -113 79 -113 c 0
 55 -113 30 -107 12 -104 c 1
 12 -380 l 1
 74 -387 128 -390 176 -390 c 0
EndSplineSet
EndChar

StartChar: j
Encoding: 106 106 332
Width: 579
VWidth: 0
GlyphClass: 2
Flags: W
HStem: -393 289<-15.0539 287.5>
LayerCount: 2
UndoRedoHistory
Layer: 1
Undoes
EndUndoes
Redoes
EndRedoes
EndUndoRedoHistory
Fore
SplineSet
120 1391 m 1
 494 1391 l 1
 494 1626 l 1
 120 1626 l 1
 120 1391 l 1
-17 -362 m 1
 46 -379 111 -393 183 -393 c 0
 392 -393 494 -253 494 -65 c 2
 494 1184 l 1
 122 1184 l 1
 122 -19 l 2
 122 -86 85 -104 42 -104 c 0
 23 -104 3 -99 -17 -95 c 1
 -17 -362 l 1
EndSplineSet
EndChar

StartChar: k
Encoding: 107 107 334
Width: 1175
VWidth: 0
GlyphClass: 2
Flags: W
LayerCount: 2
UndoRedoHistory
Layer: 1
Undoes
EndUndoes
Redoes
EndRedoes
EndUndoRedoHistory
Fore
SplineSet
738 0 m 1
 1163 0 l 1
 845 679 l 1
 1164 1184 l 1
 713 1184 l 1
 458 773.099526066 l 1
 458 1658 l 1
 86 1658 l 1
 86 0 l 1
 458 0 l 1
 458 455.694339623 l 1
 544 555 l 1
 738 0 l 1
EndSplineSet
EndChar

StartChar: kgreenlandic
Encoding: 427 312 336
Width: 1085
VWidth: 0
GlyphClass: 2
Flags: W
LayerCount: 2
UndoRedoHistory
Layer: 1
Undoes
EndUndoes
Redoes
EndRedoes
EndUndoRedoHistory
Fore
SplineSet
675 0 m 1
 1071 0 l 1
 832 630 l 1
 1064 1184 l 1
 658 1184 l 1
 457 699.390052356 l 1
 457 1184 l 1
 85 1184 l 1
 85 0 l 1
 457 0 l 1
 457 490.467592593 l 1
 492 536 l 1
 675 0 l 1
EndSplineSet
EndChar

StartChar: l
Encoding: 108 108 337
Width: 541
VWidth: 0
GlyphClass: 2
Flags: W
VStem: 88 372
LayerCount: 2
UndoRedoHistory
Layer: 1
Undoes
EndUndoes
Redoes
EndRedoes
EndUndoRedoHistory
Fore
SplineSet
88 0 m 1
 460 0 l 1
 460 1658 l 1
 88 1658 l 1
 88 0 l 1
EndSplineSet
EndChar

StartChar: lc_ascender_stem
Encoding: 429 -1 339
Width: 450
VWidth: 0
GlyphClass: 2
Flags: W
VStem: 75 372
LayerCount: 2
UndoRedoHistory
Layer: 1
Undoes
EndUndoes
Redoes
EndRedoes
EndUndoRedoHistory
Fore
SplineSet
75 0 m 1
 447 0 l 1
 447 1658 l 1
 75 1658 l 1
 75 0 l 1
EndSplineSet
EndChar

StartChar: lc_descender_stem
Encoding: 430 -1 340
Width: 450
VWidth: 0
GlyphClass: 2
Flags: W
VStem: 77 372
LayerCount: 2
UndoRedoHistory
Layer: 1
Undoes
EndUndoes
Redoes
EndRedoes
EndUndoRedoHistory
Fore
SplineSet
77 -390 m 1
 449 -390 l 1
 449 1184 l 1
 77 1184 l 1
 77 -390 l 1
EndSplineSet
EndChar

StartChar: lc_horiz_bar
Encoding: 65545 -1 341
Width: 500
VWidth: 0
GlyphClass: 2
Flags: W
HStem: 0 316
LayerCount: 2
UndoRedoHistory
Layer: 1
Undoes
EndUndoes
Redoes
EndRedoes
EndUndoRedoHistory
Fore
SplineSet
82 0 m 1
 845 0 l 1
 845 316 l 1
 82 316 l 1
 82 0 l 1
EndSplineSet
EndChar

StartChar: lc_left_curve
Encoding: 431 -1 342
Width: 1022
VWidth: 0
GlyphClass: 2
Flags: W
HStem: -22 226<527.5 818> 986 220<533 830.5>
LayerCount: 2
UndoRedoHistory
Layer: 1
Undoes
EndUndoes
Redoes
EndRedoes
EndUndoRedoHistory
Fore
SplineSet
611 -22 m 0
 766 -22 920 129 1054 371 c 1
 1054 393 l 1
 990 332 849 204 787 204 c 0
 745 204 719 240 719 281 c 2
 719 896 l 2
 719 950 743 986 791 986 c 0
 870 986 990 871 1054 810 c 1
 1054 857 l 1
 937 1058 796 1206 614 1206 c 0
 452 1206 345 1082 345 881 c 2
 345 303 l 2
 345 97 444 -22 611 -22 c 0
EndSplineSet
EndChar

StartChar: lc_right_curve
Encoding: 432 -1 343
Width: 1022
VWidth: 0
GlyphClass: 2
Flags: W
LayerCount: 2
UndoRedoHistory
Layer: 1
Undoes
EndUndoes
Redoes
EndRedoes
EndUndoRedoHistory
Fore
SplineSet
717 -22 m 0
 862 -22 963 93 963 303 c 2
 963 890 l 2
 963 1100 871 1199 717 1206 c 0
 583 1212 401 1114 265 866 c 1
 265 772 l 1
 329 867 459 987 517 996 c 0
 562 1003 590 966 590 925 c 2
 590 279 l 2
 590 238 562 206 517 207 c 0
 446 209 329 328 265 389 c 1
 265 308 l 1
 389 106 563 -22 717 -22 c 0
EndSplineSet
EndChar

StartChar: lc_xheight_curve_stem
Encoding: 433 -1 344
Width: 962
VWidth: 0
GlyphClass: 2
Flags: W
LayerCount: 2
UndoRedoHistory
Layer: 1
Undoes
EndUndoes
Redoes
EndRedoes
EndUndoRedoHistory
Fore
SplineSet
584 0 m 1
 956 0 l 1
 956 917 l 2
 956 1091 867 1206 722 1206 c 0
 558 1206 418 1131 264 829 c 1
 264 720 l 1
 366 898 473 945 527 948 c 0
 570 950 584 924 584 876 c 2
 584 0 l 1
EndSplineSet
EndChar

StartChar: lc_xheight_stem
Encoding: 434 -1 345
Width: 962
VWidth: 0
GlyphClass: 2
Flags: W
VStem: 77 372
LayerCount: 2
UndoRedoHistory
Layer: 1
Undoes
EndUndoes
Redoes
EndRedoes
EndUndoRedoHistory
Fore
SplineSet
77 0 m 1
 449 0 l 1
 449 1184 l 1
 77 1184 l 1
 77 0 l 1
EndSplineSet
EndChar

StartChar: less
Encoding: 60 60 349
Width: 833
VWidth: 0
GlyphClass: 2
Flags: W
LayerCount: 2
UndoRedoHistory
Layer: 1
Undoes
EndUndoes
Redoes
EndRedoes
EndUndoRedoHistory
Fore
SplineSet
716 252 m 1
 716 564 l 1
 330 842 l 1
 716 1116 l 1
 716 1430 l 1
 66 975 l 1
 66 705 l 1
 716 252 l 1
EndSplineSet
EndChar

StartChar: lessequal
Encoding: 65546 8804 350
Width: 833
VWidth: 0
Flags: W
LayerCount: 2
UndoRedoHistory
Layer: 1
Undoes
EndUndoes
Redoes
EndRedoes
EndUndoRedoHistory
Fore
SplineSet
60 0 m 1
 770 0 l 1
 770 243 l 1
 60 243 l 1
 60 0 l 1
746 359 m 1
 746 671 l 1
 360 949 l 1
 746 1223 l 1
 746 1537 l 1
 96 1082 l 1
 96 812 l 1
 746 359 l 1
EndSplineSet
EndChar

StartChar: logicalnot
Encoding: 438 172 351
Width: 1099
VWidth: 0
GlyphClass: 2
Flags: W
HStem: 384 599
LayerCount: 2
UndoRedoHistory
Layer: 1
Undoes
EndUndoes
Redoes
EndRedoes
EndUndoRedoHistory
Fore
SplineSet
805 384 m 1
 987 384 l 1
 987 983 l 1
 100 983 l 1
 100 740 l 1
 805 740 l 1
 805 384 l 1
EndSplineSet
EndChar

StartChar: lozenge
Encoding: 65547 9674 352
Width: 1012
VWidth: 0
Flags: W
LayerCount: 2
UndoRedoHistory
Layer: 1
Undoes
EndUndoes
Redoes
EndRedoes
EndUndoRedoHistory
Fore
SplineSet
499 240 m 1
 298 594 l 1
 498 932 l 1
 711 594 l 1
 499 240 l 1
434 0 m 1
 560 0 l 1
 940 594 l 1
 560 1184 l 1
 434 1184 l 1
 72 594 l 1
 434 0 l 1
EndSplineSet
EndChar

StartChar: lslash
Encoding: 439 322 353
Width: 730
VWidth: 0
GlyphClass: 2
Flags: W
VStem: 44 673
LayerCount: 2
UndoRedoHistory
Layer: 1
Undoes
EndUndoes
Redoes
EndRedoes
EndUndoRedoHistory
Fore
SplineSet
178 0 m 1
 550 0 l 1
 550 1002.7756315 l 1
 717 1073 l 1
 717 1265 l 1
 550 1194.7756315 l 1
 550 1658 l 1
 178 1658 l 1
 178 1038.34769688 l 1
 44 982 l 1
 44 790 l 1
 178 846.34769688 l 1
 178 0 l 1
EndSplineSet
EndChar

StartChar: m
Encoding: 109 109 354
Width: 1549
VWidth: 0
GlyphClass: 2
Flags: W
LayerCount: 2
UndoRedoHistory
Layer: 1
Undoes
EndUndoes
Redoes
EndRedoes
EndUndoRedoHistory
Fore
SplineSet
85 0 m 1
 457 0 l 1
 457 920.937280319 l 1
 489.500712843 939.417926385 517.550651421 946.863925079 538 948 c 0
 581 950 595 924 595 876 c 2
 595 0 l 1
 967 0 l 1
 967 917 l 2
 967 919.239581845 966.985255658 921.469389351 966.955837448 923.689302913 c 1
 997.352614496 940.163730234 1023.59747778 946.9220823 1043 948 c 0
 1086 950 1100 924 1100 876 c 2
 1100 0 l 1
 1472 0 l 1
 1472 917 l 2
 1472 1091 1383 1206 1238 1206 c 0
 1131.49970812 1206 1035.12045625 1174.37174997 938.455750182 1069.4892731 c 1
 901.315840894 1154.98040895 829.580081747 1206 733 1206 c 0
 635.146357731 1206 545.83703608 1179.29899807 457 1093.60885403 c 1
 457 1184 l 1
 85 1184 l 1
 85 0 l 1
EndSplineSet
EndChar

StartChar: macron
Encoding: 440 175 355
Width: 278
VWidth: 0
GlyphClass: 2
Flags: W
HStem: 1495 163
VStem: -138 562
LayerCount: 2
UndoRedoHistory
Layer: 1
Undoes
EndUndoes
Redoes
EndRedoes
EndUndoRedoHistory
Fore
SplineSet
-138 1495 m 1
 424 1495 l 1
 424 1658 l 1
 -138 1658 l 1
 -138 1495 l 1
EndSplineSet
EndChar

StartChar: minus
Encoding: 441 8722 356
Width: 1026
VWidth: 0
GlyphClass: 2
Flags: W
HStem: 668 243
LayerCount: 2
UndoRedoHistory
Layer: 1
Undoes
EndUndoes
Redoes
EndRedoes
EndUndoRedoHistory
Fore
SplineSet
158 668 m 1
 868 668 l 1
 868 911 l 1
 158 911 l 1
 158 668 l 1
EndSplineSet
EndChar

StartChar: mu
Encoding: 442 181 357
Width: 1042
VWidth: 0
GlyphClass: 2
Flags: W
LayerCount: 2
UndoRedoHistory
Layer: 1
Undoes
EndUndoes
Redoes
EndRedoes
EndUndoRedoHistory
Fore
SplineSet
450 1184 m 1
 78 1184 l 1
 78 267 l 2
 78 256.310714793 78.3358836314 245.844094016 79 235.613121004 c 2
 79 -391 l 1
 450 -391 l 1
 450 0.794641560488 l 1
 495.818421671 17.6915257185 540.479907494 45.2459133301 585 87.5199745144 c 1
 585 0 l 1
 957 0 l 1
 957 1184 l 1
 585 1184 l 1
 585 261.381018125 l 1
 553.773043235 244.127931806 526.817458254 237.100969903 507 236 c 0
 464 234 450 260 450 308 c 2
 450 1184 l 1
EndSplineSet
EndChar

StartChar: multiply
Encoding: 443 215 358
Width: 1068
VWidth: 0
GlyphClass: 2
Flags: W
LayerCount: 2
UndoRedoHistory
Layer: 1
Undoes
EndUndoes
Redoes
EndRedoes
EndUndoRedoHistory
Fore
SplineSet
792 445 m 1
 955 610 l 1
 699 866 l 1
 955 1123 l 1
 790 1286 l 1
 535 1031 l 1
 279 1286 l 1
 114 1120 l 1
 370 866 l 1
 114 610 l 1
 280 445 l 1
 535 701 l 1
 792 445 l 1
EndSplineSet
EndChar

StartChar: n
Encoding: 110 110 359
Width: 1053
VWidth: 0
GlyphClass: 2
Flags: W
LayerCount: 2
UndoRedoHistory
Layer: 1
Undoes
EndUndoes
Redoes
EndRedoes
EndUndoRedoHistory
Fore
SplineSet
85 0 m 1
 457 0 l 1
 457 915.602583828 l 1
 493.321683335 938.007432438 524.685847534 946.760324863 547 948 c 0
 590 950 604 924 604 876 c 2
 604 0 l 1
 976 0 l 1
 976 917 l 2
 976 1091 887 1206 742 1206 c 0
 640.84139041 1206 548.814010112 1177.46490846 457 1084.72328895 c 1
 457 1184 l 1
 85 1184 l 1
 85 0 l 1
EndSplineSet
EndChar

StartChar: nine
Encoding: 57 57 363
Width: 1112
VWidth: 0
GlyphClass: 2
Flags: W
HStem: -27 284<482.465 612.429> 1408 276<491.833 608.245>
VStem: 78 393<912.328 1396.43> 625 395<264.046 579 907.284 951 1164 1392.53>
LayerCount: 2
UndoRedoHistory
Layer: 1
Undoes
EndUndoes
Redoes
EndRedoes
EndUndoRedoHistory
Fore
SplineSet
550 900 m 0
 471 900 471 987 471 1135 c 0
 471 1329 472 1408 545 1408 c 0
 621 1408 625 1324 625 1229 c 2
 625 951 l 1
 615 932 589 900 550 900 c 0
543 -27 m 0
 929 -27 1020 199 1020 524 c 2
 1020 1164 l 2
 1020 1485 884 1684 545 1684 c 0
 200 1684 78 1472 78 1109 c 0
 78 843 176 598 438 607 c 0
 519 610 594 637 625 691 c 1
 625 579 l 2
 625 316 632 257 547 257 c 0
 473 257 473 311 473 437 c 1
 117 437 l 1
 117 406 l 2
 117 125 206 -27 543 -27 c 0
EndSplineSet
EndChar

StartChar: notequal
Encoding: 65548 8800 364
Width: 927
VWidth: 0
Flags: W
LayerCount: 2
UndoRedoHistory
Layer: 1
Undoes
EndUndoes
Redoes
EndRedoes
EndUndoRedoHistory
Fore
SplineSet
99 0 m 1
 273 0 l 1
 427.716525935 484 l 1
 793 484 l 1
 793 698 l 1
 496.12424608 698 l 1
 554.622436671 881 l 1
 793 881 l 1
 793 1095 l 1
 623.030156815 1095 l 1
 803 1658 l 1
 628 1658 l 1
 448.369722557 1095 l 1
 134 1095 l 1
 134 881 l 1
 380.091073583 881 l 1
 321.703256936 698 l 1
 134 698 l 1
 134 484 l 1
 253.424607961 484 l 1
 99 0 l 1
EndSplineSet
EndChar

StartChar: numbersign
Encoding: 35 35 366
Width: 1086
VWidth: 0
GlyphClass: 2
Flags: W
LayerCount: 2
UndoRedoHistory
Layer: 1
Undoes
EndUndoes
Redoes
EndRedoes
EndUndoRedoHistory
Fore
SplineSet
463 758 m 1
 493 1011 l 1
 609 1011 l 1
 580 758 l 1
 463 758 l 1
164 -1 m 1
 374 -1 l 1
 433 537 l 1
 548 537 l 1
 491 -1 l 1
 700 -1 l 1
 760 537 l 1
 958 537 l 1
 965 758 l 1
 792 758 l 1
 819 1011 l 1
 969 1011 l 1
 976 1236 l 1
 860 1236 l 1
 905 1658 l 1
 692 1658 l 1
 649 1236 l 1
 535 1236 l 1
 579 1658 l 1
 365 1658 l 1
 322 1236 l 1
 117 1236 l 1
 110 1011 l 1
 280 1011 l 1
 254 758 l 1
 107 758 l 1
 100 537 l 1
 222 537 l 1
 164 -1 l 1
EndSplineSet
EndChar

StartChar: o
Encoding: 111 111 367
Width: 1015
VWidth: 0
GlyphClass: 2
Flags: W
HStem: -22 263<446.849 566> 943 263<446.849 566>
VStem: 72 366<249.916 349 835 934.084> 577 366<249.604 349 835 934.396>
AnchorPoint: "ogonek" 558 0 basechar 0
LayerCount: 2
UndoRedoHistory
Layer: 1
Undoes
EndUndoes
Redoes
EndRedoes
EndUndoRedoHistory
Fore
SplineSet
505 -22 m 0
 753 -22 943 94 943 349 c 2
 943 835 l 2
 943 1090 753 1206 505 1206 c 0
 257 1206 72 1089 72 835 c 2
 72 349 l 2
 72 95 257 -22 505 -22 c 0
506 241 m 0
 462 241 438 269 438 343 c 2
 438 841 l 2
 438 915 462 943 506 943 c 0
 553 943 577 918 577 841 c 2
 577 343 l 2
 577 266 553 241 506 241 c 0
EndSplineSet
EndChar

StartChar: oe
Encoding: 452 339 372
Width: 1459
VWidth: 0
GlyphClass: 2
Flags: W
HStem: -28.2423 214.242<335.961 549.673 964.859 1162.14> 1032 212<343.271 553.398 960.713 1052.52>
VStem: 72 365<196.198 334 909 1027.55> 564 392<190.902 322 930 1028.69> 1061 339<189.538 302 861 1022.26>
LayerCount: 2
UndoRedoHistory
Layer: 1
Undoes
EndUndoes
Redoes
EndRedoes
EndUndoRedoHistory
Fore
SplineSet
956 760 m 1
 956 961 l 2
 956 1018.46 990.922 1031.9 1006.785 1031.9 c 0
 1024.79 1031.9 1061 1011.42 1061 961 c 2
 1061 760 l 1
 956 760 l 1
494 186 m 0
 462 186 437 237 437 323 c 2
 437 930 l 2
 437 1016 473 1032 500 1032 c 0
 530 1032 564 1012 564 930 c 2
 564 322 l 2
 564 197 523 186 494 186 c 0
420.943 -28.2423 m 0
 590.899 -28.2423 688.588 34.286 738 120 c 1
 778.693 25.0502 895.447 -29.7543 1046.41 -29.7543 c 0
 1274.27 -29.7543 1401 103.121 1401 302 c 2
 1401 484 l 1
 1056 484 l 1
 1056 301 l 2
 1056 228 1045 186 1007 186 c 0
 975 186 956 229 956 302 c 2
 956 560 l 1
 1400 560 l 1
 1400 861 l 2
 1400 1081 1296 1244 1036 1244 c 0
 941 1244 790 1196 748 1089 c 1
 711 1196 551 1244 450 1244 c 0
 242 1244 72 1145 72 909 c 2
 72 334 l 2
 72 78.0679 250.978 -28.2423 420.943 -28.2423 c 0
EndSplineSet
EndChar

StartChar: ogonek
Encoding: 453 731 373
Width: 557
VWidth: 0
GlyphClass: 2
Flags: W
HStem: -529 179<327.922 450>
VStem: 44 258<-318.884 -111.829>
AnchorPoint: "ogonek" 246 0 mark 0
LayerCount: 2
UndoRedoHistory
Layer: 1
Undoes
EndUndoes
Redoes
EndRedoes
EndUndoRedoHistory
Fore
SplineSet
450 -529 m 1
 478 -350 l 1
 427 -350 302 -352 302 -230 c 0
 302 -142 331 -66 343 21 c 1
 179 21 l 1
 94 -68 44 -194 44 -295 c 0
 44 -528 311 -534 450 -529 c 1
EndSplineSet
EndChar

StartChar: one
Encoding: 49 49 377
Width: 1112
VWidth: 0
GlyphClass: 2
Flags: W
VStem: 209 565<1475 1496.56>
LayerCount: 2
UndoRedoHistory
Layer: 1
Undoes
EndUndoes
Redoes
EndRedoes
EndUndoRedoHistory
Fore
SplineSet
774 0 m 1
 774 1658 l 1
 470 1658 l 1
 410 1580 265 1500 209 1475 c 1
 209 1189 l 1
 388 1264 l 1
 388 0 l 1
 774 0 l 1
EndSplineSet
EndChar

StartChar: onehalf
Encoding: 457 189 378
Width: 1306
VWidth: 0
GlyphClass: 2
Flags: W
HStem: 729 161<918.962 1048.74>
VStem: 732 176<562 720.643> 1053 183<532.14 723.288>
LayerCount: 2
UndoRedoHistory
Layer: 1
Undoes
EndUndoes
Redoes
EndRedoes
EndUndoRedoHistory
Fore
SplineSet
78 0 m 1
 234 0 l 1
 1091 1658 l 1
 934 1658 l 1
 78 0 l 1
149 827 m 1
 355 827 l 1
 355 1658 l 1
 226 1658 l 1
 187 1609 131 1552 26 1495 c 1
 26 1327 l 1
 149 1405 l 1
 149 827 l 1
759 0 m 1
 1214 0 l 1
 1214 160 l 1
 973 160 l 1
 1109 354 l 1
 1185 471 1236 552 1236 663 c 0
 1236 809 1136 890 979 890 c 0
 816 890 732 788 732 652 c 0
 732 639 733 626 739 562 c 1
 916 562 l 1
 912 582 908 617 908 637 c 0
 908 703 942 729 985 729 c 0
 1030 729 1053 698 1053 659 c 0
 1053 591 1002 518 955 447 c 1
 759 160 l 1
 759 0 l 1
EndSplineSet
EndChar

StartChar: onequarter
Encoding: 458 188 379
Width: 1306
VWidth: 0
GlyphClass: 2
Flags: W
LayerCount: 2
UndoRedoHistory
Layer: 1
Undoes
EndUndoes
Redoes
EndRedoes
EndUndoRedoHistory
Fore
SplineSet
791 391 m 1
 938 644 l 1
 938 391 l 1
 791 391 l 1
144 0 m 1
 300 0 l 1
 1157 1658 l 1
 1000 1658 l 1
 144 0 l 1
222 827 m 1
 428 827 l 1
 428 1658 l 1
 299 1658 l 1
 260 1609 204 1552 99 1495 c 1
 99 1327 l 1
 222 1405 l 1
 222 827 l 1
938 0 m 1
 1104 0 l 1
 1104 226 l 1
 1207 226 l 1
 1207 391 l 1
 1104 391 l 1
 1104 847 l 1
 954 847 l 1
 673 380 l 1
 673 226 l 1
 938 226 l 1
 938 0 l 1
EndSplineSet
EndChar

StartChar: onesuperior
Encoding: 65549 -1 380
Width: 878
VWidth: 0
GlyphClass: 2
Flags: W
VStem: 148 481<1685 1702.13>
LayerCount: 2
UndoRedoHistory
Layer: 1
Undoes
EndUndoes
Redoes
EndRedoes
EndUndoRedoHistory
Fore
SplineSet
348 624 m 1
 629 624 l 1
 629 1818 l 1
 408 1818 l 1
 364 1761 189 1703 148 1685 c 1
 148 1476 l 1
 348 1531 l 1
 348 624 l 1
EndSplineSet
EndChar

StartChar: ordfeminine
Encoding: 459 170 381
Width: 1016
VWidth: 0
GlyphClass: 2
Flags: W
HStem: 637 204<283.5 510.323> 1447 235<472.179 566.721>
VStem: 101 313<852.21 1040.97>
LayerCount: 2
UndoRedoHistory
Layer: 1
Undoes
EndUndoes
Redoes
EndRedoes
EndUndoRedoHistory
Fore
SplineSet
498 841 m 0
 453 841 414 878 414 941 c 0
 414 1000 465 1108 570 1152 c 1
 570 878 l 1
 549 852 522 841 498 841 c 0
376 637 m 1
 489 637 559 710 587 795 c 1
 612 656 l 1
 904 656 l 1
 904 1384 l 2
 904 1551 783 1682 554 1682 c 0
 296 1682 132 1581 132 1318 c 1
 456 1307 l 1
 469 1419 478 1447 519 1447 c 0
 557 1447 570 1418 570 1388 c 2
 570 1278 l 1
 414 1220 101 1160 101 886 c 0
 101 769 191 641 376 637 c 1
EndSplineSet
EndChar

StartChar: ordmasculine
Encoding: 460 186 382
Width: 1016
VWidth: 0
GlyphClass: 2
Flags: W
HStem: 637 213<448.603 565.853> 1469 214<448.603 566.163>
VStem: 142 300<857.634 938 1382 1462.37> 575 299<857.323 938 1382 1462.68>
LayerCount: 2
UndoRedoHistory
Layer: 1
Undoes
EndUndoes
Redoes
EndRedoes
EndUndoRedoHistory
Fore
SplineSet
506 637 m 0
 709 637 874 731 874 938 c 2
 874 1382 l 2
 874 1589 709 1683 506 1683 c 0
 303 1683 142 1588 142 1382 c 2
 142 938 l 2
 142 732 303 637 506 637 c 0
507 850 m 0
 471 850 442 873 442 933 c 2
 442 1387 l 2
 442 1447 471 1469 507 1469 c 0
 545 1469 575 1449 575 1387 c 2
 575 933 l 2
 575 871 545 850 507 850 c 0
EndSplineSet
EndChar

StartChar: oslash
Encoding: 461 248 383
Width: 1015
VWidth: 0
GlyphClass: 2
Flags: W
HStem: -22 263<445.645 566> 943 263<448.087 567.496>
VStem: 72 366<246.06 345.785 835 934.084>
LayerCount: 2
UndoRedoHistory
Layer: 1
Undoes
EndUndoes
Redoes
EndRedoes
EndUndoRedoHistory
Fore
SplineSet
505 -22 m 0
 753 -22 943 94 943 349 c 2
 943 835 l 2
 943 984.873307451 877.367065369 1086.73094167 772.900669766 1145.24250792 c 1
 857 1346 l 1
 778 1381 l 1
 693.492759843 1179.26876684 l 1
 636.861179334 1197.24846055 573.11847453 1206 505 1206 c 0
 257 1206 72 1089 72 835 c 2
 72 349 l 2
 72 208.814773254 128.351929639 110.360434944 220.545799979 50.2746918006 c 1
 140 -142 l 1
 219 -177 l 1
 298.018572676 11.6289752127 l 1
 358.730035973 -10.9829727746 428.898895272 -22 505 -22 c 0
506 241 m 0
 462 241 438 269 438 343 c 2
 438 345.785266458 l 1
 577 677.598746082 l 1
 577 343 l 2
 577 266 553 241 506 241 c 0
572.359008968 890.104656203 m 1
 438 569.369905956 l 1
 438 841 l 2
 438 915 462 943 506 943 c 0
 541.046216321 943 563.304086149 929.099623377 572.359008968 890.104656203 c 1
EndSplineSet
EndChar

StartChar: p
Encoding: 112 112 385
Width: 1044
VWidth: 0
GlyphClass: 2
Flags: W
LayerCount: 2
UndoRedoHistory
Layer: 1
Undoes
EndUndoes
Redoes
EndRedoes
EndUndoRedoHistory
Fore
SplineSet
723 -22 m 0
 868 -22 969 93 969 303 c 2
 969 890 l 2
 969 1100 877 1199 723 1206 c 0
 644.505800351 1209.51466566 549.541101137 1177.34324892 457 1100.23970202 c 1
 457 1184 l 1
 85 1184 l 1
 85 -390 l 1
 457 -390 l 1
 457 89.5597966637 l 1
 543.707951705 18.3754447675 636.508307475 -22 723 -22 c 0
457 962.960428131 m 1
 482.86320131 981.213729849 506.01785442 993.364839479 523 996 c 0
 568 1003 596 966 596 925 c 2
 596 279 l 2
 596 238 568 206 523 207 c 0
 503.728975256 207.542845767 481.06911295 216.705126206 457 230.987571507 c 1
 457 962.960428131 l 1
EndSplineSet
EndChar

StartChar: paragraph
Encoding: 463 182 386
Width: 1089
VWidth: 0
GlyphClass: 2
Flags: W
VStem: 73 510<1131.61 1432.21>
LayerCount: 2
UndoRedoHistory
Layer: 1
Undoes
EndUndoes
Redoes
EndRedoes
EndUndoRedoHistory
Fore
SplineSet
378 -196 m 1
 583 -196 l 1
 583 1439 l 1
 756 1439 l 1
 756 -196 l 1
 945 -196 l 1
 945 1658 l 1
 480 1658 l 2
 275 1658 73 1588 73 1321 c 0
 73 1112 197 993 378 987 c 1
 378 -196 l 1
EndSplineSet
EndChar

StartChar: parenleft
Encoding: 40 40 387
Width: 720
VWidth: 0
GlyphClass: 2
Flags: W
VStem: 120 341<90.916 1242.1>
LayerCount: 2
UndoRedoHistory
Layer: 1
Undoes
EndUndoes
Redoes
EndRedoes
EndUndoRedoHistory
Fore
SplineSet
644 -90 m 1
 514 -90 461 99 461 652 c 0
 461 1196 502 1415 644 1415 c 1
 644 1678 l 1
 173 1681 120 1239 120 652 c 0
 120 116 173 -358 644 -354 c 1
 644 -90 l 1
EndSplineSet
EndChar

StartChar: parenright
Encoding: 41 41 388
Width: 720
VWidth: 0
GlyphClass: 2
Flags: W
VStem: 259 341<90.916 1242.1>
LayerCount: 2
UndoRedoHistory
Layer: 1
Undoes
EndUndoes
Redoes
EndRedoes
EndUndoRedoHistory
Fore
SplineSet
76 -90 m 1
 76 -354 l 1
 547 -358 600 116 600 652 c 0
 600 1239 547 1681 76 1678 c 1
 76 1415 l 1
 218 1415 259 1196 259 652 c 0
 259 99 206 -90 76 -90 c 1
EndSplineSet
EndChar

StartChar: partialdiff
Encoding: 65550 8706 389
Width: 1115
VWidth: 0
Flags: W
HStem: -26 229<442.451 593.026> 895 220<327 597.363> 1419 259<388 512.37>
VStem: 73 361<212.892 422.008> 690 358<846.77 1265.94>
LayerCount: 2
UndoRedoHistory
Layer: 1
Undoes
EndUndoes
Redoes
EndRedoes
EndUndoRedoHistory
Fore
SplineSet
509 203 m 0
 462 203 434 235 434 273 c 0
 434 275 434 278 434 280 c 2
 487 805 l 2
 492 859 525 895 583 895 c 0
 608 895 636 887 665 874 c 1
 606 279 l 1
 600 207 532 203 509 203 c 0
503 -26 m 0
 731 -26 958 -24 1002 480 c 1
 1002 480 1048 1023 1048 1055 c 0
 1048 1595 640 1678 388 1678 c 1
 302 1419 l 1
 613 1393 690 1272 690 1098 c 0
 690 1071 688 1043 685 1014 c 1
 617 1077 500 1115 408 1115 c 0
 246 1115 130 991 116 790 c 1
 74 302 l 2
 73 292 73 282 73 272 c 0
 73 48 304 -26 503 -26 c 0
EndSplineSet
EndChar

StartChar: percent
Encoding: 37 37 390
Width: 2136
VWidth: 0
GlyphClass: 2
Flags: W
HStem: 0 229<1541.54 1708.51> 695 229<424.539 591.51> 732 231<1531.82 1717.64> 1427 231<414.819 600.64>
VStem: 99 299<950.234 1173 1197 1405.04> 618 303<950.234 1173 1195 1405.91> 1216 299<255.234 478 502 710.044> 1735 303<255.234 478 500 710.905>
LayerCount: 2
UndoRedoHistory
Layer: 1
Undoes
EndUndoes
Redoes
EndRedoes
EndUndoRedoHistory
Fore
SplineSet
709 0 m 1x9f
 892 0 l 1
 1422 1658 l 1
 1238 1658 l 1
 709 0 l 1x9f
1625 0 m 0
 1927 0 2038 146 2038 459 c 2
 2038 517 l 2
 2038 837 1929 963 1625 963 c 0xbf
 1319 963 1216 836 1216 516 c 2
 1216 459 l 2
 1216 146 1323 0 1625 0 c 0
1625 229 m 0
 1519 229 1515 308 1515 478 c 2
 1515 502 l 2
 1515 672 1516 732 1625 732 c 0
 1736 732 1735 671 1735 500 c 2
 1735 478 l 2
 1735 308 1731 229 1625 229 c 0
508 695 m 0xdf
 810 695 921 841 921 1154 c 2
 921 1212 l 2
 921 1532 812 1658 508 1658 c 0
 202 1658 99 1531 99 1211 c 2
 99 1154 l 2
 99 841 206 695 508 695 c 0xdf
508 924 m 0
 402 924 398 1003 398 1173 c 2
 398 1197 l 2
 398 1367 399 1427 508 1427 c 0
 619 1427 618 1366 618 1195 c 2
 618 1173 l 2
 618 1003 614 924 508 924 c 0
EndSplineSet
EndChar

StartChar: period
Encoding: 46 46 391
Width: 519
VWidth: 0
GlyphClass: 2
Flags: W
HStem: 0 340
VStem: 83 348
LayerCount: 2
UndoRedoHistory
Layer: 1
Undoes
EndUndoes
Redoes
EndRedoes
EndUndoRedoHistory
Fore
SplineSet
83 0 m 1
 431 0 l 1
 431 340 l 1
 83 340 l 1
 83 0 l 1
EndSplineSet
EndChar

StartChar: periodcentered
Encoding: 464 183 392
Width: 497
VWidth: 0
GlyphClass: 2
Flags: W
HStem: 601 338
VStem: 76 346
LayerCount: 2
UndoRedoHistory
Layer: 1
Undoes
EndUndoes
Redoes
EndRedoes
EndUndoRedoHistory
Fore
SplineSet
76 601 m 1
 422 601 l 1
 422 939 l 1
 76 939 l 1
 76 601 l 1
EndSplineSet
EndChar

StartChar: perthousand
Encoding: 65551 8240 393
Width: 3069
VWidth: 0
Flags: W
HStem: 0 229<1541.54 1708.51 2465.54 2632.51> 695 229<424.539 591.51> 732 231<1531.82 1717.64 2455.82 2641.64> 1427 231<414.819 600.64>
VStem: 99 299<950.234 1173 1197 1405.04> 618 303<950.234 1173 1195 1405.91> 1216 299<255.234 478 502 710.044> 1735 303<255.234 478 500 710.905> 2140 299<255.234 478 502 710.044> 2659 303<255.234 478 500 710.905>
LayerCount: 2
UndoRedoHistory
Layer: 1
Undoes
EndUndoes
Redoes
EndRedoes
EndUndoRedoHistory
Fore
SplineSet
2549 0 m 0xbfc0
 2851 0 2962 146 2962 459 c 2
 2962 517 l 2
 2962 837 2853 963 2549 963 c 0
 2243 963 2140 836 2140 516 c 2
 2140 459 l 2
 2140 146 2247 0 2549 0 c 0xbfc0
2549 229 m 0
 2443 229 2439 308 2439 478 c 2
 2439 502 l 2
 2439 672 2440 732 2549 732 c 0
 2660 732 2659 671 2659 500 c 2
 2659 478 l 2
 2659 308 2655 229 2549 229 c 0
709 0 m 1
 892 0 l 1
 1422 1658 l 1
 1238 1658 l 1
 709 0 l 1
1625 0 m 0
 1927 0 2038 146 2038 459 c 2
 2038 517 l 2
 2038 837 1929 963 1625 963 c 0
 1319 963 1216 836 1216 516 c 2
 1216 459 l 2
 1216 146 1323 0 1625 0 c 0
1625 229 m 0
 1519 229 1515 308 1515 478 c 2
 1515 502 l 2
 1515 672 1516 732 1625 732 c 0
 1736 732 1735 671 1735 500 c 2
 1735 478 l 2
 1735 308 1731 229 1625 229 c 0
508 695 m 0xdfc0
 810 695 921 841 921 1154 c 2
 921 1212 l 2
 921 1532 812 1658 508 1658 c 0
 202 1658 99 1531 99 1211 c 2
 99 1154 l 2
 99 841 206 695 508 695 c 0xdfc0
508 924 m 0
 402 924 398 1003 398 1173 c 2
 398 1197 l 2
 398 1367 399 1427 508 1427 c 0
 619 1427 618 1366 618 1195 c 2
 618 1173 l 2
 618 1003 614 924 508 924 c 0
EndSplineSet
EndChar

StartChar: plus
Encoding: 43 43 394
Width: 942
VWidth: 0
GlyphClass: 2
Flags: W
LayerCount: 2
UndoRedoHistory
Layer: 1
Undoes
EndUndoes
Redoes
EndRedoes
EndUndoRedoHistory
Fore
SplineSet
351 422 m 1
 590 422 l 1
 590 747 l 1
 888 747 l 1
 888 951 l 1
 590 951 l 1
 590 1266 l 1
 351 1266 l 1
 351 951 l 1
 54 951 l 1
 54 747 l 1
 351 747 l 1
 351 422 l 1
EndSplineSet
EndChar

StartChar: plusminus
Encoding: 465 177 395
Width: 1068
VWidth: 0
GlyphClass: 2
Flags: W
LayerCount: 2
UndoRedoHistory
Layer: 1
Undoes
EndUndoes
Redoes
EndRedoes
EndUndoRedoHistory
Fore
SplineSet
138 0 m 1
 930 0 l 1
 930 213 l 1
 138 213 l 1
 138 0 l 1
423 386 m 1
 646 386 l 1
 646 683 l 1
 930 683 l 1
 930 887 l 1
 646 887 l 1
 646 1184 l 1
 423 1184 l 1
 423 887 l 1
 138 887 l 1
 138 683 l 1
 423 683 l 1
 423 386 l 1
EndSplineSet
EndChar

StartChar: product
Encoding: 466 8719 396
Width: 1289
VWidth: 0
GlyphClass: 2
Flags: W
LayerCount: 2
UndoRedoHistory
Layer: 1
Undoes
EndUndoes
Redoes
EndRedoes
EndUndoRedoHistory
Fore
SplineSet
832 -390 m 1
 1191 -390 l 1
 1191 1658 l 1
 98 1658 l 1
 98 -390 l 1
 457 -390 l 1
 457 1362 l 1
 832 1362 l 1
 832 -390 l 1
EndSplineSet
EndChar

StartChar: q
Encoding: 113 113 397
Width: 1049
VWidth: 0
GlyphClass: 2
Flags: W
HStem: -22 226<256.5 525.633> 986 220<262 530.798>
LayerCount: 2
UndoRedoHistory
Layer: 1
Undoes
EndUndoes
Redoes
EndRedoes
EndUndoRedoHistory
Fore
SplineSet
592 -390 m 1
 964 -390 l 1
 964 1184 l 1
 592 1184 l 1
 592 1102.87523868 l 1
 518.18180912 1167.40865133 435.936327855 1206 343 1206 c 0
 181 1206 74 1082 74 881 c 2
 74 303 l 2
 74 97 173 -22 340 -22 c 0
 425.361123364 -22 510.418957597 23.7966588421 592 105.368389058 c 1
 592 -390 l 1
592 235.226927532 m 1
 562.159078161 216.359196535 535.265568275 204 516 204 c 0
 474 204 448 240 448 281 c 2
 448 896 l 2
 448 950 472 986 520 986 c 0
 541.596513997 986 566.257086012 977.405690925 592 963.669753309 c 1
 592 235.226927532 l 1
EndSplineSet
EndChar

StartChar: question
Encoding: 63 63 398
Width: 989
VWidth: 0
GlyphClass: 2
Flags: W
HStem: 1368 319<408.468 540.479>
VStem: 51 345<1157.96 1359.32>
LayerCount: 2
UndoRedoHistory
Layer: 1
Undoes
EndUndoes
Redoes
EndRedoes
EndUndoRedoHistory
Fore
SplineSet
233 0 m 1
 593 0 l 1
 593 348 l 1
 233 348 l 1
 233 0 l 1
242 443 m 1
 582 443 l 1
 582 644 l 1
 769 748 922 1033 922 1269 c 0
 922 1531 759 1687 456 1687 c 0
 140 1687 51 1505 51 1300 c 0
 51 1214 64 1179 88 1085 c 1
 422 1164 l 1
 405 1217 396 1222 396 1282 c 0
 396 1338 433 1368 467 1368 c 0
 500 1368 545 1365 552 1285 c 0
 572 1068 418.37 850.389 242 711 c 1
 242 443 l 1
EndSplineSet
EndChar

StartChar: questiondown
Encoding: 467 191 399
Width: 1068
VWidth: 0
GlyphClass: 2
Flags: W
HStem: -363 319<465.521 597.532>
VStem: 610 345<-35.3218 166.036>
LayerCount: 2
UndoRedoHistory
Layer: 1
Undoes
EndUndoes
Redoes
EndRedoes
EndUndoRedoHistory
Fore
SplineSet
773 1324 m 1
 413 1324 l 1
 413 976 l 1
 773 976 l 1
 773 1324 l 1
764 881 m 1
 424 881 l 1
 424 680 l 1
 237 576 84 291 84 55 c 0
 84 -207 247 -363 550 -363 c 0
 866 -363 955 -181 955 24 c 0
 955 110 942 145 918 239 c 1
 584 160 l 1
 601 107 610 102 610 42 c 0
 610 -14 573 -44 539 -44 c 0
 506 -44 461 -41 454 39 c 0
 434 256 587.629882812 473.611328125 764 613 c 1
 764 881 l 1
EndSplineSet
EndChar

StartChar: quotedbl
Encoding: 34 34 400
Width: 707
VWidth: 0
GlyphClass: 2
Flags: W
HStem: 1005 653
VStem: 12 164<1005 1067.41> 420 164<1005 1067.41>
LayerCount: 2
UndoRedoHistory
Layer: 1
Undoes
EndUndoes
Redoes
EndRedoes
EndUndoRedoHistory
Fore
SplineSet
420 1005 m 1
 584 1005 l 1
 734 1658 l 1
 420 1658 l 1
 420 1005 l 1
12 1005 m 1
 176 1005 l 1
 326 1658 l 1
 12 1658 l 1
 12 1005 l 1
EndSplineSet
EndChar

StartChar: quotedblbase
Encoding: 468 8222 401
Width: 974
VWidth: 0
GlyphClass: 2
Flags: W
HStem: -203 113<166 250.137 607 691.137>
VStem: 276 154.198<-64.574 77> 717 154.198<-64.574 77>
LayerCount: 2
UndoRedoHistory
Layer: 1
Undoes
EndUndoes
Redoes
EndRedoes
EndUndoRedoHistory
Fore
SplineSet
875 391 m 1
 563 391 l 1
 563 77 l 1
 717 77 l 1
 717 -11 702 -90 588 -90 c 1
 607 -203 l 1
 809.415039062 -203 859.134765625 -87.5595703125 871.198242188 156.200195312 c 0
 874.5703125 224.33984375 875 302.51953125 875 391 c 1
434 391 m 1
 122 391 l 1
 122 77 l 1
 276 77 l 1
 276 -11 261 -90 147 -90 c 1
 166 -203 l 1
 368.415039062 -203 418.134765625 -87.5595703125 430.198242188 156.200195312 c 0
 433.5703125 224.33984375 434 302.51953125 434 391 c 1
EndSplineSet
EndChar

StartChar: quotedblleft
Encoding: 469 8220 402
Width: 970
VWidth: 0
GlyphClass: 2
Flags: W
HStem: 1545 113<305.863 390 746.863 831>
VStem: 125.802 154.198<1378 1519.57> 566.802 154.198<1378 1519.57>
LayerCount: 2
UndoRedoHistory
Layer: 1
Undoes
EndUndoes
Redoes
EndRedoes
EndUndoRedoHistory
Fore
SplineSet
122 1064 m 1
 434 1064 l 1
 434 1378 l 1
 280 1378 l 1
 280 1466 295 1545 409 1545 c 1
 390 1658 l 1
 187.584960938 1658 137.865234375 1542.55957031 125.801757812 1298.79980469 c 0
 122.4296875 1230.66015625 122 1152.48046875 122 1064 c 1
563 1064 m 1
 875 1064 l 1
 875 1378 l 1
 721 1378 l 1
 721 1466 736 1545 850 1545 c 1
 831 1658 l 1
 628.584960938 1658 578.865234375 1542.55957031 566.801757812 1298.79980469 c 0
 563.4296875 1230.66015625 563 1152.48046875 563 1064 c 1
EndSplineSet
EndChar

StartChar: quotedblright
Encoding: 470 8221 403
Width: 970
VWidth: 0
GlyphClass: 2
Flags: W
HStem: 1064 113<166 250.137 607 691.137>
VStem: 276 154.198<1202.43 1344> 717 154.198<1202.43 1344>
LayerCount: 2
UndoRedoHistory
Layer: 1
Undoes
EndUndoes
Redoes
EndRedoes
EndUndoRedoHistory
Fore
SplineSet
434 1658 m 1
 122 1658 l 1
 122 1344 l 1
 276 1344 l 1
 276 1256 261 1177 147 1177 c 1
 166 1064 l 1
 368.415039062 1064 418.134765625 1179.44042969 430.198242188 1423.20019531 c 0
 433.5703125 1491.33984375 434 1569.51953125 434 1658 c 1
875 1658 m 1
 563 1658 l 1
 563 1344 l 1
 717 1344 l 1
 717 1256 702 1177 588 1177 c 1
 607 1064 l 1
 809.415039062 1064 859.134765625 1179.44042969 871.198242188 1423.20019531 c 0
 874.5703125 1491.33984375 875 1569.51953125 875 1658 c 1
EndSplineSet
EndChar

StartChar: quoteleft
Encoding: 471 8216 404
Width: 568
VWidth: 0
GlyphClass: 2
Flags: W
HStem: 1545 113<305.863 390>
VStem: 125.802 154.198<1378 1519.57>
LayerCount: 2
UndoRedoHistory
Layer: 1
Undoes
EndUndoes
Redoes
EndRedoes
EndUndoRedoHistory
Fore
SplineSet
122 1064 m 1
 434 1064 l 1
 434 1378 l 1
 280 1378 l 1
 280 1466 295 1545 409 1545 c 1
 390 1658 l 1
 187.585 1658 137.865 1542.56 125.802 1298.8 c 0
 122.43 1230.66 122 1152.48 122 1064 c 1
EndSplineSet
EndChar

StartChar: quoteright
Encoding: 472 8217 405
Width: 568
VWidth: 0
GlyphClass: 2
Flags: W
HStem: 1064 113<182 266.137>
VStem: 292 154.198<1202.43 1344>
LayerCount: 2
UndoRedoHistory
Layer: 1
Undoes
EndUndoes
Redoes
EndRedoes
EndUndoRedoHistory
Fore
SplineSet
450 1658 m 1
 138 1658 l 1
 138 1344 l 1
 292 1344 l 1
 292 1256 277 1177 163 1177 c 1
 182 1064 l 1
 384.415039062 1064 434.134765625 1179.44042969 446.198242188 1423.20019531 c 0
 449.5703125 1491.33984375 450 1569.51953125 450 1658 c 1
EndSplineSet
EndChar

StartChar: quotesinglbase
Encoding: 473 8218 406
Width: 572
VWidth: 0
GlyphClass: 2
Flags: W
HStem: -205 113<172 256.137>
VStem: 282 154.198<-66.574 75>
LayerCount: 2
UndoRedoHistory
Layer: 1
Undoes
EndUndoes
Redoes
EndRedoes
EndUndoRedoHistory
Fore
SplineSet
440 389 m 1
 128 389 l 1
 128 75 l 1
 282 75 l 1
 282 -13 267 -92 153 -92 c 1
 172 -205 l 1
 374.415039062 -205 424.134765625 -89.5595703125 436.198242188 154.200195312 c 0
 439.5703125 222.33984375 440 300.51953125 440 389 c 1
EndSplineSet
EndChar

StartChar: quotesingle
Encoding: 39 39 407
Width: 314
VWidth: 0
GlyphClass: 2
Flags: W
HStem: 1005 653
VStem: 10 176<1005 1081.73>
LayerCount: 2
UndoRedoHistory
Layer: 1
Undoes
EndUndoes
Redoes
EndRedoes
EndUndoRedoHistory
Fore
SplineSet
10 1005 m 1
 186 1005 l 1
 308 1658 l 1
 10 1658 l 1
 10 1005 l 1
EndSplineSet
EndChar

StartChar: r
Encoding: 114 114 408
Width: 765
VWidth: 0
GlyphClass: 2
Flags: W
HStem: 880 318<582.945 737>
VStem: 86 651
LayerCount: 2
UndoRedoHistory
Layer: 1
Undoes
EndUndoes
Redoes
EndRedoes
EndUndoRedoHistory
Fore
SplineSet
458 722.035779398 m 1
 529.303164717 823.791014746 615.424608023 880 737 880 c 1
 737 1188 l 1
 719 1195 702 1198 686 1198 c 0
 597.858683756 1198 521.633663823 1110.31740177 458 976.805912892 c 1
 458 1184 l 1
 86 1184 l 1
 86 0 l 1
 458 0 l 1
 458 722.035779398 l 1
EndSplineSet
EndChar

StartChar: radical
Encoding: 65552 8730 410
Width: 1169
VWidth: 0
Flags: W
LayerCount: 2
UndoRedoHistory
Layer: 1
Undoes
EndUndoes
Redoes
EndRedoes
EndUndoRedoHistory
Fore
SplineSet
885 0 m 1
 1146 1658 l 1
 773 1658 l 1
 716 1022 l 1
 663 495 l 1
 597 1022 l 1
 574 1184 l 1
 6 1184 l 1
 6 946 l 1
 273 946 l 1
 435 0 l 1
 885 0 l 1
EndSplineSet
EndChar

StartChar: registered
Encoding: 477 174 413
Width: 1824
VWidth: 0
GlyphClass: 2
Flags: W
HStem: -28 109<658.755 1165.24> 1174 168<904 989.066> 1571 113<658.755 1164.91>
VStem: 98 123<546.329 1099.92> 1019 270<930.303 1150.11> 1600 126<545.917 1099.92>
LayerCount: 2
UndoRedoHistory
Layer: 1
Undoes
EndUndoes
Redoes
EndRedoes
EndUndoRedoHistory
Fore
SplineSet
913 -28 m 0
 1493 -28 1726 415 1726 828 c 0
 1726 1241 1491 1684 913 1684 c 0
 333 1684 98 1241 98 828 c 0
 98 417 333 -28 913 -28 c 0
912 81 m 0
 430 81 221 454 221 827 c 0
 221 1202 430 1571 912 1571 c 0
 1390 1571 1600 1202 1600 827 c 0
 1600 454 1390 81 912 81 c 0
852 904 m 1
 852 1174 l 1
 904 1174 l 2
 985 1174 1019 1121 1019 1044 c 0
 1019 969 989 904 891 904 c 2
 852 904 l 1
556 319 m 1
 852 319 l 1
 852 757 l 1
 886 757 l 1
 1014 319 l 1
 1325 319 l 1
 1150 814 l 1
 1267 869 1289 945 1289 1072 c 0
 1289 1293 1138 1342 906 1342 c 2
 556 1342 l 1
 556 319 l 1
EndSplineSet
EndChar

StartChar: ring
Encoding: 478 730 414
Width: 0
VWidth: 0
GlyphClass: 2
Flags: W
HStem: 1237 119<-89.5545 68.3332> 1565 119<-89.5545 68.1397>
VStem: -250 144<1372.02 1549.43> 86 148<1371.36 1549.89>
LayerCount: 2
UndoRedoHistory
Layer: 1
Undoes
EndUndoes
Redoes
EndRedoes
EndUndoRedoHistory
Fore
SplineSet
-9 1237 m 0
 118 1237 234 1310 234 1461 c 0
 234 1611 117 1684 -9 1684 c 0
 -135 1684 -250 1612 -250 1461 c 0
 -250 1310 -135 1237 -9 1237 c 0
-9 1356 m 0
 -74 1356 -106 1408 -106 1461 c 0
 -106 1513 -74 1565 -9 1565 c 0
 55 1565 86 1513 86 1461 c 0
 86 1408 55 1356 -9 1356 c 0
EndSplineSet
EndChar

StartChar: s
Encoding: 115 115 415
Width: 867
VWidth: 0
GlyphClass: 2
Flags: W
HStem: -22 249<368.738 492.725>
VStem: 496 353<231.9 353.968>
LayerCount: 2
UndoRedoHistory
Layer: 1
Undoes
EndUndoes
Redoes
EndRedoes
EndUndoRedoHistory
Fore
SplineSet
454 -22 m 0
 650 -22 849 97 849 306 c 0
 849 458 726 555 618 648 c 1
 580 680 l 2
 484 762 367 840 377 899 c 0
 379 912 389 947 436 943 c 0
 497 938 536 851 560 788 c 1
 819 905 l 1
 764 1085 612 1206 414 1206 c 0
 216 1206 40 1063 40 867 c 1
 39 740 157 603 264 513 c 2
 309 475 l 2
 388 408 495 335 496 287 c 0
 497 251 473 227 444 227 c 0
 370 227 328 330 297 402 c 1
 22 315 l 1
 88.652 82.247 253.241 -22 454 -22 c 0
EndSplineSet
EndChar

StartChar: section
Encoding: 253 167 421
Width: 1001
VWidth: 0
GlyphClass: 2
Flags: W
HStem: -13 251<411.332 594.335> 1485 245<421.787 607.957>
VStem: 608 283<254.154 427.494 780.335 909.061>
LayerCount: 2
UndoRedoHistory
Layer: 1
Undoes
EndUndoes
Redoes
EndRedoes
EndUndoRedoHistory
Fore
SplineSet
538 764 m 1
 404 836 l 2
 377 850 370 879 370 898 c 0
 370 934 400 963 457 976 c 1
 551 921 l 2
 600 892 611 861 611 845 c 0
 611 805 571 784 538 764 c 1
491 -13 m 0
 750 -13 891 139 891 336 c 0
 891 458 830 542 710 638 c 1
 808 704 878 765 878 874 c 0
 879 1002 786 1094 675 1162 c 2
 560 1232 l 2
 508 1263 405 1306 405 1400 c 0
 405 1457 448 1483 506 1485 c 0
 602 1488 643 1407 665 1325 c 1
 898 1377 l 1
 850 1580 713 1730 493 1730 c 0
 273 1730 73 1603 89 1380 c 0
 97 1269 196 1160 282 1114 c 1
 199 1091 115 1009 104 893 c 0
 93 774 164 690 258 632 c 2
 420 533 l 2
 554 451 608 406 608 327 c 0
 608 275 568 238 499 238 c 0
 422 238 363 331 341 391 c 1
 100 332 l 1
 150 137 270 -13 491 -13 c 0
EndSplineSet
EndChar

StartChar: semicolon
Encoding: 59 59 422
Width: 494
VWidth: 0
GlyphClass: 2
Flags: W
HStem: -291 111<128 211.564>
VStem: 268 150.665<-123.303 0>
LayerCount: 2
UndoRedoHistory
Layer: 1
Undoes
EndUndoes
Redoes
EndRedoes
EndUndoRedoHistory
Fore
SplineSet
72 846 m 1
 416 846 l 1
 416 1184 l 1
 72 1184 l 1
 72 846 l 1
128 -291 m 1
 321.384 -289.421 418 -167 418.665 55 c 2
 419 341 l 1
 74 341 l 1
 74 0 l 1
 268 0 l 1
 268 -130 185 -164 113 -180 c 1
 128 -291 l 1
EndSplineSet
EndChar

StartChar: seven
Encoding: 55 55 423
Width: 1112
VWidth: 0
GlyphClass: 2
Flags: W
LayerCount: 2
UndoRedoHistory
Layer: 1
Undoes
EndUndoes
Redoes
EndRedoes
EndUndoRedoHistory
Fore
SplineSet
227 0 m 1
 603 0 l 1
 983 1379 l 1
 983 1658 l 1
 154 1658 l 1
 154 1370 l 1
 610 1370 l 1
 227 0 l 1
EndSplineSet
EndChar

StartChar: six
Encoding: 54 54 424
Width: 1112
VWidth: 0
GlyphClass: 2
Flags: W
HStem: -27 276<499.891 626.572> 757 293<514.542 628.503> 1400 284<501.046 623.052>
VStem: 87 391<273 518 706 745.873 1078 1380.9> 645 384<258.238 743.52>
LayerCount: 2
UndoRedoHistory
Layer: 1
Undoes
EndUndoes
Redoes
EndRedoes
EndUndoRedoHistory
Fore
SplineSet
569 249 m 0
 493 249 478 333 478 428 c 2
 478 706 l 1
 488 725 525 757 564 757 c 0
 643 757 645 670 645 522 c 0
 645 328 642 249 569 249 c 0
562 -27 m 0
 907 -27 1029 210 1029 573 c 0
 1029 839 931 1059 669 1050 c 0
 588 1047 509 1020 478 966 c 1
 478 1078 l 2
 478 1341 478 1400 563 1400 c 0
 637 1400 633 1346 633 1220 c 1
 989 1220 l 1
 989 1251 l 2
 989 1532 897 1684 560 1684 c 0
 174 1684 87 1458 87 1133 c 2
 87 518 l 2
 87 197 223 -27 562 -27 c 0
EndSplineSet
EndChar

StartChar: slash
Encoding: 47 47 425
Width: 902
VWidth: 0
GlyphClass: 2
Flags: W
LayerCount: 2
UndoRedoHistory
Layer: 1
Undoes
EndUndoes
Redoes
EndRedoes
EndUndoRedoHistory
Fore
SplineSet
99 0 m 1
 273 0 l 1
 803 1658 l 1
 628 1658 l 1
 99 0 l 1
EndSplineSet
EndChar

StartChar: sterling
Encoding: 484 163 427
Width: 1068
VWidth: 0
GlyphClass: 2
Flags: W
VStem: 181 355<1100 1363.38> 670 336<1159 1360.26>
LayerCount: 2
UndoRedoHistory
Layer: 1
Undoes
EndUndoes
Redoes
EndRedoes
EndUndoRedoHistory
Fore
SplineSet
57 0 m 1
 993 0 l 1
 993 322 l 1
 536 322 l 1
 536 635 l 1
 779 635 l 1
 779 925 l 1
 536 925 l 1
 536 1100 l 2
 536 1281 536 1371 602 1371 c 0
 670 1371 670 1283 670 1159 c 1
 1006 1159 l 1
 1006 1201 l 2
 1006 1479 943 1684 599 1684 c 0
 221 1684 181 1434 181 1114 c 2
 181 928 l 1
 57 928 l 1
 57 635 l 1
 181 635 l 1
 181 272 l 1
 57 215 l 1
 57 0 l 1
EndSplineSet
EndChar

StartChar: summation
Encoding: 65553 8721 428
Width: 894
VWidth: 0
Flags: W
LayerCount: 2
UndoRedoHistory
Layer: 1
Undoes
EndUndoes
Redoes
EndRedoes
EndUndoRedoHistory
Fore
SplineSet
55 -390 m 1
 863 -390 l 1
 863 -115 l 1
 478 -115 l 1
 700 693 l 1
 486 1382 l 1
 859 1382 l 1
 859 1658 l 1
 55 1658 l 1
 288 685 l 1
 55 -390 l 1
EndSplineSet
EndChar

StartChar: t
Encoding: 116 116 429
Width: 716
VWidth: 0
GlyphClass: 2
Flags: W
HStem: -13 313<300 688.682>
LayerCount: 2
UndoRedoHistory
Layer: 1
Undoes
EndUndoes
Redoes
EndRedoes
EndUndoRedoHistory
Fore
SplineSet
446 -13 m 0
 517 -13 625 -14 691 7 c 1
 691 304 l 1
 659 300 610 300 578 300 c 0
 525 300 501 321 501 361 c 2
 501 925 l 1
 655 925 l 1
 655 1184 l 1
 501 1184 l 1
 501 1550 l 1
 124 1550 l 1
 124 1184 l 1
 14 1184 l 1
 14 925 l 1
 124 925 l 1
 124 469 l 2
 124 234 154 -13 446 -13 c 0
EndSplineSet
EndChar

StartChar: tbar
Encoding: 485 359 430
Width: 664
VWidth: 0
GlyphClass: 2
Flags: W
HStem: -13 313<300 688.682>
LayerCount: 2
UndoRedoHistory
Layer: 1
Undoes
EndUndoes
Redoes
EndRedoes
EndUndoRedoHistory
Fore
SplineSet
446 -13 m 0
 517 -13 625 -14 691 7 c 1
 691 304 l 1
 659 300 610 300 578 300 c 0
 525 300 501 321 501 361 c 2
 501 925 l 1
 655 925 l 1
 655 1184 l 1
 501 1184 l 1
 501 1550 l 1
 124 1550 l 1
 124 1184 l 1
 14 1184 l 1
 14 925 l 1
 124 925 l 1
 124 469 l 2
 124 234 154 -13 446 -13 c 0
EndSplineSet
EndChar

StartChar: thorn
Encoding: 488 254 433
Width: 1044
VWidth: 0
GlyphClass: 2
Flags: W
LayerCount: 2
UndoRedoHistory
Layer: 1
Undoes
EndUndoes
Redoes
EndRedoes
EndUndoRedoHistory
Fore
SplineSet
88 -390 m 1
 460 -390 l 1
 460 -230.146734445 460 -70.2934688909 460 89.5597966637 c 1
 546.707951705 18.3754447675 639.508307475 -22 726 -22 c 0
 871 -22 972 93 972 303 c 2
 972 890 l 2
 972 1100 880 1199 726 1206 c 0
 647.505800351 1209.51466566 552.541101137 1177.34324892 460 1100.23970202 c 1
 460 1286.15980135 460 1472.07990067 460 1658 c 1
 88 1658 l 1
 88 -390 l 1
460 962.960428131 m 1
 485.86320131 981.213729849 509.01785442 993.364839479 526 996 c 0
 571 1003 599 966 599 925 c 2
 599 279 l 2
 599 238 571 206 526 207 c 0
 506.728975256 207.542845767 484.06911295 216.705126206 460 230.987571507 c 1
 460 962.960428131 l 1
EndSplineSet
EndChar

StartChar: three
Encoding: 51 51 434
Width: 1112
VWidth: 0
GlyphClass: 2
Flags: W
HStem: -35 324<492.219 628.353> 718 240<483 607.54> 1382 306<487.879 624.095>
VStem: 85 384<306.744 518 1200 1370.13> 651 378<302.226 679.321 1010.4 1364.12>
LayerCount: 2
UndoRedoHistory
Layer: 1
Undoes
EndUndoes
Redoes
EndRedoes
EndUndoRedoHistory
Fore
SplineSet
560 -35 m 0
 904 -35 1029 187 1029 494 c 0
 1029 735 941 824 838 865 c 1
 941 891 1029 1038 1029 1230 c 0
 1029 1536 846 1688 553 1688 c 0
 267 1688 85 1521 85 1211 c 2
 85 1095 l 1
 469 1095 l 1
 469 1200 l 2
 469 1309 484 1382 555 1382 c 0
 627 1382 651 1322 651 1200 c 0
 651 1037 625 958 483 958 c 2
 418 958 l 1
 418 718 l 1
 490 718 l 2
 626 718 651 643 651 481 c 0
 651 343 636 289 566 289 c 0
 493 289 469 339 469 511 c 2
 469 577 l 1
 85 577 l 1
 85 518 l 2
 85 192 185 -35 560 -35 c 0
EndSplineSet
EndChar

StartChar: threequarters
Encoding: 489 190 435
Width: 1306
VWidth: 0
GlyphClass: 2
Flags: W
HStem: 905 145<242.914 353.133> 1217 122<230 352.411> 1513 145<242.268 356.864>
VStem: 97 140<1054.07 1130 1433 1507.94> 359 157<1051.21 1208.38 1348.58 1511.8>
LayerCount: 2
UndoRedoHistory
Layer: 1
Undoes
EndUndoes
Redoes
EndRedoes
EndUndoRedoHistory
Fore
SplineSet
797 391 m 1
 944 644 l 1
 944 391 l 1
 797 391 l 1
137 0 m 1
 293 0 l 1
 1150 1658 l 1
 993 1658 l 1
 137 0 l 1
944 0 m 1
 1110 0 l 1
 1110 226 l 1
 1213 226 l 1
 1213 391 l 1
 1110 391 l 1
 1110 847 l 1
 960 847 l 1
 679 380 l 1
 679 226 l 1
 944 226 l 1
 944 0 l 1
315 905 m 0
 449 905 516 987 516 1132 c 0
 516 1220 484 1275 402 1292 c 1
 452 1300 510 1362 510 1447 c 0
 510 1583 456 1658 320 1658 c 0
 184 1658 97 1595 97 1433 c 1
 237 1433 l 1
 237 1481 252 1513 303 1513 c 0
 344 1513 362 1484 362 1426 c 0
 362 1355 323 1339 230 1339 c 1
 230 1217 l 1
 324 1217 359 1207 359 1129 c 0
 359 1082 342 1050 305 1050 c 0
 269 1050 237 1074 237 1130 c 1
 97 1130 l 1
 97 996 176 905 315 905 c 0
EndSplineSet
EndChar

StartChar: threesuperior
Encoding: 65554 -1 436
Width: 877
VWidth: 0
GlyphClass: 2
Flags: W
HStem: 602 232<401.758 508.928> 1142 172<397 495.75> 1618 220<398.54 506.254>
VStem: 112 275<838.133 998 1488 1609.46> 518 271<836.748 1124.02 1333.85 1613.03>
LayerCount: 2
UndoRedoHistory
Layer: 1
Undoes
EndUndoes
Redoes
EndRedoes
EndUndoRedoHistory
Fore
SplineSet
453 602 m 0
 699 602 789 761 789 981 c 0
 789 1154 726 1218 652 1247 c 1
 726 1266 789 1371 789 1509 c 0
 789 1729 658 1838 448 1838 c 0
 243 1838 112 1718 112 1495 c 2
 112 1412 l 1
 387 1412 l 1
 387 1488 l 2
 387 1566 398 1618 449 1618 c 0
 501 1618 518 1575 518 1488 c 0
 518 1371 499 1314 397 1314 c 2
 351 1314 l 1
 351 1142 l 1
 402 1142 l 2
 500 1142 518 1088 518 972 c 0
 518 873 507 834 457 834 c 0
 405 834 387 870 387 993 c 2
 387 1041 l 1
 112 1041 l 1
 112 998 l 2
 112 765 184 602 453 602 c 0
EndSplineSet
EndChar

StartChar: tilde
Encoding: 490 732 437
Width: 867
VWidth: 0
GlyphClass: 2
Flags: W
VStem: 116 171<1357 1436.41> 618 155<1586.31 1658>
LayerCount: 2
UndoRedoHistory
Layer: 1
Undoes
EndUndoes
Redoes
EndRedoes
EndUndoRedoHistory
Fore
SplineSet
650 1347 m 0
 763 1358 774 1522 773 1658 c 1
 618 1658 l 1
 618 1619 604 1576 554 1585 c 0
 504 1594 411 1683 282 1670 c 0
 141 1656 115 1536 116 1357 c 1
 287 1357 l 1
 287 1392 297 1441 347 1441 c 0
 419 1441 551 1337 650 1347 c 0
EndSplineSet
EndChar

StartChar: tildecomb
Encoding: 589 771 438
Width: 867
VWidth: 0
GlyphClass: 2
Flags: W
VStem: 116 171<1357 1436.41> 618 155<1586.31 1658>
LayerCount: 2
UndoRedoHistory
Layer: 1
Undoes
EndUndoes
Redoes
EndRedoes
EndUndoRedoHistory
Fore
SplineSet
650 1347 m 0
 763 1358 774 1522 773 1658 c 1
 618 1658 l 1
 618 1619 604 1576 554 1585 c 0
 504 1594 411 1683 282 1670 c 0
 141 1656 115 1536 116 1357 c 1
 287 1357 l 1
 287 1392 297 1441 347 1441 c 0
 419 1441 551 1337 650 1347 c 0
EndSplineSet
EndChar

StartChar: trademark
Encoding: 491 8482 439
Width: 1874
VWidth: 0
GlyphClass: 2
Flags: W
VStem: 1195 153<618 681.63>
LayerCount: 2
UndoRedoHistory
Layer: 1
Undoes
EndUndoes
Redoes
EndRedoes
EndUndoRedoHistory
Fore
SplineSet
325 618 m 1
 567 618 l 1
 567 1433 l 1
 765 1433 l 1
 765 1658 l 1
 130 1658 l 1
 130 1433 l 1
 325 1433 l 1
 325 618 l 1
837 618 m 1
 1065 618 l 1
 1065 1201 l 1
 1195 618 l 1
 1348 618 l 1
 1478 1195 l 1
 1478 618 l 1
 1708 618 l 1
 1708 1658 l 1
 1368 1658 l 1
 1270 1159 l 1
 1169 1658 l 1
 837 1658 l 1
 837 618 l 1
EndSplineSet
EndChar

StartChar: tt
Encoding: 492 -1 440
Width: 1208
VWidth: 0
GlyphClass: 2
Flags: W
HStem: -13 313<257 625.696 844 1212.7> 7 297<537.497 628 1123.5 1215>
LayerCount: 2
UndoRedoHistory
Layer: 1
Undoes
EndUndoes
Redoes
EndRedoes
EndUndoRedoHistory
Fore
SplineSet
403 -13 m 0x80
 473 -13 562 -14 628 7 c 1
 628 304 l 1x40
 596 300 568 300 536 300 c 0
 483 300 457 321 457 361 c 2
 457 958 l 1
 668 958 l 1
 668 469 l 2
 668 234 698 -13 990 -13 c 0x80
 1060 -13 1149 -14 1215 7 c 1
 1215 304 l 1x40
 1183 300 1154 300 1122 300 c 0
 1069 300 1044 321 1044 361 c 2
 1044 958 l 1
 1179 958 l 1
 1179 1217 l 1
 1044 1217 l 1
 1044 1605 l 1
 668 1605 l 1
 668 1217 l 1
 457 1217 l 1
 457 1605 l 1
 81 1605 l 1
 81 1217 l 1
 21 1217 l 1
 21 958 l 1
 81 958 l 1
 81 469 l 2
 81 234 111 -13 403 -13 c 0x80
EndSplineSet
EndChar

StartChar: two
Encoding: 50 50 441
Width: 1112
VWidth: 0
GlyphClass: 2
Flags: W
VStem: 658 378<1094.49 1346.27>
LayerCount: 2
UndoRedoHistory
Layer: 1
Undoes
EndUndoes
Redoes
EndRedoes
EndUndoRedoHistory
Fore
SplineSet
93 0 m 1
 988 0 l 1
 988 303 l 1
 538 303 l 1
 795 704 l 2
 903 873 1036 1034 1036 1244 c 0
 1036 1521 855 1688 559 1688 c 0
 221 1688 83 1455 83 1163 c 2
 83 1066 l 1
 462 1066 l 1
 462 1099 462 1129 463 1155 c 0
 468 1301 487 1342 540 1357 c 0
 601 1374 658 1341 658 1250 c 0
 658 1120 548 993 477 886 c 2
 93 303 l 1
 93 0 l 1
EndSplineSet
EndChar

StartChar: twosuperior
Encoding: 65555 -1 442
Width: 878
VWidth: 0
GlyphClass: 2
Flags: W
VStem: 123 270<1391 1590.46> 533 269<1391.23 1599.08>
LayerCount: 2
UndoRedoHistory
Layer: 1
Undoes
EndUndoes
Redoes
EndRedoes
EndUndoRedoHistory
Fore
SplineSet
130 624 m 1
 768 624 l 1
 768 842 l 1
 447 842 l 1
 630 1130 l 2
 707 1252 802 1368 802 1519 c 0
 802 1718 673 1838 462 1838 c 0
 221 1838 123 1670 123 1460 c 2
 123 1391 l 1
 393 1391 l 1
 393 1548 404 1587 449 1600 c 0
 492 1612 533 1588 533 1523 c 0
 533 1429 454 1338 404 1261 c 2
 130 842 l 1
 130 624 l 1
EndSplineSet
EndChar

StartChar: u
Encoding: 117 117 443
Width: 1042
VWidth: 0
GlyphClass: 2
Flags: W
HStem: -22 258<312 507>
AnchorPoint: "ogonek" 768 0 basechar 0
LayerCount: 2
UndoRedoHistory
Layer: 1
Undoes
EndUndoes
Redoes
EndRedoes
EndUndoRedoHistory
Fore
SplineSet
957 1184 m 1
 585 1184 l 1
 585 261.381018125 l 1
 553.773043235 244.127931806 526.817458254 237.100969903 507 236 c 0
 464 234 450 260 450 308 c 2
 450 1184 l 1
 78 1184 l 1
 78 267 l 2
 78 93 167 -22 312 -22 c 0
 408.752216378 -22 497.1513768 4.10329986053 585 87.5199745144 c 1
 585 0 l 1
 957 0 l 1
 957 1184 l 1
EndSplineSet
EndChar

StartChar: uc_horiz_bar
Encoding: 65556 -1 446
Width: 500
VWidth: 0
GlyphClass: 2
Flags: W
HStem: 0 316
LayerCount: 2
UndoRedoHistory
Layer: 1
Undoes
EndUndoes
Redoes
EndRedoes
EndUndoRedoHistory
Fore
SplineSet
82 0 m 1
 845 0 l 1
 845 316 l 1
 82 316 l 1
 82 0 l 1
EndSplineSet
EndChar

StartChar: uc_main_stem
Encoding: 495 -1 447
Width: 0
VWidth: 0
GlyphClass: 2
Flags: W
VStem: 81 412
LayerCount: 2
UndoRedoHistory
Layer: 1
Undoes
EndUndoes
Redoes
EndRedoes
EndUndoRedoHistory
Fore
SplineSet
81 0 m 1
 493 0 l 1
 493 1658 l 1
 81 1658 l 1
 81 0 l 1
EndSplineSet
EndChar

StartChar: uc_part_stem
Encoding: 496 -1 448
Width: 0
VWidth: 0
GlyphClass: 2
Flags: W
VStem: 81 412
LayerCount: 2
UndoRedoHistory
Layer: 1
Undoes
EndUndoes
Redoes
EndRedoes
EndUndoRedoHistory
Fore
SplineSet
81 362 m 1
 493 362 l 1
 493 1658 l 1
 81 1658 l 1
 81 362 l 1
EndSplineSet
EndChar

StartChar: underscore
Encoding: 95 95 454
Width: 712
VWidth: 0
GlyphClass: 2
Flags: W
HStem: -278 243
LayerCount: 2
UndoRedoHistory
Layer: 1
Undoes
EndUndoes
Redoes
EndRedoes
EndUndoRedoHistory
Fore
SplineSet
-28.5 -278 m 1
 740.5 -278 l 1
 740.5 -35 l 1
 -28.5 -35 l 1
 -28.5 -278 l 1
EndSplineSet
EndChar

StartChar: uni00AD
Encoding: 173 173 457
Width: 781
VWidth: 0
GlyphClass: 2
Flags: W
HStem: 383 286
VStem: 138 526
LayerCount: 2
UndoRedoHistory
Layer: 1
Undoes
EndUndoes
Redoes
EndRedoes
EndUndoRedoHistory
Fore
SplineSet
138 383 m 1
 664 383 l 1
 664 669 l 1
 138 669 l 1
 138 383 l 1
EndSplineSet
EndChar

StartChar: uni00B2
Encoding: 502 178 458
Width: 599
VWidth: 0
GlyphClass: 2
Flags: W
VStem: 304 232<927.177 1112.35>
LayerCount: 2
UndoRedoHistory
Layer: 1
Undoes
EndUndoes
Redoes
EndRedoes
EndUndoRedoHistory
Fore
SplineSet
51 524 m 1
 542 524 l 1
 542 686 l 1
 292 686 l 1
 343 754 339 704 427 826 c 1
 493 913 536 989 536 1049 c 0
 536 1194 437 1277 289 1277 c 0
 139 1277 50 1186 50 1052 c 1
 284 1052 l 1
 284 1052 266 1115 288 1115 c 0
 325 1115 304 1050 304 1050 c 1
 304 1015 289 973 249 910 c 0
 137 731 88 725 51 676 c 1
 51 524 l 1
EndSplineSet
EndChar

StartChar: uni00B3
Encoding: 503 179 459
Width: 769
VWidth: 0
GlyphClass: 2
Flags: W
VStem: 135 237<773.52 833 1136 1194.81> 388 238<774.78 832 1055.49 1198.58>
LayerCount: 2
UndoRedoHistory
Layer: 1
Undoes
EndUndoes
Redoes
EndRedoes
EndUndoRedoHistory
Fore
SplineSet
379 608 m 0
 529 608 626 687 626 832 c 0
 626 920 594 951 518 975 c 1
 594 1003 626 1045 626 1130 c 0
 626 1286 526 1361 374 1361 c 0
 222 1361 135 1268 135 1136 c 1
 372 1136 l 1
 372 1136 355 1200 374 1200 c 0
 408 1200 388 1136 388 1133 c 0
 388 1043 365 1049 284 1062 c 1
 284 890 l 1
 369 898 388 924 388 832 c 1
 388 839 410 770 378 770 c 0
 356 770 372 833 372 833 c 1
 135 833 l 1
 135 699 223 608 379 608 c 0
EndSplineSet
EndChar

StartChar: uni00B9
Encoding: 504 185 460
Width: 731
VWidth: 0
GlyphClass: 2
Flags: W
VStem: 74 506<1550 1572.53>
LayerCount: 2
UndoRedoHistory
Layer: 1
Undoes
EndUndoes
Redoes
EndRedoes
EndUndoRedoHistory
Fore
SplineSet
580 442 m 1
 580 1658 l 1
 239 1658 l 1
 226 1646 115 1563 74 1550 c 1
 74 1317 l 1
 239 1405 l 1
 239 442 l 1
 580 442 l 1
EndSplineSet
EndChar

StartChar: uni0237
Encoding: 546 567 501
Width: 579
VWidth: 0
GlyphClass: 2
Flags: W
HStem: -393 289<-15.0539 287.5>
LayerCount: 2
UndoRedoHistory
Layer: 1
Undoes
EndUndoes
Redoes
EndRedoes
EndUndoRedoHistory
Fore
SplineSet
494 -65 m 2
 494 1184 l 1
 122 1184 l 1
 122 -19 l 2
 122 -86 85 -104 42 -104 c 0
 23 -104 3 -99 -17 -95 c 1
 -17 -362 l 1
 46 -379 111 -393 183 -393 c 0
 392 -393 494 -253 494 -65 c 2
EndSplineSet
EndChar

StartChar: uni0302
Encoding: 588 770 502
Width: 876
VWidth: 0
GlyphClass: 2
Flags: W
HStem: 1253 405
LayerCount: 2
UndoRedoHistory
Layer: 1
Undoes
EndUndoes
Redoes
EndRedoes
EndUndoRedoHistory
Fore
SplineSet
102 1253 m 1
 372 1253 l 1
 449 1497 l 1
 527 1253 l 1
 798 1253 l 1
 591 1658 l 1
 301 1658 l 1
 102 1253 l 1
EndSplineSet
EndChar

StartChar: uni0304
Encoding: 590 772 503
Width: 278
VWidth: 0
GlyphClass: 2
Flags: W
HStem: 1495 163
VStem: -138 562
LayerCount: 2
UndoRedoHistory
Layer: 1
Undoes
EndUndoes
Redoes
EndRedoes
EndUndoRedoHistory
Fore
SplineSet
-138 1495 m 1
 424 1495 l 1
 424 1658 l 1
 -138 1658 l 1
 -138 1495 l 1
EndSplineSet
EndChar

StartChar: uni0306
Encoding: 591 774 504
Width: 650
VWidth: 0
GlyphClass: 2
Flags: W
HStem: 1423 138<207.478 402.896>
VStem: 46 150<1577.64 1658> 415 149<1578.01 1658>
LayerCount: 2
UndoRedoHistory
Layer: 1
Undoes
EndUndoes
Redoes
EndRedoes
EndUndoRedoHistory
Fore
SplineSet
305 1423 m 0
 451 1423 564 1501 564 1658 c 1
 415 1658 l 1
 415 1594 385 1561 305 1561 c 0
 225 1561 196 1593 196 1658 c 1
 46 1658 l 1
 46 1500 159 1423 305 1423 c 0
EndSplineSet
EndChar

StartChar: uni0307
Encoding: 592 775 505
Width: 519
VWidth: 0
GlyphClass: 2
Flags: W
HStem: 1318 340
VStem: 83 348
LayerCount: 2
UndoRedoHistory
Layer: 1
Undoes
EndUndoes
Redoes
EndRedoes
EndUndoRedoHistory
Fore
SplineSet
83 1318 m 1
 431 1318 l 1
 431 1658 l 1
 83 1658 l 1
 83 1318 l 1
EndSplineSet
EndChar

StartChar: uni0308
Encoding: 593 776 506
Width: 886
VWidth: 0
GlyphClass: 2
Flags: W
HStem: 1330 328
LayerCount: 2
UndoRedoHistory
Layer: 1
Undoes
EndUndoes
Redoes
EndRedoes
EndUndoRedoHistory
Fore
SplineSet
540 1330 m 1
 821 1330 l 1
 821 1658 l 1
 540 1658 l 1
 540 1330 l 1
65 1330 m 1
 346 1330 l 1
 346 1658 l 1
 65 1658 l 1
 65 1330 l 1
EndSplineSet
EndChar

StartChar: uni030A
Encoding: 594 778 507
Width: 0
VWidth: 0
GlyphClass: 2
Flags: W
HStem: 1237 119<-89.5545 68.3332> 1565 119<-89.5545 68.1397>
VStem: -250 144<1372.02 1549.43> 86 148<1371.36 1549.89>
LayerCount: 2
UndoRedoHistory
Layer: 1
Undoes
EndUndoes
Redoes
EndRedoes
EndUndoRedoHistory
Fore
SplineSet
-9 1237 m 0
 118 1237 234 1310 234 1461 c 0
 234 1611 117 1684 -9 1684 c 0
 -135 1684 -250 1612 -250 1461 c 0
 -250 1310 -135 1237 -9 1237 c 0
-9 1356 m 0
 -74 1356 -106 1408 -106 1461 c 0
 -106 1513 -74 1565 -9 1565 c 0
 55 1565 86 1513 86 1461 c 0
 86 1408 55 1356 -9 1356 c 0
EndSplineSet
EndChar

StartChar: uni030C
Encoding: 595 780 508
Width: 868
VWidth: 0
GlyphClass: 2
Flags: W
HStem: 1269 389
LayerCount: 2
UndoRedoHistory
Layer: 1
Undoes
EndUndoes
Redoes
EndRedoes
EndUndoRedoHistory
Fore
SplineSet
252 1269 m 1
 606 1269 l 1
 790 1658 l 1
 530 1658 l 1
 430 1441 l 1
 334 1658 l 1
 75 1658 l 1
 252 1269 l 1
EndSplineSet
EndChar

StartChar: uni030F
Encoding: 547 783 509
Width: 1011
VWidth: 0
GlyphClass: 2
Flags: W
HStem: 1264 448
LayerCount: 2
UndoRedoHistory
Layer: 1
Undoes
EndUndoes
Redoes
EndRedoes
EndUndoRedoHistory
Fore
SplineSet
677 1264 m 1
 879 1264 l 1
 743 1712 l 1
 480 1712 l 1
 677 1264 l 1
288 1264 m 1
 493 1264 l 1
 358 1712 l 1
 92 1712 l 1
 288 1264 l 1
EndSplineSet
EndChar

StartChar: uni0311
Encoding: 548 785 510
Width: 650
VWidth: 0
GlyphClass: 2
Flags: W
HStem: 1520 138<207.104 402.522>
VStem: 46 149<1423 1502.99> 414 150<1423 1503.36>
LayerCount: 2
UndoRedoHistory
Layer: 1
Undoes
EndUndoes
Redoes
EndRedoes
EndUndoRedoHistory
Fore
SplineSet
305 1658 m 0
 159 1658 46 1580 46 1423 c 1
 195 1423 l 1
 195 1487 225 1520 305 1520 c 0
 385 1520 414 1488 414 1423 c 1
 564 1423 l 1
 564 1581 451 1658 305 1658 c 0
EndSplineSet
EndChar

StartChar: uni0326
Encoding: 549 806 511
Width: 457
VWidth: 0
GlyphClass: 2
Flags: W
HStem: -699 111<101 184.564>
VStem: 241 150.665<-531.303 -408>
LayerCount: 2
UndoRedoHistory
Layer: 1
Undoes
EndUndoes
Redoes
EndRedoes
EndUndoRedoHistory
Fore
SplineSet
101 -699 m 1
 294.384 -697.421 391 -575 391.665 -353 c 2
 392 -67 l 1
 47 -67 l 1
 47 -408 l 1
 241 -408 l 1
 241 -538 158 -572 86 -588 c 1
 101 -699 l 1
EndSplineSet
EndChar

StartChar: uni2074
Encoding: 565 8308 526
Width: 1011
VWidth: 0
GlyphClass: 2
Flags: W
LayerCount: 2
UndoRedoHistory
Layer: 1
Undoes
EndUndoes
Redoes
EndRedoes
EndUndoRedoHistory
Fore
SplineSet
269 862 m 1
 464 1284 l 1
 464 862 l 1
 269 862 l 1
464 402 m 1
 805 402 l 1
 805 693 l 1
 936 693 l 1
 936 862 l 1
 805 862 l 1
 805 1658 l 1
 454 1658 l 1
 83 858 l 1
 83 693 l 1
 464 693 l 1
 464 402 l 1
EndSplineSet
EndChar

StartChar: uni2215
Encoding: 65558 -1 527
Width: 901
VWidth: 0
Flags: W
LayerCount: 2
UndoRedoHistory
Layer: 1
Undoes
EndUndoes
Redoes
EndRedoes
EndUndoRedoHistory
Fore
SplineSet
99 0 m 1
 273 0 l 1
 803 1658 l 1
 628 1658 l 1
 99 0 l 1
EndSplineSet
EndChar

StartChar: uni2219
Encoding: 65559 -1 528
Width: 497
VWidth: 0
Flags: W
HStem: 601 338
VStem: 76 346
LayerCount: 2
UndoRedoHistory
Layer: 1
Undoes
EndUndoes
Redoes
EndRedoes
EndUndoRedoHistory
Fore
SplineSet
76 601 m 1
 422 601 l 1
 422 939 l 1
 76 939 l 1
 76 601 l 1
EndSplineSet
EndChar

StartChar: uniFB00
Encoding: 566 64256 529
Width: 1250
VWidth: 0
GlyphClass: 2
Flags: W
HStem: 1303 291<492.775 630 1097.78 1236>
VStem: 80 32<1202.43 1217>
LayerCount: 2
UndoRedoHistory
Layer: 1
Undoes
EndUndoes
Redoes
EndRedoes
EndUndoRedoHistory
Fore
SplineSet
112 0 m 1
 490 0 l 1
 490 958 l 1
 718 958 l 1
 718 0 l 1
 1095 0 l 1
 1095 958 l 1
 1230 958 l 1
 1230 1217 l 1
 1095 1217 l 1
 1095 1225 l 2
 1095 1308 1129 1303 1151 1303 c 0
 1170 1303 1236 1298 1236 1298 c 1
 1236 1580.39298791 l 1
 1223.88711966 1580.18135934 1105.46993342 1594 1009 1594 c 0
 784 1594 727 1427 719 1203 c 0
 719 1190 718 1217 718 1217 c 1
 490 1217 l 1
 490 1225 l 2
 490 1308 524 1303 545 1303 c 0
 565 1303 630 1298 630 1298 c 1
 630 1580.39062619 l 1
 617.146640838 1580.36216968 498.94105338 1594 404 1594 c 0
 178 1594 121 1427 114 1203 c 0
 114 1190 112 1230 112 1217 c 1
 80 1217 l 1
 80 958 l 1
 112 958 l 1
 112 0 l 1
630 1580.39062619 m 1
 630 1581 l 1
 631.564945276 1580.58268126 631.497188074 1580.39394087 630 1580.39062619 c 1
1236 1580.39298791 m 1
 1236 1581 l 1
 1237.37776572 1580.60635265 1237.32216777 1580.41608799 1236 1580.39298791 c 1
EndSplineSet
EndChar

StartChar: uniFB01
Encoding: 567 64257 530
Width: 1179
VWidth: 0
GlyphClass: 2
Flags: W
HStem: 1303 277.391<492.775 630>
VStem: 80 32<1202.43 1217>
LayerCount: 2
UndoRedoHistory
Layer: 1
Undoes
EndUndoes
Redoes
EndRedoes
EndUndoRedoHistory
Fore
SplineSet
726 1256 m 1
 1103 1256 l 1
 1103 1593 l 1
 726 1593 l 1
 726 1256 l 1
112 0 m 1
 490 0 l 1
 490 958 l 1
 726 958 l 1
 726 0 l 1
 1103 0 l 1
 1103 1217 l 1
 490 1217 l 1
 490 1225 l 2
 490 1308 524 1303 545 1303 c 0
 565 1303 630 1298 630 1298 c 1
 630 1580.39062619 l 1
 617.146640838 1580.36216968 498.94105338 1594 404 1594 c 0
 178 1594 121 1427 114 1203 c 0
 114 1190 112 1230 112 1217 c 1
 80 1217 l 1
 80 958 l 1
 112 958 l 1
 112 0 l 1
630 1580.39062619 m 1
 630 1581 l 1
 631.564945276 1580.58268126 631.497188074 1580.39394087 630 1580.39062619 c 1
EndSplineSet
EndChar

StartChar: uniFB02
Encoding: 568 64258 531
Width: 1152
VWidth: 0
GlyphClass: 2
Flags: W
VStem: 80 32<1186.43 1217>
LayerCount: 2
UndoRedoHistory
Layer: 1
Undoes
EndUndoes
Redoes
EndRedoes
EndUndoRedoHistory
Fore
SplineSet
112 0 m 1
 490 0 l 1
 490 958 l 1
 626 958 l 1
 626 1217 l 1
 490 1217 l 1
 490 1225 l 2
 490 1282 501 1301 517 1301 c 0
 546 1301 632 1302 707 1299 c 1
 707 0 l 1
 1085 0 l 1
 1085 1580 l 1
 723 1595 517 1594 403 1594 c 0
 133 1594 121 1355 114 1187 c 0
 114 1174 112 1217 112 1217 c 1
 80 1217 l 1
 80 958 l 1
 112 958 l 1
 112 0 l 1
EndSplineSet
EndChar

StartChar: uniFB03
Encoding: 569 64259 532
Width: 1814
VWidth: 0
GlyphClass: 2
Flags: W
HStem: 1303 291<492.775 630 1097.78 1236>
VStem: 80 32<1202.43 1217>
LayerCount: 2
UndoRedoHistory
Layer: 1
Undoes
EndUndoes
Redoes
EndRedoes
EndUndoRedoHistory
Fore
SplineSet
1362 1256 m 1
 1739 1256 l 1
 1739 1593 l 1
 1362 1593 l 1
 1362 1256 l 1
112 0 m 1
 490 0 l 1
 490 958 l 1
 718 958 l 1
 718 0 l 1
 1095 0 l 1
 1095 958 l 1
 1362 958 l 1
 1362 0 l 1
 1739 0 l 1
 1739 1217 l 1
 1095 1217 l 1
 1095 1225 l 2
 1095 1308 1129 1303 1151 1303 c 0
 1170 1303 1236 1298 1236 1298 c 1
 1236 1580.39298791 l 1
 1223.88711966 1580.18135934 1105.46993342 1594 1009 1594 c 0
 784 1594 727 1427 719 1203 c 0
 719 1190 718 1217 718 1217 c 1
 490 1217 l 1
 490 1225 l 2
 490 1308 524 1303 545 1303 c 0
 565 1303 630 1298 630 1298 c 1
 630 1580.39062619 l 1
 617.146640838 1580.36216968 498.94105338 1594 404 1594 c 0
 178 1594 121 1427 114 1203 c 0
 114 1190 112 1230 112 1217 c 1
 80 1217 l 1
 80 958 l 1
 112 958 l 1
 112 0 l 1
630 1580.39062619 m 1
 630 1581 l 1
 631.564945276 1580.58268126 631.497188074 1580.39394087 630 1580.39062619 c 1
1236 1580.39298791 m 1
 1236 1581 l 1
 1237.37776572 1580.60635265 1237.32216777 1580.41608799 1236 1580.39298791 c 1
EndSplineSet
EndChar

StartChar: uniFB04
Encoding: 570 64260 533
Width: 1809
VWidth: 0
GlyphClass: 2
Flags: W
HStem: 1301 293<492.311 630 1153.02 1360.26>
VStem: 80 32<1202.43 1217>
LayerCount: 2
UndoRedoHistory
Layer: 1
Undoes
EndUndoes
Redoes
EndRedoes
EndUndoRedoHistory
Fore
SplineSet
112 0 m 1
 490 0 l 1
 490 958 l 1
 771 958 l 1
 771 0 l 1
 1148 0 l 1
 1148 958 l 1
 1261 958 l 1
 1261 1217 l 1
 1148 1217 l 1
 1148 1225 l 2
 1148 1282 1183 1301 1253 1301 c 0
 1267 1301 1302 1302 1366 1300 c 1
 1366 0 l 1
 1743 0 l 1
 1743 1566 l 1
 1382 1596 1192 1594 1088 1594 c 0
 796 1594 780 1355 772 1187 c 1
 771 1217 l 1
 490 1217 l 1
 490 1225 l 2
 490 1308 524 1303 545 1303 c 0
 565 1303 630 1298 630 1298 c 1
 630 1580.39062619 l 1
 617.146640838 1580.36216968 498.94105338 1594 404 1594 c 0
 178 1594 121 1427 114 1203 c 0
 114 1190 112 1230 112 1217 c 1
 80 1217 l 1
 80 958 l 1
 112 958 l 1
 112 0 l 1
630 1580.39062619 m 1
 630 1581 l 1
 631.564945276 1580.58268126 631.497188074 1580.39394087 630 1580.39062619 c 1
EndSplineSet
EndChar

StartChar: v
Encoding: 118 118 537
Width: 888
VWidth: 0
GlyphClass: 2
Flags: W
LayerCount: 2
UndoRedoHistory
Layer: 1
Undoes
EndUndoes
Redoes
EndRedoes
EndUndoRedoHistory
Fore
SplineSet
262 0 m 1
 634 0 l 1
 870 1184 l 1
 517 1184 l 1
 452 496 l 1
 370 1184 l 1
 18 1184 l 1
 262 0 l 1
EndSplineSet
EndChar

StartChar: w
Encoding: 119 119 538
Width: 1230
VWidth: 0
GlyphClass: 2
Flags: W
VStem: 495 266<1063.34 1184>
LayerCount: 2
UndoRedoHistory
Layer: 1
Undoes
EndUndoes
Redoes
EndRedoes
EndUndoRedoHistory
Fore
SplineSet
207 0 m 1
 520 0 l 1
 618 608 l 1
 700 0 l 1
 1019 0 l 1
 1192 1184 l 1
 906 1184 l 1
 815 557 l 1
 761 1184 l 1
 495 1184 l 1
 423 578 l 1
 350 1184 l 1
 38 1184 l 1
 207 0 l 1
EndSplineSet
EndChar

StartChar: x
Encoding: 120 120 543
Width: 945
VWidth: 0
GlyphClass: 2
Flags: W
LayerCount: 2
UndoRedoHistory
Layer: 1
Undoes
EndUndoes
Redoes
EndRedoes
EndUndoRedoHistory
Fore
SplineSet
551 0 m 1
 932 0 l 1
 665.911486314 601.238168329 l 1
 889 1184 l 1
 619 1184 l 1
 520.71865015 929.307477523 l 1
 408 1184 l 1
 30 1184 l 1
 261.158333937 658.680484873 l 1
 13 0 l 1
 314 0 l 1
 418.782932758 300.470264135 l 1
 551 0 l 1
EndSplineSet
EndChar

StartChar: y
Encoding: 121 121 544
Width: 957
VWidth: 0
GlyphClass: 2
Flags: W
HStem: -361 252<152 316.854>
LayerCount: 2
UndoRedoHistory
Layer: 1
Undoes
EndUndoes
Redoes
EndRedoes
EndUndoRedoHistory
Fore
SplineSet
152 -361 m 1
 207 -361 l 1
 403 -364 605 -303 657 -65 c 2
 935 1184 l 1
 590 1184 l 1
 491 568 l 1
 344 1184 l 1
 -1 1184 l 1
 291 190 l 2
 302 153 336 26 336 -5 c 0
 336 -99 263 -109 152 -109 c 1
 152 -361 l 1
EndSplineSet
EndChar

StartChar: yen
Encoding: 581 165 548
Width: 986
VWidth: 0
GlyphClass: 2
Flags: W
LayerCount: 2
UndoRedoHistory
Layer: 1
Undoes
EndUndoes
Redoes
EndRedoes
EndUndoRedoHistory
Fore
SplineSet
295 0 m 1
 691 0 l 1
 691 247 l 1
 859 247 l 1
 859 418 l 1
 691 418 l 1
 691 558 l 1
 859 558 l 1
 859 737 l 1
 738.554644809 737 l 1
 986 1658 l 1
 614 1658 l 1
 510 1077 l 1
 384 1658 l 1
 -5 1658 l 1
 246.639344262 737 l 1
 129 737 l 1
 129 558 l 1
 295 558 l 1
 295 418 l 1
 129 418 l 1
 129 247 l 1
 295 247 l 1
 295 0 l 1
EndSplineSet
EndChar

StartChar: z
Encoding: 122 122 550
Width: 778
VWidth: 0
GlyphClass: 2
Flags: W
VStem: 56 676
LayerCount: 2
UndoRedoHistory
Layer: 1
Undoes
EndUndoes
Redoes
EndRedoes
EndUndoRedoHistory
Fore
SplineSet
56 0 m 1
 732 0 l 1
 732 271 l 1
 440 271 l 1
 730 952 l 1
 730 1184 l 1
 77 1184 l 1
 77 914 l 1
 349 914 l 1
 56 238 l 1
 56 0 l 1
EndSplineSet
EndChar

StartChar: zero
Encoding: 48 48 554
Width: 1059
VWidth: 0
GlyphClass: 2
Flags: W
VStem: 62 395<322.788 500 1148 1329.91> 602 392<324.336 500 1148 1328.72>
LayerCount: 2
UndoRedoHistory
Layer: 1
Undoes
EndUndoes
Redoes
EndRedoes
EndUndoRedoHistory
Fore
SplineSet
529 -35 m 0
 828 -35 994 211 994 487 c 2
 994 1162 l 2
 994 1449 847 1686 529 1686 c 0
 209 1686 62 1451 62 1162 c 2
 62 487 l 2
 62 207 223 -35 529 -35 c 0
529 312 m 0
 454 312 457 468 457 500 c 2
 457 1148 l 2
 457 1185 443 1337 529 1337 c 0
 613 1337 602 1185 602 1148 c 2
 602 500 l 2
 602 467 605 312 529 312 c 0
EndSplineSet
EndChar

StartChar: uni04C0
Encoding: 598 1216 555
Width: 608
VWidth: 0
VStem: 98 412
LayerCount: 2
UndoRedoHistory
Layer: 1
Undoes
EndUndoes
Redoes
EndRedoes
EndUndoRedoHistory
Fore
SplineSet
98 0 m 1
 510 0 l 1
 510 1658 l 1
 98 1658 l 1
 98 0 l 1
EndSplineSet
EndChar

StartChar: uni02BC
Encoding: 599 700 556
Width: 314
VWidth: 0
HStem: 1005 653
VStem: 10 176<1005 1081.73>
LayerCount: 2
UndoRedoHistory
Layer: 1
Undoes
EndUndoes
Redoes
EndRedoes
EndUndoRedoHistory
Fore
SplineSet
10 1005 m 1
 186 1005 l 1
 308 1658 l 1
 10 1658 l 1
 10 1005 l 1
EndSplineSet
EndChar

StartChar: uni0490
Encoding: 603 1168 560
Width: 970
VWidth: 0
Flags: W
LayerCount: 2
UndoRedoHistory
Layer: 1
Undoes
EndUndoes
Redoes
EndRedoes
EndUndoRedoHistory
Fore
SplineSet
98 0 m 1
 510 0 l 1
 510 1353 l 1
 910 1353 l 1
 910 1658 l 1
 98 1658 l 1
 98 0 l 1
672 1353 m 5
 910 1353 l 5
 910 1943 l 5
 672 1943 l 5
 672 1353 l 5
EndSplineSet
EndChar

StartChar: afii10068
Encoding: 604 1075 561
Width: 738
VWidth: 0
Flags: W
VStem: 85 628
LayerCount: 2
UndoRedoHistory
Layer: 1
Undoes
EndUndoes
Redoes
EndRedoes
EndUndoRedoHistory
Fore
SplineSet
515 948 m 1
 713 948 l 1
 713 1438 l 5
 515 1438 l 5
 515 948 l 1
85 0 m 1
 457 0 l 1
 457 948 l 1
 713 948 l 1
 713 1184 l 1
 85 1184 l 1
 85 0 l 1
EndSplineSet
EndChar

StartChar: uni04B0
Encoding: 607 1200 562
Width: 986
VWidth: 0
Flags: W
LayerCount: 2
UndoRedoHistory
Layer: 1
Undoes
EndUndoes
Redoes
EndRedoes
EndUndoRedoHistory
Fore
SplineSet
2 663 m 5
 986 663 l 5
 986 912 l 5
 2 912 l 5
 2 663 l 5
EndSplineSet
Refer: 116 89 N 1 0 0 1 0 0 2
EndChar

StartChar: uni04AF
Encoding: 606 1199 563
Width: 957
VWidth: 0
Flags: W
LayerCount: 2
UndoRedoHistory
Layer: 1
Undoes
EndUndoes
Redoes
EndRedoes
EndUndoRedoHistory
Fore
SplineSet
652 -361 m 1
 651 126 l 1
 935 1184 l 1
 590 1184 l 1
 485 628 l 5
 344 1184 l 1
 -1 1184 l 1
 330 125 l 0
 329 -359 l 1
 652 -361 l 1
EndSplineSet
EndChar

StartChar: uni04B1
Encoding: 608 1201 564
Width: 957
VWidth: 0
Flags: W
LayerCount: 2
UndoRedoHistory
Layer: 1
Undoes
EndUndoes
Redoes
EndRedoes
EndUndoRedoHistory
Fore
SplineSet
76 -197 m 5
 896 -197 l 5
 896 52 l 5
 76 52 l 5
 76 -197 l 5
EndSplineSet
Refer: 563 1199 N 1 0 0 1 0 0 2
EndChar

StartChar: uni04E8
Encoding: 609 1256 565
Width: 1192
VWidth: 0
Flags: W
HStem: -26 284<522.235 666.601> 1400 284<522.235 666.601>
VStem: 80 424<278.245 523 1135 1379.76> 688 424<278.245 523 1135 1379.76>
LayerCount: 2
UndoRedoHistory
Layer: 1
Undoes
EndUndoes
Redoes
EndRedoes
EndUndoRedoHistory
Fore
SplineSet
309 743 m 5
 906 743 l 5
 906 992 l 5
 309 992 l 5
 309 743 l 5
EndSplineSet
Refer: 70 79 N 1 0 0 1 0 0 2
EndChar

StartChar: uni04E9
Encoding: 610 1257 566
Width: 1015
VWidth: 0
Flags: W
HStem: -22 263<446.849 566> 943 263<446.849 566>
VStem: 72 366<249.916 349 835 934.084> 577 366<249.604 349 835 934.396>
LayerCount: 2
UndoRedoHistory
Layer: 1
Undoes
EndUndoes
Redoes
EndRedoes
EndUndoRedoHistory
Fore
SplineSet
259 513 m 1
 766 513 l 1
 766 702 l 1
 259 702 l 1
 259 513 l 1
EndSplineSet
Refer: 367 111 N 1 0 0 1 0 0 2
EndChar
